<svg width="282" height="182" viewBox="0 0 282 182" fill="none" xmlns="http://www.w3.org/2000/svg">
<path d="M278.877 169.798C278.667 168.876 278.457 167.953 278.246 167.031C277.278 167.583 276.292 167.263 275.316 167.129C275.652 167.145 275.987 167.16 276.323 167.177C276.99 167.21 277.609 167.297 278.141 166.681C277.439 164.726 276.563 162.838 276.073 160.801C275.257 157.401 272.751 155.484 271.739 152.259C271.121 150.291 270.441 148.257 269.015 146.895C268.401 146.268 267.694 146.001 266.915 145.893C258.125 144.675 249.448 142.546 240.75 140.591C235.948 139.558 231.2 138.182 226.42 137.011C216.788 134.65 207.111 132.912 197.278 132.884C194.969 132.934 192.661 132.902 190.35 132.911C187.812 132.841 185.327 133.432 182.835 133.875C171.664 135.858 161.286 140.364 152.557 149.777C150.352 152.154 147.961 154.429 146.75 157.987C146.766 158.793 147.234 159.152 147.705 159.447C151.593 161.881 154.254 165.828 156.279 170.571C156.641 171.419 156.974 172.319 157.829 172.544C159.04 172.81 160.218 172.543 161.386 172.165C170.582 169.132 179.989 168.119 189.435 167.86C196.114 167.677 202.79 168.445 209.438 169.285C217.948 170.36 226.462 171.347 234.978 172.31C236.449 172.312 237.891 172.763 239.365 172.764C251.879 172.77 264.393 172.773 276.907 172.753C277.716 172.752 278.573 172.868 279.23 172.025C279.113 171.282 278.996 170.54 278.877 169.798Z" fill="#CDB299"/>
<path d="M124.343 135.003C117.024 130.581 109.117 129.52 101.192 128.941C93.8502 128.404 86.5312 129.225 79.2382 130.47C66.2899 132.68 53.6237 136.681 40.8551 140.03C32.625 142.189 24.3579 144.07 16.0625 145.764C14.9544 145.99 13.8511 146.093 12.8873 146.905C11.9361 147.886 11.6437 149.387 11.0558 150.653C10.1353 152.634 9.58282 155.222 8.24621 156.469C6.74884 157.867 6.26574 159.539 5.72274 161.446C4.96775 164.094 4.16311 166.72 3.37975 169.355C3.86442 169.947 4.47914 169.767 5.05129 169.788C5.28693 169.797 5.52178 169.799 5.75742 169.805C5.33973 169.804 4.92283 169.807 4.50514 169.803C3.9787 169.798 3.44122 169.769 3.00462 170.258C2.88719 170.843 2.76977 171.428 2.65234 172.013C3.47511 173.011 4.52012 172.758 5.49026 172.747C15.2058 172.632 24.9269 173.14 34.637 172.297C40.0047 171.742 45.3834 171.403 50.7558 170.984C56.4317 170.541 62.0988 169.949 67.7699 169.431C75.6059 168.715 83.4443 168.135 91.2944 167.816C96.168 167.618 101.016 168.248 105.871 168.664C111.159 169.117 116.369 170.056 121.434 172.103C122.027 172.245 122.61 172.486 123.224 172.291C123.991 171.842 124.245 170.886 124.594 170.038C127.56 162.825 132.172 158.664 138.59 157.785C139.484 157.663 140.497 157.741 141.077 156.54C141.078 155.452 140.694 154.522 140.295 153.61C136.604 145.164 131.159 139.122 124.343 135.003Z" fill="#CDB299"/>
<path d="M203.034 79.3708C208.161 74.7708 213.64 70.9178 219.214 67.2968C224.001 64.1868 228.884 61.3127 233.726 58.3337C235.514 57.4787 237.302 56.6237 239.369 55.6357C238.248 60.7347 237.197 65.4917 236.159 70.2527C235.805 71.8707 234.621 71.4918 233.811 71.6718C228.215 72.9138 222.657 74.3728 217.132 76.0338C212.402 77.4568 207.722 79.1127 203.134 81.1707C202.647 81.3887 202.178 81.7857 201.615 81.5977C201.455 80.2047 202.778 80.3348 203.034 79.3708Z" fill="#BEA38D"/>
<path d="M203.037 79.3711C203.131 80.6941 201.721 80.4751 201.618 81.5971C200.845 82.2021 200.06 82.7731 199.148 82.9751C200.163 81.2861 201.691 80.4861 203.037 79.3711Z" fill="#92806D"/>
<path d="M157.502 172.152C158.703 172.065 159.916 172.118 161.086 171.658C181.723 170.857 202.364 171.509 223.004 171.314C226.108 171.285 229.21 171.449 232.306 171.784C233.114 171.871 233.946 171.964 234.753 171.668C248.578 172.521 262.413 171.884 276.242 172.076C277.238 172.09 278.234 172.043 279.229 172.024C281.153 172.367 282.097 173.46 281.992 175.221C281.887 176.993 280.858 177.91 278.898 177.911C240.475 177.916 202.053 177.913 163.631 177.931C162.895 177.931 162.092 177.595 161.434 178.345C160.094 178.639 158.743 178.611 157.419 178.295C156.344 178.039 155.348 177.52 155.462 175.732C155.571 175.267 155.758 174.914 156.191 175.197C157.613 176.127 157.666 175.171 157.407 173.787C157.301 173.224 157.113 172.664 157.502 172.152Z" fill="#35008B"/>
<path d="M2.65409 172.013C12.372 171.954 22.0931 172.491 31.8064 171.678C32.7962 171.595 33.7939 171.653 34.7877 171.646C37.5381 172.11 40.287 171.571 43.0311 171.504C45.5499 171.442 48.0749 171.327 50.5937 171.322C72.8501 171.286 95.1066 171.316 117.362 171.268C118.886 171.265 120.365 171.834 121.888 171.617C122.333 171.779 122.778 171.941 123.224 172.102C123.526 172.568 123.345 173.065 123.281 173.554C123.199 174.18 122.905 174.977 123.517 175.298C124.183 175.649 124.31 174.734 124.567 174.215C124.882 173.577 124.984 172.608 125.879 172.886C126.767 173.659 127.041 174.738 126.706 175.984C126.313 177.445 125.449 178.262 124.232 178.41C122.498 178.622 120.735 178.285 119.019 178.855C118.61 177.504 117.686 177.923 116.923 177.923C87.8853 177.911 58.8481 177.913 29.8101 177.913C20.9339 177.913 12.0584 177.911 3.18211 177.914C2.23798 177.914 1.28518 177.992 0.585351 176.94C0.00452758 176.068 -0.152305 175.1 0.151898 174.024C0.573527 172.536 1.53421 172.113 2.65409 172.013Z" fill="#35008B"/>
<path d="M146.231 158.091C146.469 158.149 146.708 158.207 146.947 158.266C151.948 161.08 155.103 166.155 157.504 172.151C157.603 172.641 157.659 173.153 157.811 173.615C158.121 174.558 158.293 175.522 157.523 176.161C156.581 176.941 156.239 175.786 155.782 175.091C153.928 168.098 150.719 162.447 144.907 160.508C136.819 157.809 128.715 162.384 125.48 172.913C125.234 173.653 125 174.4 124.738 175.132C124.462 175.905 124.092 176.655 123.312 176.239C122.629 175.875 122.489 175.063 122.689 174.191C122.85 173.488 123.046 172.798 123.226 172.102C125.209 166.62 127.964 162.048 132.37 159.339C135.065 157.682 137.931 157.122 140.87 156.917C141.302 157.492 141.834 157.209 142.335 157.193C143.061 157.267 143.786 157.342 144.513 157.417C145.086 157.643 145.659 157.867 146.231 158.091Z" fill="#35008B"/>
<path d="M189.98 133.516C192.451 132.823 194.923 132.829 197.393 133.514C194.923 133.515 192.451 133.516 189.98 133.516Z" fill="#CAC8B4"/>
<path d="M99.9909 161.313C99.9672 159.085 99.9436 156.857 99.9192 154.629C99.5889 152.402 100.093 150.144 99.7615 147.917C99.7403 147.581 99.719 147.245 99.6977 146.91C99.3793 146.472 99.3612 146.017 99.6488 145.545C99.6591 142.764 99.6685 139.983 99.6788 137.201C99.8222 137.009 99.998 136.922 100.206 136.936C105.679 136.862 111.057 137.747 116.347 139.514C117.023 139.74 117.727 139.886 118.301 140.461C118.458 140.655 118.501 140.884 118.429 141.146C118.296 149.879 118.162 158.611 118.021 167.839C116.746 166.651 115.779 165.75 114.812 164.848C114.057 164.546 113.38 164.059 112.76 163.437C112.564 163.277 112.388 163.087 112.205 162.906C108.257 159.002 109.747 159.205 105.515 162.38C105.12 162.758 104.634 162.844 104.184 163.047C102.745 163.46 101.713 164.867 100.273 165.651C99.834 164.695 100.178 163.633 99.9712 162.698C99.7418 162.232 99.7174 161.769 99.9909 161.313Z" fill="#33479D"/>
<path d="M158.207 177.854C156.913 177.613 155.494 177.56 155.778 175.09C156.154 174.449 155.962 173.779 155.753 173.187C154.473 169.572 152.939 166.176 150.483 163.596C147.351 160.307 143.78 159.043 139.716 159.316C133.487 159.734 128.995 163.483 125.919 170.196C125.554 170.992 125.114 171.877 125.476 172.913C126.247 173.719 126.766 174.706 126.288 175.966C125.807 177.232 125.007 177.97 123.788 177.874C122.635 177.783 121.473 177.865 120.315 177.852C119.708 177.845 119.131 177.859 119.016 178.857C119.403 181.058 120.641 181.835 122.249 181.837C134.219 181.854 146.19 181.859 158.16 181.83C159.952 181.826 161.165 180.75 161.431 178.344C160.433 177.38 159.278 178.054 158.207 177.854Z" fill="#35008B"/>
<path d="M217.402 169.584C205.307 168.036 193.213 166.473 181.033 167.636C174.299 168.279 167.607 169.297 161.086 171.659C161.571 172.29 162.194 172.031 162.758 172.032C186.078 172.045 209.398 172.047 232.718 172.031C233.398 172.031 234.135 172.321 234.754 171.669C228.969 170.976 223.182 170.323 217.402 169.584Z" fill="#35008B"/>
<path d="M121.886 171.617C120.65 171.147 119.431 170.586 118.176 170.22C108.895 167.51 99.4457 166.957 89.987 167.24C71.5449 167.793 53.1942 170.337 34.7852 171.645C35.3289 172.315 36.0138 172.03 36.6332 172.031C64.4978 172.043 92.3631 172.04 120.228 172.024C120.79 172.024 121.418 172.299 121.886 171.617Z" fill="#35008B"/>
<path d="M100.02 137.125C100.725 135.072 102.195 135.304 103.558 135.218C108.707 135.575 113.784 136.469 118.707 138.507C119.158 139.379 119.205 140.148 118.36 140.688C114.19 139.395 109.981 138.401 105.712 137.768C104.19 137.542 102.687 137.577 101.178 137.638C100.688 137.657 100.259 137.853 100.02 137.125Z" fill="#33479D"/>
<path d="M239.106 146.583C232.761 144.886 226.384 143.378 220.011 141.85C212.706 140.099 205.327 138.99 197.909 138.521C187.48 137.861 177.38 140.146 167.604 144.746C164.601 146.159 161.641 147.713 158.934 149.93C161.825 148.725 164.635 147.267 167.505 146.034C175.133 142.757 182.935 140.583 191.022 140.235C199.494 139.87 207.844 141.138 216.188 142.838C227.442 145.13 238.621 147.923 249.834 150.493C251.977 150.984 254.089 151.865 256.332 151.587C250.591 149.91 244.869 148.125 239.106 146.583Z" fill="#95806D"/>
<path d="M158.895 158.144C178.572 147.611 198.961 147.512 219.643 151.682C198.875 146.256 178.424 145.459 158.895 158.144Z" fill="#95806D"/>
<path d="M165.715 163.059C181.492 156.77 197.521 157.546 213.617 160.211C197.482 156.481 181.429 155.017 165.715 163.059Z" fill="#95806D"/>
<path d="M101.849 134.903C95.9851 134.884 90.1343 134.911 84.2804 135.686C78.6353 136.434 73.0367 137.468 67.4562 138.738C60.7188 140.271 54.1146 142.561 47.4324 144.405C44.2422 145.286 41.1009 146.45 37.9375 147.486C38.341 147.806 38.6972 147.843 39.0282 147.743C50.1702 144.362 61.3564 141.32 72.7096 139.229C81.6702 137.579 90.6427 136.884 99.6789 137.2C99.7924 137.171 99.9067 137.146 100.021 137.125C101.09 136.159 102.481 136.156 103.559 135.217C103.032 134.737 102.424 134.905 101.849 134.903Z" fill="#95806D"/>
<path d="M98.4451 152.998C91.7054 152.372 84.9569 152.787 78.2361 153.385C72.5926 153.887 66.9609 154.741 61.3654 155.898C57.6709 156.662 53.9456 157.198 50.3164 158.462C66.7899 155.807 83.2428 152.885 99.9212 154.63C99.9646 152.388 99.4286 153.089 98.4451 152.998Z" fill="#95806D"/>
<path d="M57.0898 164.746C71.3464 162.793 85.6321 161.893 99.9699 162.698C99.9762 162.236 99.9833 161.774 99.9896 161.313C85.614 160.933 71.2771 161.333 57.0898 164.746Z" fill="#95806D"/>
<path d="M99.7001 146.91C99.6836 146.455 99.6678 146 99.6513 145.544C98.9869 145.16 98.28 145.203 97.5754 145.2C90.5417 145.172 83.5498 145.989 76.5775 147.034C72.5078 147.644 68.4626 148.516 64.4062 149.271C76.1504 147.794 87.8543 145.801 99.7001 146.91Z" fill="#95806D"/>
<path d="M118.71 138.507C118.782 139.282 118.697 140.017 118.363 140.688C118.386 140.841 118.408 140.994 118.431 141.147C124.769 143.064 130.01 147.449 134.807 152.852C130.814 145.586 125.186 141.283 118.71 138.507Z" fill="#95806D"/>
<path d="M112.139 162.851C109.879 162.196 107.627 161.336 105.273 162.148C104.769 162.173 104.44 162.54 104.184 163.047C107.727 163.647 111.269 164.248 114.813 164.848C114.249 164.268 113.686 163.688 113.122 163.108C112.745 163.316 112.466 162.946 112.139 162.851Z" fill="#95806D"/>
<path d="M229.36 59.566C225.744 60.92 220.235 63.079 213.616 66.078C191.35 76.169 175.405 83.627 162.051 101.033C158.799 105.271 154.219 112.031 149.903 121.843C149.416 103.754 147.576 89.035 145.881 78.582C144.418 69.564 143.296 62.798 140.645 53.756C136.944 41.127 131.722 29.489 125.49 18.553C122.177 12.737 118.748 7.04297 115.271 1.38697C114.462 0.0699723 113.689 -0.521027 112.351 0.565973C106.546 5.28297 100.688 9.89697 94.84 14.529C90.3408 18.093 85.8274 21.627 81.3203 25.175C84.386 28.756 87.4446 32.353 90.4275 36.038C94.7194 41.34 98.968 46.7 103.019 52.316C106.111 56.601 109.274 60.816 112.278 65.194C118.762 74.642 124.981 84.375 130.631 94.662C134.729 102.124 138.752 109.649 141.757 117.97C144.081 124.407 145.579 131.1 146.175 138.134C146.222 138.68 146.02 139.593 146.65 139.709C146.644 139.721 146.643 139.733 146.637 139.745C146.637 144.415 146.637 149.086 146.637 154.106C149.927 148.364 153.013 142.976 156.099 137.589C156.866 137.67 157.157 136.656 157.53 136.035C163.06 126.855 168.929 118.024 175.092 109.54C182.333 99.571 190.249 90.505 199.172 82.951L199.147 82.976C200.469 81.724 201.973 80.844 203.322 79.651C212.542 72.055 222.258 65.628 232.277 59.918C232.453 59.818 232.919 59.486 233.568 59.066C235.893 57.561 237.888 56.431 239.37 55.637C237.173 56.48 233.665 57.841 229.36 59.566Z" fill="#F7F7E0"/>
<path d="M137.929 133.941C137.467 132.65 136.894 131.432 136.178 130.328C135.916 130.038 135.659 129.742 135.403 129.443C135.328 129.195 135.247 128.952 135.14 128.73C130.475 119.058 124.989 110.191 118.895 101.956C114.781 96.3945 110.522 91.0075 105.898 86.1185C99.3544 79.2005 92.5327 72.7675 85.5321 66.6395C83.6525 64.9965 81.7729 63.3525 79.8933 61.7095C79.8949 61.8985 79.8657 62.0555 79.8177 62.1925C78.4905 60.3525 76.975 58.8865 74.9638 58.3955C74.7786 58.6815 74.6336 59.0445 74.4011 59.2405C71.6956 61.5265 69.1146 64.0235 66.5037 66.4785C60.6552 71.9765 55.3364 78.2345 50.0199 84.4845C44.6791 90.7635 39.7322 97.5605 34.7199 104.264C34.3937 104.701 34.0477 105.11 34.0548 105.777C34.437 106.455 35.0163 106.669 35.6065 106.638C37.3246 106.548 38.9898 107.082 40.6819 107.234C47.461 107.84 54.2236 108.657 60.9902 109.453C68.5716 110.345 76.1396 111.34 83.6927 112.568C93.8244 114.216 103.876 116.344 113.73 119.818C120.553 122.224 127.169 125.196 132.835 130.844C134.183 132.188 135.328 133.783 136.544 135.293C136.952 135.799 137.489 136.602 138.023 136.152C138.704 135.579 138.183 134.651 137.929 133.941Z" fill="#F7F7E0"/>
<path d="M142.984 155.36C142.797 153.706 142.686 152.027 142.051 150.511C141.796 150.061 141.624 149.55 141.433 149.053C140.143 141.566 136.684 135.725 132.098 130.892C128.084 126.662 123.276 124.236 118.377 122.072C108.327 117.634 97.9256 115.265 87.4361 113.416C81.9392 112.447 76.4297 111.601 70.8902 111.055C65.1844 110.493 59.4944 109.676 53.7973 108.97C51.5646 108.886 49.3588 108.22 47.1103 108.464C47.1001 108.48 47.0906 108.495 47.0804 108.511C47.0512 108.418 47.0158 108.322 46.9669 108.221C45.4829 107.511 43.9012 107.564 42.3636 107.281C41.5787 107.137 40.7599 106.814 40.0498 107.61C40.0372 108.08 39.8772 108.456 39.6187 108.789C34.7105 115.115 30.1443 121.835 25.4938 128.462C21.2286 134.541 16.9075 140.554 12.8906 146.904C19.5736 145.955 26.1841 144.392 32.7702 142.74C44.2385 139.863 55.6516 136.635 67.1066 133.664C74.9615 131.626 82.9031 130.195 90.9038 129.608C97.7554 129.105 104.614 129.518 111.412 130.881C118.204 132.242 124.621 134.832 130.213 140.148C134.891 144.596 138.714 149.898 140.87 156.916C141.186 157.925 141.786 157.726 142.394 157.489C143.004 156.964 143.079 156.193 142.984 155.36Z" fill="#F7F7E0"/>
<path d="M145.933 146.079C145.811 145.427 145.657 144.787 145.539 144.135C145.622 135.612 144.22 127.438 141.595 119.584C137.689 107.897 131.708 97.8415 125.805 87.7495C120.987 79.5145 115.956 71.4825 110.626 63.7675C105.951 57.0025 101.267 50.2455 96.1538 43.9965C94.3672 41.6055 92.6051 39.1835 90.6104 37.0605C90.6341 37.0005 90.6632 36.9485 90.6837 36.8845C89.3818 34.1265 87.3682 32.3275 85.3586 30.5235C85.3341 30.5015 85.2553 30.5765 85.2018 30.6065C84.9779 31.1495 84.6501 31.5455 84.2221 31.8395C77.2239 36.6355 70.7891 42.5145 64.3906 48.4635C64.8919 49.4405 65.6941 49.9485 66.4326 50.5435C78.5715 60.3305 90.597 70.3215 102.038 81.4115C109.532 88.6765 116.333 96.8655 122.499 105.887C128.666 114.908 134.244 124.498 138.698 135.052C141.42 141.501 143.833 148.13 144.066 155.654C144.089 156.417 144.02 157.407 145.001 157.41C145.663 156.945 145.633 156.075 145.746 155.3C146.193 152.24 146.111 149.161 145.933 146.079Z" fill="#F7F7E0"/>
<path d="M268.162 144.725C262.762 134.617 257.27 124.585 252.049 114.331C250.452 111.193 248.473 109.66 245.741 108.802C238.776 106.614 231.765 104.817 224.672 103.412C220.583 102.602 216.486 101.624 212.382 101.422C206.55 101.135 200.688 100.918 194.858 102.164C188.645 103.492 182.676 105.648 177.093 109.394C176.644 109.695 174.083 112.015 173.985 112.059C173.563 112.569 173.099 113.035 172.725 113.597C169.507 118.422 166.228 123.187 163.118 128.122C159.279 134.211 155.512 140.379 152.15 146.921L152.148 146.923C149.891 150.404 147.939 154.147 146.227 158.093C146.428 158.397 146.669 158.445 146.943 158.268C147.447 157.368 147.88 156.385 148.466 155.582C152.837 149.591 157.897 144.838 163.772 141.399C172.106 136.521 180.894 134.283 189.977 133.518C192.447 133.169 194.919 133.174 197.389 133.516C201.075 133.479 204.729 134.059 208.397 134.345C215.818 134.923 223.025 137.096 230.321 138.606C233.824 139.331 237.22 140.796 240.783 141.142C242.261 141.895 243.854 141.931 245.391 142.299C253.223 144.177 261.087 145.801 269.014 146.896C268.914 146.054 268.526 145.407 268.162 144.725Z" fill="#F6F7E0"/>
<path d="M113.123 163.109C111.087 163.657 109.177 162.425 107.177 162.427C106.542 162.428 105.908 162.247 105.273 162.148C106.154 160.91 107.434 160.426 108.448 159.436C109.095 158.804 109.536 159.477 109.978 159.914C111.038 160.962 112.076 162.042 113.123 163.109Z" fill="#CDB098"/>
<path d="M64.3898 48.4629C92.8155 68.3449 147.847 121.764 143.265 157.793C141.326 154.863 141.775 146.536 138.694 141.762C122.715 107.215 51.9096 112.704 33.7891 106.691C68.9206 108.082 124.795 114.308 137.966 136.035C118.919 91.0249 88.3273 72.8929 64.3898 48.4629Z" fill="#AD9680"/>
<path d="M156.113 137.564C168.414 117.669 181.794 96.6377 199.172 82.9507C165.203 112.645 141.402 175.414 145.378 153.978C148.982 104.552 101.538 53.3717 84.1742 29.3967C83.0134 28.6127 79.5072 23.0837 83.1166 26.5017C114.679 65.2367 150.067 112.149 147.05 150.783C145.794 158.242 152.881 139.279 156.113 137.564Z" fill="#92806D"/>
</svg>
