<svg width="173" height="178" viewBox="0 0 173 178" fill="none" xmlns="http://www.w3.org/2000/svg">
<path d="M34.8633 90.0501V23.25C34.8633 11.514 44.9359 2.00078 57.3601 2.00078C64.5075 2.00078 71.2289 5.20816 75.4692 10.6423L85.222 23.1395C88.9622 27.9322 88.6318 34.5463 84.4286 38.9849C79.2225 44.4829 70.147 44.5879 64.8 39.2114L64.6624 39.0729C60.2046 34.5899 59.833 27.7198 63.7841 22.8313L73.8681 10.3551C78.1241 5.08986 84.7367 2 91.7498 2H92.1305C104.556 2 114.627 11.514 114.627 23.2492V42.011" stroke="#C3BBE2" stroke-width="3" stroke-miterlimit="10"/>
<path d="M118.393 44.5506H110.863V43.0282C110.863 41.0646 112.549 39.4722 114.628 39.4722C116.707 39.4722 118.393 41.0646 118.393 43.0282V44.5506Z" fill="#35008B"/>
<path d="M160.727 42.7866V167.949" stroke="black" stroke-miterlimit="10"/>
<path d="M93.9766 60.0659H172.595" stroke="black" stroke-miterlimit="10"/>
<path d="M118.714 75.867V44.5513H110.537V75.867C101.092 77.6595 93.9766 85.5374 93.9766 94.9868C93.9766 105.759 103.221 114.491 114.625 114.491C126.029 114.491 135.275 105.759 135.275 94.9868C135.275 85.5374 128.159 77.6587 118.714 75.867Z" fill="white"/>
<path d="M117.371 92.5121C115.855 93.9442 113.396 93.9442 111.88 92.5121C110.558 91.2637 110.365 89.3024 111.422 87.8454L114.625 83.4316L117.828 87.8454C118.885 89.3024 118.693 91.2637 117.371 92.5121Z" fill="#C3BBE2"/>
<path d="M130.144 100.736C127.832 106.713 121.756 110.981 114.624 110.981C107.497 110.981 101.422 106.713 99.1094 100.736H130.144Z" fill="#C3BBE2"/>
<path d="M109.674 103.071C107.875 103.071 107.874 105.709 109.674 105.709C111.474 105.71 111.475 103.071 109.674 103.071Z" fill="#6339A6"/>
<path d="M116.528 103.233C112.929 103.233 112.928 108.509 116.528 108.509C120.126 108.509 120.128 103.233 116.528 103.233Z" fill="#6339A6"/>
<path d="M118.714 75.867V44.5513H110.537V75.867C101.092 77.6595 93.9766 85.5374 93.9766 94.9868C93.9766 105.759 103.221 114.491 114.625 114.491C126.029 114.491 135.275 105.759 135.275 94.9868C135.275 85.5374 128.159 77.6587 118.714 75.867Z" stroke="black" stroke-miterlimit="10"/>
<path d="M119.616 64.8713H109.643C106.833 64.8713 104.555 62.7193 104.555 60.0653C104.555 57.4113 106.833 55.2593 109.643 55.2593H119.616C122.426 55.2593 124.704 57.4113 124.704 60.0653C124.704 62.7201 122.426 64.8713 119.616 64.8713Z" fill="#35008B"/>
<path d="M161.065 64.8713V55.2593C158.255 55.2593 155.977 57.4113 155.977 60.0653C155.977 62.7201 158.255 64.8713 161.065 64.8713Z" fill="#35008B"/>
<path d="M93.9766 177.56H170.9C170.9 172.251 166.344 167.948 160.724 167.948H104.152C98.5325 167.949 93.9766 172.252 93.9766 177.56Z" fill="#F3E5ED"/>
<path d="M87.7383 177.56H130.592C130.592 172.251 126.036 167.948 120.416 167.948H97.9139C92.2942 167.949 87.7383 172.252 87.7383 177.56Z" fill="#35008B"/>
<path d="M42.1303 92.5904H27.6016V91.6604C27.6016 89.369 29.5684 87.5112 31.9943 87.5112H37.7384C40.1643 87.5112 42.1312 89.369 42.1312 91.6604L42.1303 92.5904Z" fill="#35008B"/>
<path d="M67.6253 166.472L42.4563 127.162V92.5903H27.2691V127.162L11.7054 151.47L4.98636 161.962L2.10003 166.471C1.38068 167.595 1 168.884 1 170.198C1 174.174 4.41299 177.399 8.62363 177.399H61.1025C65.3123 177.399 68.7262 174.175 68.7262 170.198C68.7262 168.885 68.3455 167.596 67.6253 166.472Z" fill="white"/>
<path d="M58.083 172.939H11.5583C8.02579 172.939 5.85868 169.29 7.69538 166.446L19.2355 148.534H50.442L61.9467 166.446C63.7826 169.296 61.608 172.939 58.083 172.939Z" fill="#C3BBE2"/>
<path d="M28.3936 152.403C25.2442 152.403 25.2434 157.019 28.3936 157.019C31.5421 157.019 31.5437 152.403 28.3936 152.403Z" fill="#6339A6"/>
<path d="M40.9272 156.635C35.9782 156.635 35.9766 163.889 40.9272 163.889C45.8761 163.889 45.8778 156.635 40.9272 156.635Z" fill="#6339A6"/>
<path d="M31.7211 163.214C27.6719 163.214 27.6703 169.149 31.7211 169.149C35.7702 169.15 35.7718 163.214 31.7211 163.214Z" fill="#6339A6"/>
<path d="M67.6253 166.472L42.4563 127.162V92.5903H27.2691V127.162L11.7054 151.47L4.98831 161.962L2.10003 166.471C1.38068 167.595 1 168.884 1 170.198C1 174.174 4.41299 177.399 8.62363 177.399H61.1025C65.3124 177.399 68.7262 174.175 68.7262 170.198C68.7262 168.885 68.3455 167.596 67.6253 166.472Z" stroke="#35008B" stroke-miterlimit="10"/>
</svg>
