<svg width="195" height="321" viewBox="0 0 195 321" fill="none" xmlns="http://www.w3.org/2000/svg">
<path d="M0.0199875 240.168V248.848L123.468 320.131V311.451C123.468 306.612 118.651 299.929 112.618 296.478L10.631 237.651C7.0506 235.481 3.88248 235.178 1.95123 236.219C1.29493 236.634 0.76677 237.223 0.425742 237.92C0.0847143 238.617 -0.0557612 239.396 0.0199875 240.168Z" fill="white"/>
<path d="M72.6043 195.554H72.7345C74.6874 194.425 77.8989 194.816 81.5444 196.921L183.532 255.769C189.456 259.198 194.381 265.903 194.381 270.72V279.4L123.685 320.217V311.537C123.685 306.698 118.867 300.015 112.835 296.564L10.8477 237.737C7.26733 235.567 4.09922 235.264 2.16797 236.305L72.6043 195.554Z" fill="#864BA2"/>
<path d="M152.284 244.877C143.734 239.929 132.082 237.868 120.928 238.671L78.1587 213.977L45.1973 232.985L87.9451 257.679C86.5781 264.189 90.1151 270.851 98.7949 275.798C113.572 284.326 137.55 284.326 152.327 275.798C167.105 267.27 167.083 253.404 152.284 244.877Z" fill="#37474F"/>
<path d="M37.2988 213.825V228.407L62.5353 242.989V228.407C62.2984 224.025 61.0313 219.761 58.837 215.96C56.6427 212.16 53.5829 208.93 49.9062 206.534C46.3909 204.494 43.2011 204.364 40.9226 205.71C38.6442 207.055 37.2988 209.854 37.2988 213.825Z" fill="#BA68C8"/>
<path opacity="0.6" d="M37.2988 213.825V228.407L62.5353 242.989V228.407C62.2984 224.025 61.0313 219.761 58.837 215.96C56.6427 212.16 53.5829 208.93 49.9062 206.534C46.3909 204.494 43.2011 204.364 40.9226 205.71C38.6442 207.055 37.2988 209.854 37.2988 213.825Z" fill="white"/>
<path d="M71.1292 188.263L71.3245 188.133C72.7536 187.492 74.3262 187.239 75.8842 187.399C77.4422 187.559 78.9305 188.127 80.1996 189.044C83.8787 191.438 86.9403 194.667 89.135 198.468C91.3296 202.269 92.5952 206.535 92.8287 210.917V225.499L62.4495 242.989V228.407C62.2126 224.025 60.9455 219.761 58.7512 215.96C56.5569 212.16 53.4971 208.93 49.8204 206.534C48.5811 205.638 47.134 205.072 45.6154 204.889C44.0968 204.707 42.5568 204.915 41.1406 205.493L71.1292 188.263Z" fill="#BA68C8"/>
<path opacity="0.7" d="M71.1292 188.263L71.3245 188.133C72.7536 187.492 74.3262 187.239 75.8842 187.399C77.4422 187.559 78.9305 188.127 80.1996 189.044C83.8787 191.438 86.9403 194.667 89.135 198.468C91.3296 202.269 92.5952 206.535 92.8287 210.917V225.499L62.4495 242.989V228.407C62.2126 224.025 60.9455 219.761 58.7512 215.96C56.5569 212.16 53.4971 208.93 49.8204 206.534C48.5811 205.638 47.134 205.072 45.6154 204.889C44.0968 204.707 42.5568 204.915 41.1406 205.493L71.1292 188.263Z" fill="white"/>
<path d="M49.9281 219.336C48.0619 218.273 46.543 219.141 46.543 221.289C46.6092 222.46 46.9502 223.598 47.5383 224.612C48.1264 225.626 48.9451 226.488 49.9281 227.127C51.7725 228.19 53.2915 227.322 53.2915 225.174C53.2243 224.006 52.8852 222.87 52.3012 221.857C51.7173 220.843 50.9046 219.98 49.9281 219.336Z" fill="#455A64"/>
<path d="M30.8338 157.711C37.6041 179.779 42.3779 189.11 55.0287 205.927L78.4858 192.364C66.92 174.18 60.5187 160.38 57.5675 142.282C52.4248 110.775 64.0773 83.1079 76.2941 71.7374L67.1587 59.1084C61.6687 62.385 43.6799 72.6705 43.6799 72.6705L51.3398 85.4948C29.4017 97.4946 24.0636 135.642 30.8338 157.711Z" fill="#A1984B" fill-opacity="0.71"/>
<path d="M43.6783 72.6699C31.2662 80.0911 12.2575 101.856 15.1002 143.019C17.1814 166.263 25.4207 188.531 38.9695 207.532C39.4612 206.773 40.1319 206.147 40.9225 205.709L44.134 203.843C46.4124 202.476 49.6022 202.628 53.1393 204.667C53.7685 205.036 54.3978 205.47 55.0271 205.926C44.8501 187.156 34.174 170.686 31.57 152.545C25.8848 113.009 43.2226 90.3332 51.3382 85.4942L43.6783 72.6699Z" fill="white"/>
<path d="M43.6797 72.6707C50.0304 69.0294 57.1923 67.0375 64.5111 66.877L66.9198 80.6778C66.9198 80.6778 60.7571 79.6796 51.3396 85.495L43.6797 72.6707Z" fill="#263238"/>
<path d="M102.875 243.878V232.204L135.815 213.174V224.848L102.875 243.878Z" fill="#BA68C8"/>
<path opacity="0.15" d="M102.875 243.878V232.204L135.815 213.174V224.848L102.875 243.878Z" fill="black"/>
<path d="M102.874 243.878L45.1973 210.57V198.917L102.874 232.204V243.878Z" fill="#BA68C8"/>
<path opacity="0.25" d="M102.874 243.878L45.1973 210.57V198.917L102.874 232.204V243.878Z" fill="black"/>
<path d="M135.814 213.174L78.1587 179.887L45.1973 198.917L102.874 232.204L135.814 213.174Z" fill="#BA68C8"/>
<path d="M163.373 236.956V226.28C163.373 220.682 159.684 215.083 152.285 210.808C137.508 202.28 113.53 202.259 98.7525 210.808C91.353 215.148 87.6641 220.66 87.6641 226.258V236.956C87.6641 242.641 91.2444 248.305 98.7307 252.645C113.508 261.173 137.486 261.173 152.263 252.645C159.771 248.305 163.438 242.641 163.352 236.956H163.373Z" fill="#BA68C8"/>
<path opacity="0.25" d="M163.373 236.956V226.28C163.373 220.682 159.684 215.083 152.285 210.808C137.508 202.28 113.53 202.259 98.7525 210.808C91.353 215.148 87.6641 220.66 87.6641 226.258V236.956C87.6641 242.641 91.2444 248.305 98.7307 252.645C113.508 261.173 137.486 261.173 152.263 252.645C159.771 248.305 163.438 242.641 163.352 236.956H163.373Z" fill="black"/>
<path d="M98.7529 210.808C113.53 202.259 137.508 202.28 152.285 210.808C167.063 219.336 167.084 233.18 152.285 241.73C137.486 250.28 113.53 250.258 98.7529 241.73C83.9756 233.202 83.9756 219.336 98.7529 210.808Z" fill="#BA68C8"/>
<path d="M153.912 225.673V217.666C153.912 213.456 151.135 209.268 145.601 206.057C134.513 199.656 116.524 199.656 105.436 206.057C99.9023 209.268 97.1465 213.456 97.1465 217.666V225.673C97.1465 230.013 99.8372 234.201 105.436 237.434C116.524 243.836 134.513 243.836 145.601 237.434C151.221 234.201 153.977 229.926 153.89 225.673H153.912Z" fill="#E0E0E0"/>
<path d="M125.529 234.048C141.205 234.048 153.912 226.713 153.912 217.665C153.912 208.617 141.205 201.282 125.529 201.282C109.854 201.282 97.1465 208.617 97.1465 217.665C97.1465 226.713 109.854 234.048 125.529 234.048Z" fill="#FAFAFA"/>
<path d="M106.587 206.729C117.046 200.697 133.993 200.697 144.452 206.729C154.911 212.762 154.911 222.548 144.452 228.581C133.993 234.613 117.046 234.613 106.587 228.581C96.1274 222.548 96.1274 212.762 106.587 206.729Z" fill="#E6E6E6"/>
<path d="M144.451 214.15C133.992 208.118 117.045 208.118 106.586 214.15C103.515 215.733 101.041 218.268 99.5332 221.376C101.048 224.473 103.521 227 106.586 228.58C117.045 234.613 133.992 234.613 144.451 228.58C147.52 227 150 224.474 151.525 221.376C150.008 218.268 147.527 215.733 144.451 214.15Z" fill="#F0F0F0"/>
<path d="M120.713 218.599C122.201 217.839 123.848 217.442 125.519 217.442C127.19 217.442 128.837 217.839 130.326 218.599C130.9 218.799 131.398 219.172 131.75 219.668C132.103 220.164 132.292 220.757 132.292 221.365C132.292 221.974 132.103 222.567 131.75 223.063C131.398 223.558 130.9 223.932 130.326 224.132C128.837 224.892 127.19 225.288 125.519 225.288C123.848 225.288 122.201 224.892 120.713 224.132C120.138 223.932 119.64 223.558 119.288 223.063C118.935 222.567 118.746 221.974 118.746 221.365C118.746 220.757 118.935 220.164 119.288 219.668C119.64 219.172 120.138 218.799 120.713 218.599Z" fill="#BA68C8"/>
<path d="M132.885 224.219C133.345 223.983 133.854 223.859 134.371 223.859C134.888 223.859 135.398 223.983 135.858 224.219C136.034 224.282 136.186 224.399 136.294 224.552C136.402 224.705 136.459 224.888 136.459 225.076C136.459 225.263 136.402 225.446 136.294 225.599C136.186 225.753 136.034 225.869 135.858 225.933C135.398 226.169 134.888 226.292 134.371 226.292C133.854 226.292 133.345 226.169 132.885 225.933C132.709 225.869 132.556 225.753 132.449 225.599C132.341 225.446 132.283 225.263 132.283 225.076C132.283 224.888 132.341 224.705 132.449 224.552C132.556 224.399 132.709 224.282 132.885 224.219Z" fill="#BA68C8"/>
<path opacity="0.6" d="M130.173 220.031C130.173 220.768 129.131 221.376 127.851 221.376C126.571 221.376 125.529 220.768 125.529 220.031C125.529 219.293 126.571 218.707 127.851 218.707C129.131 218.707 130.173 219.315 130.173 220.031Z" fill="white"/>
<path opacity="0.6" d="M135.534 224.653C135.534 224.891 135.23 225.065 134.818 225.065C134.405 225.065 134.102 224.891 134.102 224.653C134.102 224.414 134.427 224.24 134.818 224.24C135.208 224.24 135.534 224.436 135.534 224.653Z" fill="white"/>
<path d="M137.855 160.119V130.543H158.47V160.249C158.391 161.157 158.07 162.027 157.539 162.768C157.008 163.508 156.288 164.093 155.454 164.459C153.196 165.598 150.702 166.191 148.174 166.191C145.645 166.191 143.151 165.598 140.893 164.459C140.039 164.081 139.305 163.478 138.77 162.713C138.234 161.948 137.918 161.051 137.855 160.119Z" fill="#263238"/>
<path d="M158.448 154.022C158.366 154.926 158.042 155.791 157.512 156.527C156.981 157.264 156.263 157.845 155.432 158.21C153.178 159.36 150.683 159.96 148.152 159.96C145.621 159.96 143.126 159.36 140.872 158.21C140.04 157.839 139.322 157.254 138.792 156.514C138.262 155.774 137.939 154.906 137.855 154V160.163C137.935 161.073 138.257 161.945 138.787 162.689C139.317 163.433 140.037 164.022 140.872 164.394C143.13 165.533 145.623 166.126 148.152 166.126C150.681 166.126 153.174 165.533 155.432 164.394C156.266 164.028 156.986 163.443 157.517 162.703C158.048 161.962 158.369 161.092 158.448 160.184V154.022Z" fill="#BA68C8"/>
<path opacity="0.6" d="M158.448 154.022C158.366 154.926 158.042 155.791 157.512 156.527C156.981 157.264 156.263 157.845 155.432 158.21C153.178 159.36 150.683 159.96 148.152 159.96C145.621 159.96 143.126 159.36 140.872 158.21C140.04 157.839 139.322 157.254 138.792 156.514C138.262 155.774 137.939 154.906 137.855 154V160.163C137.935 161.073 138.257 161.945 138.787 162.689C139.317 163.433 140.037 164.022 140.872 164.394C143.13 165.533 145.623 166.126 148.152 166.126C150.681 166.126 153.174 165.533 155.432 164.394C156.266 164.028 156.986 163.443 157.517 162.703C158.048 161.962 158.369 161.092 158.448 160.184V154.022Z" fill="white"/>
<path d="M113.226 160.119V130.543H92.6328V160.249C92.7159 161.159 93.0416 162.029 93.576 162.77C94.1104 163.51 94.8338 164.094 95.6708 164.459C97.9286 165.598 100.422 166.191 102.951 166.191C105.48 166.191 107.973 165.598 110.231 164.459C111.075 164.073 111.8 163.466 112.327 162.702C112.854 161.938 113.165 161.046 113.226 160.119Z" fill="#263238"/>
<path d="M92.6328 154.022C92.7196 154.927 93.047 155.793 93.5812 156.53C94.1154 157.266 94.8368 157.846 95.6708 158.21C97.925 159.36 100.42 159.96 102.951 159.96C105.482 159.96 107.977 159.36 110.231 158.21C111.057 157.835 111.769 157.247 112.295 156.508C112.821 155.769 113.142 154.903 113.226 154V160.163C113.146 161.07 112.827 161.94 112.3 162.683C111.774 163.427 111.06 164.017 110.231 164.394C107.973 165.533 105.48 166.126 102.951 166.126C100.422 166.126 97.9286 165.533 95.6708 164.394C94.8338 164.029 94.1104 163.445 93.576 162.705C93.0416 161.964 92.7159 161.094 92.6328 160.184V154.022Z" fill="#BA68C8"/>
<path opacity="0.25" d="M92.6328 154.022C92.7196 154.927 93.047 155.793 93.5812 156.53C94.1154 157.266 94.8368 157.846 95.6708 158.21C97.925 159.36 100.42 159.96 102.951 159.96C105.482 159.96 107.977 159.36 110.231 158.21C111.057 157.835 111.769 157.247 112.295 156.508C112.821 155.769 113.142 154.903 113.226 154V160.163C113.146 161.07 112.827 161.94 112.3 162.683C111.774 163.427 111.06 164.017 110.231 164.394C107.973 165.533 105.48 166.126 102.951 166.126C100.422 166.126 97.9286 165.533 95.6708 164.394C94.8338 164.029 94.1104 163.445 93.576 162.705C93.0416 161.964 92.7159 161.094 92.6328 160.184V154.022Z" fill="black"/>
<path d="M115.223 173.269V143.584H135.815V173.269C135.729 174.174 135.401 175.04 134.867 175.777C134.333 176.513 133.611 177.093 132.777 177.457C130.52 178.596 128.026 179.189 125.497 179.189C122.969 179.189 120.475 178.596 118.217 177.457C117.394 177.083 116.684 176.5 116.158 175.764C115.632 175.029 115.31 174.168 115.223 173.269Z" fill="#37474F"/>
<path d="M135.815 167.063C135.729 167.969 135.401 168.834 134.867 169.571C134.333 170.307 133.611 170.887 132.777 171.251C130.523 172.402 128.028 173.001 125.497 173.001C122.966 173.001 120.471 172.402 118.217 171.251C117.39 170.878 116.676 170.291 116.15 169.551C115.624 168.812 115.304 167.945 115.223 167.041V173.269C115.316 174.153 115.638 174.997 116.155 175.719C116.672 176.442 117.368 177.018 118.174 177.392C120.432 178.531 122.925 179.124 125.454 179.124C127.983 179.124 130.476 178.531 132.734 177.392C133.568 177.028 134.289 176.448 134.824 175.712C135.358 174.975 135.685 174.109 135.772 173.204V167.02L135.815 167.063Z" fill="#BA68C8"/>
<path d="M160.53 104.764C160.53 100.597 158.36 96.4311 153.716 92.9375C151.026 90.8373 148.587 88.4345 146.447 85.7766L136.617 73.8203C130.841 66.6647 123.083 61.3719 114.313 58.6044C105.544 55.8369 96.1527 55.7177 87.3158 58.2618C84.4682 59.1016 81.7241 60.2589 79.1351 61.712C71.8658 65.8783 68.5892 71.4984 69.3053 76.9016V111.273C68.893 116.525 72.1696 121.884 79.1135 125.921L102.983 139.678C116.133 147.338 137.507 147.403 150.722 139.83C157.231 136.054 160.616 131.15 160.66 126.138C160.703 121.125 160.508 109.733 160.53 104.764Z" fill="#37474F"/>
<path d="M78.1602 116.091L86.3843 120.843V116.091L78.1602 111.317V116.091Z" fill="#BA68C8"/>
<path d="M93.1099 106.478C98.8989 113.614 106.663 118.886 115.432 121.634C124.2 124.382 133.585 124.484 142.411 121.928C145.265 121.107 148.012 119.949 150.592 118.478C162.7 111.556 163.742 100.597 153.695 92.9375C151.019 90.8441 148.594 88.4485 146.469 85.7983L136.617 73.8203C130.841 66.6647 123.083 61.3719 114.314 58.6044C105.544 55.8369 96.1531 55.7177 87.3162 58.2618C84.4686 59.1016 81.7244 60.2589 79.1355 61.712C67.0272 68.6558 65.9856 79.614 76.0325 87.2739C78.7081 89.3673 81.1328 91.7629 83.2584 94.413L93.1099 106.478Z" fill="white"/>
<path d="M150.592 135.881C137.399 143.454 116.025 143.389 102.854 135.729L78.9844 121.972C72.4745 118.153 69.1328 113.162 69.1328 108.171V112.294C69.1328 117.285 72.4094 122.276 78.9844 126.095L102.854 139.852C116.004 147.512 137.378 147.577 150.592 140.004C157.102 136.228 160.487 131.324 160.531 126.312V122.189C160.487 127.158 157.232 132.04 150.592 135.881Z" fill="#BA68C8"/>
<path d="M69.1974 75.6214V52.1426L136.704 52.3379V75.7733C136.704 80.7424 133.384 85.7333 126.788 89.509C113.573 97.0821 92.1988 97.017 79.0489 89.3571C72.4523 85.538 69.1757 80.5471 69.1974 75.6214Z" fill="#37474F"/>
<path d="M136.704 52.3379L69.1973 52.1426C69.1973 52.1426 69.1973 52.3596 69.1973 57.3504C69.1973 62.3413 72.4739 67.3322 79.0488 71.1513C92.1987 78.8112 113.573 78.8763 126.788 71.3032C133.297 67.5275 136.682 62.6234 136.704 57.5458C136.726 52.4681 136.704 52.3379 136.704 52.3379Z" fill="#BA68C8"/>
<path d="M126.853 38.5367C113.682 30.8768 92.3076 30.8117 79.1143 38.3848C65.9211 45.9579 65.8777 58.3048 79.1143 65.943C92.351 73.5812 113.638 73.668 126.853 66.0949C140.068 58.5218 140.025 46.1966 126.853 38.5367Z" fill="#BA68C8"/>
<path opacity="0.5" d="M126.853 38.5367C113.682 30.8768 92.3076 30.8117 79.1143 38.3848C65.9211 45.9579 65.8777 58.3048 79.1143 65.943C92.351 73.5812 113.638 73.668 126.853 66.0949C140.068 58.5218 140.025 46.1966 126.853 38.5367Z" fill="white"/>
<path d="M88.3574 50.2768V8.35352H117.543V50.2768C117.417 51.5651 116.947 52.796 116.184 53.8416C115.421 54.8872 114.392 55.7093 113.203 56.2224C110.008 57.8377 106.477 58.6792 102.896 58.6792C99.3153 58.6792 95.7846 57.8377 92.5888 56.2224C91.4194 55.6961 90.411 54.8679 89.6674 53.823C88.9238 52.7782 88.4716 51.5542 88.3574 50.2768Z" fill="#37474F"/>
<path d="M117.543 8.35352H88.3574C88.3574 8.35352 88.3574 12.3245 88.3574 14.4944C88.4824 15.7859 88.9508 17.0204 89.714 18.0697C90.4771 19.119 91.5072 19.9449 92.6973 20.4618C95.8969 22.0772 99.4311 22.9189 103.015 22.9189C106.6 22.9189 110.134 22.0772 113.333 20.4618C114.517 19.9411 115.541 19.1169 116.303 18.0728C117.065 17.0287 117.538 15.8017 117.673 14.5161C117.521 12.433 117.543 8.35352 117.543 8.35352Z" fill="#BA68C8"/>
<path d="M113.27 2.47264C110.077 0.847278 106.545 0 102.963 0C99.3801 0 95.8483 0.847278 92.6555 2.47264C86.9486 5.72755 86.9269 11.1524 92.6555 14.3856C95.8551 16.0011 99.3893 16.8427 102.974 16.8427C106.558 16.8427 110.092 16.0011 113.292 14.3856C118.955 11.109 118.977 5.77095 113.27 2.47264Z" fill="#BA68C8"/>
<path opacity="0.25" d="M113.27 2.47264C110.077 0.847278 106.545 0 102.963 0C99.3801 0 95.8483 0.847278 92.6555 2.47264C86.9486 5.72755 86.9269 11.1524 92.6555 14.3856C95.8551 16.0011 99.3893 16.8427 102.974 16.8427C106.558 16.8427 110.092 16.0011 113.292 14.3856C118.955 11.109 118.977 5.77095 113.27 2.47264Z" fill="black"/>
<path d="M110.383 4.12219C108.082 2.9606 105.54 2.35547 102.962 2.35547C100.384 2.35547 97.8424 2.9606 95.5411 4.12219C91.4399 6.48743 91.4182 10.3065 95.5411 12.802C97.8394 13.9736 100.382 14.5845 102.962 14.5845C105.542 14.5845 108.085 13.9736 110.383 12.802C114.463 10.3499 114.463 6.50913 110.383 4.12219Z" fill="#263238"/>
<path d="M95.54 10.1329C94.9352 10.4847 94.3743 10.9072 93.8691 11.3914C94.3606 11.8822 94.9152 12.3055 95.5183 12.65C97.8166 13.8217 100.36 14.4325 102.939 14.4325C105.519 14.4325 108.062 13.8217 110.361 12.65C110.964 12.3055 111.518 11.8822 112.01 11.3914C111.525 10.9079 110.978 10.4918 110.382 10.1546C108.084 8.98458 105.543 8.37293 102.964 8.36916C100.385 8.36539 97.8416 8.96965 95.54 10.1329Z" fill="#455A64"/>
<path d="M99.6412 10.7189C99.7714 11.2831 99.2289 11.8907 98.4478 12.0426C97.6666 12.1945 96.9288 11.9124 96.7986 11.3482C96.6684 10.784 97.2109 10.1764 98.0138 10.0028C98.8167 9.82922 99.5327 10.1547 99.6412 10.7189Z" fill="#FAFAFA"/>
<path d="M101.487 10.0893C101.502 10.1619 101.503 10.237 101.49 10.3101C101.477 10.3832 101.449 10.4531 101.409 10.5155C101.369 10.578 101.316 10.6319 101.255 10.6742C101.194 10.7165 101.125 10.7463 101.053 10.7619C100.98 10.7776 100.905 10.7788 100.832 10.7655C100.759 10.7522 100.689 10.7246 100.626 10.6843C100.564 10.644 100.51 10.5918 100.468 10.5306C100.425 10.4695 100.396 10.4006 100.38 10.328C100.348 10.1812 100.376 10.0279 100.458 9.90178C100.539 9.77563 100.667 9.68696 100.814 9.6553C100.961 9.62365 101.114 9.65159 101.24 9.73298C101.366 9.81437 101.455 9.9425 101.487 10.0893Z" fill="#FAFAFA"/>
<path d="M60.9296 58.2622C62.1942 57.6309 63.6082 57.3597 65.0166 57.4784C66.4251 57.597 67.7738 58.1009 68.915 58.9348C70.6983 60.0087 72.3019 61.356 73.6672 62.9275C74.0143 63.3181 74.3615 63.7304 74.6653 64.1427C76.4757 66.4829 77.8837 69.1083 78.8316 71.9111C79.5198 73.8868 79.8862 75.9601 79.9166 78.052C80.0462 79.398 79.8291 80.7547 79.2859 81.993C78.7428 83.2313 77.8916 84.3099 76.8136 85.126L73.1247 87.296C73.7031 86.9356 74.2105 86.4723 74.6219 85.9289C75.7633 84.2518 76.3271 82.2483 76.2277 80.222C76.0155 76.381 74.9033 72.6437 72.981 69.3116C71.0586 65.9795 68.3799 63.146 65.161 61.0397C63.4412 59.9348 61.4037 59.4312 59.3672 59.6075C58.5995 59.6812 57.858 59.9259 57.1973 60.3236L60.9296 58.2622Z" fill="#BA68C8"/>
<path opacity="0.7" d="M60.9296 58.2622C62.1942 57.6309 63.6082 57.3597 65.0166 57.4784C66.4251 57.597 67.7738 58.1009 68.915 58.9348C70.6983 60.0087 72.3019 61.356 73.6672 62.9275C74.0143 63.3181 74.3615 63.7304 74.6653 64.1427C76.4757 66.4829 77.8837 69.1083 78.8316 71.9111C79.5198 73.8868 79.8862 75.9601 79.9166 78.052C80.0462 79.398 79.8291 80.7547 79.2859 81.993C78.7428 83.2313 77.8916 84.3099 76.8136 85.126L73.1247 87.296C73.7031 86.9356 74.2105 86.4723 74.6219 85.9289C75.7633 84.2518 76.3271 82.2483 76.2277 80.222C76.0155 76.381 74.9033 72.6437 72.981 69.3116C71.0586 65.9795 68.3799 63.146 65.161 61.0397C63.4412 59.9348 61.4037 59.4312 59.3672 59.6075C58.5995 59.6812 57.858 59.9259 57.1973 60.3236L60.9296 58.2622Z" fill="white"/>
<path d="M57.4151 60.2369C58.0759 59.8392 58.8174 59.5945 59.5851 59.5208C61.6215 59.3445 63.659 59.8481 65.3788 60.953C68.5977 63.0593 71.2765 65.8929 73.1988 69.2249C75.1212 72.557 76.2333 76.2943 76.4455 80.1352C76.5449 82.1615 75.9812 84.165 74.8398 85.8422C74.4284 86.3855 73.9209 86.8489 73.3425 87.2093L73.1689 87.3178C72.2325 87.8286 71.1751 88.076 70.1093 88.0339C68.4319 87.9226 66.8074 87.401 65.3788 86.5149C62.1527 84.4195 59.4669 81.592 57.5401 78.2624C55.6133 74.9329 54.4998 71.1955 54.2904 67.3543C54.1491 65.9988 54.3628 64.6299 54.9107 63.382C55.4585 62.1342 56.3216 61.0503 57.4151 60.2369Z" fill="#BA68C8"/>
<path opacity="0.6" d="M57.4151 60.2369C58.0759 59.8392 58.8174 59.5945 59.5851 59.5208C61.6215 59.3445 63.659 59.8481 65.3788 60.953C68.5977 63.0593 71.2765 65.8929 73.1988 69.2249C75.1212 72.557 76.2333 76.2943 76.4455 80.1352C76.5449 82.1615 75.9812 84.165 74.8398 85.8422C74.4284 86.3855 73.9209 86.8489 73.3425 87.2093L73.1689 87.3178C72.2325 87.8286 71.1751 88.076 70.1093 88.0339C68.4319 87.9226 66.8074 87.401 65.3788 86.5149C62.1527 84.4195 59.4669 81.592 57.5401 78.2624C55.6133 74.9329 54.4998 71.1955 54.2904 67.3543C54.1491 65.9988 54.3628 64.6299 54.9107 63.382C55.4585 62.1342 56.3216 61.0503 57.4151 60.2369Z" fill="white"/>
<path d="M65.226 68.5905C62.7522 67.1801 60.7559 68.3301 60.7559 71.1728C60.8403 72.7214 61.2892 74.2281 62.0659 75.5705C62.8427 76.9128 63.9254 78.0529 65.226 78.8978C67.678 80.3082 69.6743 79.1581 69.6743 76.3155C69.5889 74.7696 69.1419 73.2654 68.3693 71.9237C67.5967 70.582 66.5201 69.4404 65.226 68.5905Z" fill="#455A64"/>
</svg>
