<svg id="Group_206280" data-name="Group 206280" xmlns="http://www.w3.org/2000/svg" xmlns:xlink="http://www.w3.org/1999/xlink" width="115.455" height="69.557" viewBox="0 0 115.455 69.557">
  <defs>
    <clipPath id="clip-path">
      <rect id="Rectangle_31051" data-name="Rectangle 31051" width="115.455" height="69.556" fill="none"/>
    </clipPath>
  </defs>
  <path id="Path_130031" data-name="Path 130031" d="M72.928,81.773l-.008,2.644,68.268-39.673L141.2,42.1Z" transform="translate(-25.741 -14.861)" fill="#133fa8"/>
  <path id="Path_130032" data-name="Path 130032" d="M0,63.962,47.18,91.2l.007-2.644L.008,61.318Z" transform="translate(0 -21.645)" fill="#09308e"/>
  <path id="Path_130033" data-name="Path 130033" d="M68.279,0,.012,39.673,47.191,66.912l68.268-39.673Z" transform="translate(-0.004 0.001)" fill="#416bd0"/>
  <path id="Path_130034" data-name="Path 130034" d="M14.2,36.113,55.055,59.7l61.406-35.686L75.605.427Z" transform="translate(-5.012 -0.15)" fill="#fff"/>
  <path id="Path_130035" data-name="Path 130035" d="M138.749,36.886l-.006,2.266L77.336,74.839l.006-2.266Z" transform="translate(-27.3 -13.02)" fill="#1d4fc7"/>
  <path id="Path_130036" data-name="Path 130036" d="M55.051,79.172l-.006,2.266L14.188,57.85l.006-2.266Z" transform="translate(-5.008 -19.621)" fill="#1545b9"/>
  <path id="Path_130037" data-name="Path 130037" d="M98.762,19.89,94.6,22.31,90.4,19.89l4.166-2.421Z" transform="translate(-31.912 -6.166)" fill="#fff"/>
  <path id="Path_130038" data-name="Path 130038" d="M93.58,15.859l6,3.464-5.961,3.465-6-3.465Zm.033,5.883,4.165-2.42L93.586,16.9l-4.165,2.421,4.193,2.42" transform="translate(-30.93 -5.598)" fill="#b1c8ff"/>
  <path id="Path_130039" data-name="Path 130039" d="M82.479,29.353l-4.163,2.419-4.193-2.421,4.163-2.418Z" transform="translate(-26.166 -9.507)" fill="#fff"/>
  <path id="Path_130040" data-name="Path 130040" d="M77.3,25.319l6,3.465-5.961,3.465-6-3.465Zm.033,5.884L81.5,28.784,77.3,26.363l-4.162,2.418L77.333,31.2" transform="translate(-25.183 -8.937)" fill="#b1c8ff"/>
  <path id="Path_130041" data-name="Path 130041" d="M66.2,38.813l-4.165,2.42-4.193-2.42,4.166-2.421Z" transform="translate(-20.417 -12.846)" fill="#fff"/>
  <path id="Path_130042" data-name="Path 130042" d="M132.566,36.771l-.9.521-23.1-13.335.9-.521Z" transform="translate(-38.326 -8.272)" fill="#b1c8ff"/>
  <path id="Path_130043" data-name="Path 130043" d="M61.02,34.78l6,3.464L61.06,41.709l-6-3.464Zm.03,5.885,4.165-2.42-4.193-2.421-4.165,2.421,4.193,2.42" transform="translate(-19.436 -12.277)" fill="#b1c8ff"/>
  <path id="Path_130044" data-name="Path 130044" d="M127.749,38.522l-.9.521L104.661,26.23l.9-.521Z" transform="translate(-36.945 -9.075)" fill="#b1c8ff"/>
  <path id="Path_130045" data-name="Path 130045" d="M44.737,44.242l6,3.465-5.961,3.465-6-3.465Zm.033,5.884,4.165-2.42-4.193-2.421-4.165,2.421,4.193,2.42" transform="translate(-13.688 -15.617)" fill="#b1c8ff"/>
  <path id="Path_130046" data-name="Path 130046" d="M49.919,48.274l-4.165,2.42-4.193-2.42,4.166-2.421Z" transform="translate(-14.671 -16.186)" fill="#fff"/>
  <path id="Path_130047" data-name="Path 130047" d="M111.467,47.983l-.9.523L88.376,35.693l.9-.523Z" transform="translate(-31.197 -12.415)" fill="#b1c8ff"/>
  <path id="Path_130048" data-name="Path 130048" d="M89.658,58.787l-.9.521L68.185,47.428l.9-.521Z" transform="translate(-24.069 -16.558)" fill="#b1c8ff"/>
  <path id="Path_130049" data-name="Path 130049" d="M83.723,65.156l-.9.521-23.1-13.335.9-.521Z" transform="translate(-21.084 -18.292)" fill="#b1c8ff"/>
  <path id="Path_130050" data-name="Path 130050" d="M78.906,66.907l-.9.521L55.817,54.615l.9-.521Z" transform="translate(-19.704 -19.095)" fill="#b1c8ff"/>
  <path id="Path_130051" data-name="Path 130051" d="M73.376,68.247l-.9.523L51.9,56.891l.9-.523Z" transform="translate(-18.321 -19.897)" fill="#b1c8ff"/>
  <path id="Path_130052" data-name="Path 130052" d="M122.219,39.863l-.9.523-20.577-11.88.9-.523Z" transform="translate(-35.562 -9.878)" fill="#b1c8ff"/>
  <path id="Path_130053" data-name="Path 130053" d="M116.285,46.232l-.9.523-23.1-13.335.9-.523Z" transform="translate(-32.578 -11.612)" fill="#b1c8ff"/>
  <path id="Path_130054" data-name="Path 130054" d="M105.94,49.323l-.9.523L84.464,37.967l.9-.523Z" transform="translate(-29.816 -13.217)" fill="#b1c8ff"/>
  <path id="Path_130055" data-name="Path 130055" d="M100.005,55.693l-.9.523L76.009,42.88l.9-.523Z" transform="translate(-26.831 -14.952)" fill="#b1c8ff"/>
  <path id="Path_130056" data-name="Path 130056" d="M95.185,57.446l-.9.521L72.1,45.154l.9-.521Z" transform="translate(-25.45 -15.755)" fill="#b1c8ff"/>
  <g id="Group_206279" data-name="Group 206279" transform="translate(0 0.001)">
    <g id="Group_206278" data-name="Group 206278" clip-path="url(#clip-path)">
      <path id="Path_130057" data-name="Path 130057" d="M141.05,21.421a6.143,6.143,0,0,1-5.571,0L120.9,13.007a1.972,1.972,0,0,1-1.163-1.625l0,.755a1.975,1.975,0,0,0,1.164,1.626l14.576,8.415a6.141,6.141,0,0,0,5.571,0l1.361-.791,0-.756Z" transform="translate(-42.267 -4.018)" fill="#1d4fc7"/>
      <path id="Path_130058" data-name="Path 130058" d="M142.411,19.324l-1.361.791a6.141,6.141,0,0,1-5.571,0L120.9,11.7c-1.545-.892-1.553-2.337-.018-3.229l1.361-.791Z" transform="translate(-42.268 -2.712)" fill="#426bd0"/>
    </g>
  </g>
</svg>
