<svg width="23" height="18" viewBox="0 0 23 18" fill="none" xmlns="http://www.w3.org/2000/svg">
<path d="M1.6338 0.0153709C1.6871 0.0150957 1.7404 0.0148205 1.79531 0.014537C1.85413 0.014631 1.91296 0.0147251 1.97357 0.014822C2.03648 0.0146487 2.09939 0.0144417 2.1623 0.014204C2.33555 0.0136504 2.50881 0.013587 2.68207 0.0136041C2.86878 0.01354 3.05548 0.0130313 3.24219 0.012584C3.6506 0.0116932 4.05901 0.0113855 4.46742 0.0111887C4.72232 0.0110619 4.97721 0.010808 5.23211 0.0105265C5.93753 0.00976443 6.64296 0.00912558 7.34838 0.00901243C7.39354 0.00900513 7.4387 0.00899782 7.48523 0.0089903C7.57679 0.00897603 7.66834 0.00896187 7.7599 0.0089478C7.82807 0.00893712 7.82807 0.00893712 7.89762 0.00892623C7.96588 0.00891568 7.96588 0.00891568 8.03552 0.00890492C8.77318 0.00876693 9.51084 0.00771422 10.2485 0.00625849C11.0054 0.00477666 11.7624 0.00402119 12.5193 0.00400942C12.9444 0.00398662 13.3696 0.003654 13.7948 0.00252956C14.1567 0.00157666 14.5187 0.00128995 14.8806 0.00187711C15.0654 0.00215705 15.2501 0.00211978 15.4349 0.00123798C15.604 0.000438725 15.773 0.000534827 15.9421 0.00134994C16.0323 0.00155139 16.1226 0.000791587 16.2129 0C16.6017 0.00316477 16.6017 0.00316478 16.7923 0.110515C16.8806 0.233254 16.9001 0.298974 16.9006 0.441773C16.9013 0.485953 16.902 0.530132 16.9027 0.57565C16.9023 0.62375 16.9019 0.671849 16.9015 0.721406C16.902 0.772337 16.9025 0.823267 16.903 0.875741C16.9043 1.0151 16.9042 1.15444 16.9038 1.2938C16.9036 1.43955 16.9048 1.5853 16.9058 1.73104C16.9075 2.0069 16.9081 2.28275 16.9082 2.55861C16.9084 2.87273 16.91 3.18684 16.9116 3.50095C16.9149 4.14697 16.9166 4.79299 16.9172 5.43902C16.9718 5.39236 16.9718 5.39236 17.0275 5.34475C17.372 5.05051 17.7169 4.75658 18.0621 4.46295C18.2396 4.31201 18.4169 4.16096 18.5939 4.00966C18.765 3.86344 18.9364 3.71752 19.1081 3.57179C19.1733 3.51635 19.2383 3.46081 19.3033 3.40517C20.3285 2.52697 20.3285 2.52697 21.1192 2.47942C21.6157 2.47815 22.1053 2.62873 22.4739 2.91482C22.8371 3.25487 23.0126 3.66158 22.9993 4.11531C22.9444 4.57158 22.712 4.95081 22.312 5.26059C22.1973 5.33798 22.0815 5.41351 21.9636 5.48731C21.825 5.57438 21.6887 5.66401 21.5522 5.75344C21.5231 5.77244 21.494 5.79145 21.4641 5.81102C20.8403 6.22062 20.244 6.65899 19.6553 7.10398C19.6228 7.12852 19.5902 7.15307 19.5567 7.17836C17.8621 8.46216 16.6792 9.66959 16.5485 11.6511C16.5107 12.2728 16.5245 12.8916 16.5609 13.5131C16.5642 13.5706 16.5642 13.5706 16.5676 13.6292C16.6088 14.3167 16.6641 15.0034 16.7582 15.6873C16.7625 15.7188 16.7667 15.7504 16.7711 15.7829C16.7909 15.9294 16.8119 16.0756 16.8357 16.2217C16.9021 16.6624 16.7973 16.9901 16.4919 17.3516C16.1796 17.6735 15.8167 17.8491 15.3542 17.9797C15.276 17.9834 15.1977 17.9848 15.1195 17.9849C15.0706 17.9851 15.0218 17.9853 14.9715 17.9855C14.9176 17.9855 14.8638 17.9854 14.8083 17.9854C14.7512 17.9856 14.6942 17.9857 14.6354 17.9859C14.4767 17.9862 14.318 17.9864 14.1594 17.9865C13.9884 17.9867 13.8174 17.987 13.6463 17.9874C13.2333 17.9881 12.8202 17.9885 12.4072 17.9889C12.2128 17.9891 12.0184 17.9893 11.824 17.9895C11.178 17.9901 10.532 17.9907 9.88601 17.991C9.71837 17.9911 9.55072 17.9911 9.38308 17.9912C9.32058 17.9912 9.32058 17.9912 9.25681 17.9913C8.58125 17.9916 7.90569 17.9926 7.23013 17.9938C6.53694 17.9951 5.84375 17.9958 5.15056 17.996C4.76119 17.996 4.37183 17.9964 3.98247 17.9974C3.651 17.9982 3.31955 17.9985 2.98808 17.9982C2.81888 17.998 2.6497 17.9981 2.48051 17.9988C2.29728 17.9996 2.11408 17.9992 1.93085 17.9987C1.8771 17.9991 1.82336 17.9996 1.76798 18C1.71902 17.9997 1.67006 17.9993 1.61961 17.999C1.5773 17.999 1.535 17.9991 1.49141 17.9991C1.34417 17.9737 1.28975 17.9205 1.19524 17.8239C1.1223 17.7004 1.14371 17.5673 1.14478 17.4317C1.14484 17.4007 1.14491 17.3697 1.14497 17.3378C1.14523 17.2385 1.14581 17.1393 1.14639 17.0401C1.14662 16.9729 1.14683 16.9057 1.14702 16.8386C1.14749 16.6737 1.14839 16.5088 1.14926 16.344C0.770007 16.344 0.39075 16.344 0 16.344C0 16.1126 0 15.8813 0 15.6429C0.379257 15.6429 0.758515 15.6429 1.14926 15.6429C1.14926 15.2188 1.14926 14.7947 1.14926 14.3577C0.770007 14.3577 0.39075 14.3577 0 14.3577C0 14.1264 0 13.895 0 13.6567C0.379257 13.6567 0.758515 13.6567 1.14926 13.6567C1.14926 13.2197 1.14926 12.7827 1.14926 12.3325C0.770007 12.3325 0.39075 12.3325 0 12.3325C0 12.1012 0 11.8698 0 11.6315C0.379257 11.6315 0.758515 11.6315 1.14926 11.6315C1.14926 11.2074 1.14926 10.7832 1.14926 10.3462C0.770007 10.3462 0.39075 10.3462 0 10.3462C0 10.1149 0 9.88357 0 9.64522C0.379257 9.64522 0.758515 9.64522 1.14926 9.64522C1.14926 9.22109 1.14926 8.79697 1.14926 8.35999C0.770007 8.35999 0.39075 8.35999 0 8.35999C0 8.12865 0 7.89731 0 7.65896C0.379257 7.65896 0.758515 7.65896 1.14926 7.65896C1.14926 7.23484 1.14926 6.81071 1.14926 6.37373C0.770007 6.37373 0.39075 6.37373 0 6.37373C0 6.14239 0 5.91105 0 5.6727C0.379257 5.6727 0.758515 5.6727 1.14926 5.6727C1.14926 5.24858 1.14926 4.82445 1.14926 4.38748C0.770007 4.38748 0.39075 4.38748 0 4.38748C0 4.15614 0 3.9248 0 3.68644C0.379257 3.68644 0.758515 3.68644 1.14926 3.68644C1.14926 3.24947 1.14926 2.81249 1.14926 2.36227C0.770007 2.36227 0.39075 2.36227 0 2.36227C0 2.13093 0 1.89959 0 1.66124C0.379257 1.66124 0.758515 1.66124 1.14926 1.66124C1.1482 1.56184 1.14713 1.46243 1.14603 1.36002C1.14531 1.2636 1.14476 1.16719 1.14421 1.07077C1.14375 1.00383 1.14312 0.936893 1.14233 0.869956C1.14121 0.773666 1.14069 0.677385 1.14029 0.581092C1.13957 0.536295 1.13957 0.536295 1.13885 0.490593C1.13878 0.222142 1.13878 0.222142 1.24121 0.103392C1.3973 0.0152297 1.45076 0.015672 1.6338 0.0153709Z" fill="#8071BE"/>
<path d="M1.6338 0.0153709C1.6871 0.0150957 1.7404 0.0148205 1.79531 0.014537C1.85413 0.014631 1.91296 0.0147251 1.97357 0.014822C2.03648 0.0146487 2.09939 0.0144417 2.1623 0.014204C2.33555 0.0136504 2.50881 0.013587 2.68207 0.0136041C2.86878 0.01354 3.05548 0.0130313 3.24219 0.012584C3.6506 0.0116932 4.05901 0.0113855 4.46742 0.0111887C4.72232 0.0110619 4.97721 0.010808 5.23211 0.0105265C5.93753 0.00976443 6.64296 0.00912558 7.34838 0.00901243C7.39354 0.00900513 7.4387 0.00899782 7.48523 0.0089903C7.57679 0.00897603 7.66834 0.00896187 7.7599 0.0089478C7.82807 0.00893712 7.82807 0.00893712 7.89762 0.00892623C7.96588 0.00891568 7.96588 0.00891568 8.03552 0.00890492C8.77318 0.00876693 9.51084 0.00771422 10.2485 0.00625849C11.0054 0.00477666 11.7624 0.00402119 12.5193 0.00400942C12.9444 0.00398662 13.3696 0.003654 13.7948 0.00252955C14.1567 0.00157666 14.5187 0.00128995 14.8806 0.00187711C15.0654 0.00215705 15.2501 0.00211978 15.4349 0.00123798C15.604 0.000438725 15.773 0.000534827 15.9421 0.00134994C16.0323 0.00155139 16.1226 0.000791587 16.2129 0C16.6017 0.00316477 16.6017 0.00316478 16.7923 0.110515C16.8806 0.233254 16.9001 0.298974 16.9006 0.441773C16.9013 0.485953 16.902 0.530132 16.9027 0.57565C16.9023 0.62375 16.9019 0.671849 16.9015 0.721406C16.902 0.772337 16.9025 0.823267 16.903 0.875741C16.9043 1.0151 16.9042 1.15444 16.9038 1.2938C16.9036 1.43955 16.9048 1.5853 16.9058 1.73104C16.9075 2.0069 16.9081 2.28275 16.9082 2.55862C16.9084 2.87273 16.91 3.18684 16.9116 3.50095C16.9149 4.14697 16.9166 4.79299 16.9172 5.43902C16.9718 5.39236 16.9718 5.39236 17.0275 5.34475C17.372 5.05051 17.7169 4.75658 18.0621 4.46295C18.2396 4.31201 18.4169 4.16096 18.5939 4.00966C18.765 3.86344 18.9364 3.71752 19.1081 3.57179C19.1733 3.51635 19.2383 3.46081 19.3033 3.40517C20.3285 2.52697 20.3285 2.52697 21.1192 2.47942C21.6157 2.47815 22.1053 2.62873 22.4739 2.91482C22.8371 3.25487 23.0126 3.66158 22.9993 4.11531C22.9444 4.57158 22.712 4.95081 22.312 5.26059C22.1973 5.33798 22.0815 5.41351 21.9636 5.48731C21.825 5.57438 21.6887 5.66401 21.5522 5.75344C21.5231 5.77244 21.494 5.79145 21.4641 5.81102C20.8403 6.22062 20.244 6.65899 19.6553 7.10398C19.6228 7.12852 19.5902 7.15307 19.5567 7.17836C17.8621 8.46216 16.6792 9.66959 16.5485 11.6511C16.5107 12.2728 16.5245 12.8916 16.5609 13.5131C16.5642 13.5706 16.5642 13.5706 16.5677 13.6292C16.6088 14.3167 16.6641 15.0034 16.7582 15.6873C16.7625 15.7188 16.7667 15.7504 16.7711 15.7829C16.7909 15.9294 16.8119 16.0756 16.8357 16.2217C16.9021 16.6624 16.7973 16.9901 16.4919 17.3516C16.1796 17.6735 15.8167 17.8491 15.3542 17.9797C15.276 17.9834 15.1977 17.9848 15.1195 17.9849C15.0706 17.9851 15.0218 17.9853 14.9715 17.9855C14.9176 17.9855 14.8638 17.9854 14.8083 17.9854C14.7512 17.9856 14.6942 17.9857 14.6354 17.9859C14.4767 17.9862 14.318 17.9864 14.1594 17.9865C13.9884 17.9867 13.8174 17.987 13.6463 17.9874C13.2333 17.9881 12.8202 17.9885 12.4072 17.9889C12.2128 17.9891 12.0184 17.9893 11.824 17.9895C11.178 17.9901 10.532 17.9907 9.88601 17.991C9.71837 17.9911 9.55072 17.9911 9.38308 17.9912C9.32058 17.9912 9.32058 17.9912 9.25681 17.9913C8.58125 17.9916 7.90569 17.9926 7.23013 17.9938C6.53694 17.9951 5.84375 17.9958 5.15056 17.996C4.76119 17.996 4.37183 17.9964 3.98247 17.9974C3.651 17.9982 3.31955 17.9985 2.98808 17.9982C2.81888 17.998 2.6497 17.9981 2.48051 17.9988C2.29728 17.9996 2.11408 17.9992 1.93085 17.9987C1.8771 17.9991 1.82336 17.9996 1.76798 18C1.71902 17.9997 1.67006 17.9993 1.61961 17.999C1.5773 17.999 1.535 17.9991 1.4914 17.9991C1.34417 17.9737 1.28975 17.9205 1.19524 17.8239C1.1223 17.7004 1.14371 17.5673 1.14478 17.4317C1.14484 17.4007 1.14491 17.3697 1.14497 17.3378C1.14523 17.2385 1.14581 17.1393 1.14639 17.0401C1.14662 16.9729 1.14683 16.9057 1.14702 16.8386C1.14749 16.6737 1.14839 16.5088 1.14926 16.344C0.770007 16.344 0.39075 16.344 0 16.344C0 16.1126 0 15.8813 0 15.6429C0.379257 15.6429 0.758515 15.6429 1.14926 15.6429C1.14926 15.2188 1.14926 14.7947 1.14926 14.3577C0.770007 14.3577 0.39075 14.3577 0 14.3577C0 14.1264 0 13.895 0 13.6567C0.379257 13.6567 0.758515 13.6567 1.14926 13.6567C1.14926 13.2197 1.14926 12.7827 1.14926 12.3325C0.770007 12.3325 0.39075 12.3325 0 12.3325C0 12.1012 0 11.8698 0 11.6315C0.379257 11.6315 0.758515 11.6315 1.14926 11.6315C1.14926 11.2074 1.14926 10.7832 1.14926 10.3462C0.770007 10.3462 0.39075 10.3462 0 10.3462C0 10.1149 0 9.88357 0 9.64522C0.379257 9.64522 0.758515 9.64522 1.14926 9.64522C1.14926 9.22109 1.14926 8.79697 1.14926 8.35999C0.770007 8.35999 0.39075 8.35999 0 8.35999C0 8.12865 0 7.89731 0 7.65896C0.379257 7.65896 0.758515 7.65896 1.14926 7.65896C1.14926 7.23484 1.14926 6.81071 1.14926 6.37373C0.770007 6.37373 0.39075 6.37373 0 6.37373C0 6.14239 0 5.91105 0 5.6727C0.379257 5.6727 0.758515 5.6727 1.14926 5.6727C1.14926 5.24858 1.14926 4.82445 1.14926 4.38748C0.770007 4.38748 0.39075 4.38748 0 4.38748C0 4.15614 0 3.9248 0 3.68644C0.379257 3.68644 0.758515 3.68644 1.14926 3.68644C1.14926 3.24947 1.14926 2.81249 1.14926 2.36227C0.770007 2.36227 0.39075 2.36227 0 2.36227C0 2.13093 0 1.89959 0 1.66124C0.379257 1.66124 0.758515 1.66124 1.14926 1.66124C1.1482 1.56184 1.14713 1.46243 1.14603 1.36002C1.14531 1.2636 1.14476 1.16719 1.14421 1.07077C1.14375 1.00383 1.14312 0.936893 1.14233 0.869956C1.14121 0.773666 1.14069 0.677385 1.14029 0.581092C1.13957 0.536295 1.13957 0.536295 1.13885 0.490593C1.13878 0.222142 1.13878 0.222142 1.24121 0.103392C1.3973 0.0152297 1.45076 0.015672 1.6338 0.0153709ZM1.97673 0.687585C1.97673 1.02174 1.97673 1.3559 1.97673 1.70019C2.23463 1.70019 2.49252 1.70019 2.75823 1.70019C2.75823 1.91868 2.75823 2.13716 2.75823 2.36227C2.50034 2.36227 2.24244 2.36227 1.97673 2.36227C1.97673 2.79925 1.97673 3.23623 1.97673 3.68644C2.23463 3.68644 2.49252 3.68644 2.75823 3.68644C2.75823 3.90493 2.75823 4.12342 2.75823 4.34853C2.50034 4.34853 2.24244 4.34853 1.97673 4.34853C1.97673 4.78551 1.97673 5.22248 1.97673 5.6727C2.23463 5.6727 2.49252 5.6727 2.75823 5.6727C2.75823 5.89119 2.75823 6.10968 2.75823 6.33479C2.50034 6.33479 2.24244 6.33479 1.97673 6.33479C1.97673 6.77177 1.97673 7.20874 1.97673 7.65896C2.23463 7.65896 2.49252 7.65896 2.75823 7.65896C2.75823 7.8903 2.75823 8.12164 2.75823 8.35999C2.50034 8.35999 2.24244 8.35999 1.97673 8.35999C1.97673 8.79697 1.97673 9.23394 1.97673 9.68416C2.23463 9.68416 2.49252 9.68416 2.75823 9.68416C2.75823 9.90265 2.75823 10.1211 2.75823 10.3462C2.50034 10.3462 2.24244 10.3462 1.97673 10.3462C1.97673 10.7832 1.97673 11.2202 1.97673 11.6704C2.23463 11.6704 2.49252 11.6704 2.75823 11.6704C2.75823 11.8889 2.75823 12.1074 2.75823 12.3325C2.50034 12.3325 2.24244 12.3325 1.97673 12.3325C1.97673 12.7695 1.97673 13.2065 1.97673 13.6567C2.23463 13.6567 2.49252 13.6567 2.75823 13.6567C2.75823 13.8752 2.75823 14.0937 2.75823 14.3188C2.50034 14.3188 2.24244 14.3188 1.97673 14.3188C1.97673 14.7557 1.97673 15.1927 1.97673 15.6429C2.23463 15.6429 2.49252 15.6429 2.75823 15.6429C2.75823 15.8614 2.75823 16.0799 2.75823 16.305C2.50034 16.305 2.24244 16.305 1.97673 16.305C1.97673 16.6392 1.97673 16.9733 1.97673 17.3176C3.63212 17.3203 5.28751 17.3224 6.9429 17.3236C7.13842 17.3237 7.33393 17.3239 7.52945 17.324C7.56838 17.3241 7.6073 17.3241 7.64741 17.3241C8.27731 17.3246 8.90721 17.3256 9.53711 17.3266C10.1836 17.3277 10.8302 17.3284 11.4767 17.3286C11.8755 17.3288 12.2744 17.3293 12.6732 17.3302C12.9468 17.3309 13.2204 17.331 13.4941 17.3309C13.6519 17.3308 13.8096 17.3309 13.9674 17.3316C14.1388 17.3321 14.3101 17.332 14.4815 17.3317C14.5309 17.332 14.5804 17.3324 14.6313 17.3327C15.0761 17.3305 15.454 17.2703 15.7821 17.0047C16.0332 16.7576 16.0955 16.4935 16.0952 16.1737C16.0953 16.1236 16.0954 16.0735 16.0954 16.022C16.0953 15.9667 16.0951 15.9115 16.0949 15.8563C16.0949 15.798 16.0949 15.7396 16.0949 15.6813C16.095 15.5231 16.0947 15.3649 16.0944 15.2067C16.0941 15.0413 16.094 14.8759 16.094 14.7105C16.0939 14.3974 16.0935 14.0843 16.093 13.7712C16.0925 13.4148 16.0922 13.0583 16.092 12.7018C16.0915 11.9685 16.0907 11.2353 16.0897 10.502C15.8422 10.6788 15.8422 10.6788 15.6084 10.8683C15.5816 10.8914 15.5547 10.9145 15.5271 10.9383C15.4993 10.9624 15.4715 10.9865 15.4429 11.0114C15.3821 11.0635 15.3214 11.1157 15.2606 11.1678C15.1661 11.249 15.0718 11.3303 14.9777 11.4119C14.886 11.4912 14.7938 11.5702 14.7016 11.6491C14.6596 11.6858 14.6596 11.6858 14.6168 11.7231C14.3666 11.9364 14.1853 11.9905 13.8316 11.9938C13.7894 11.9938 13.7472 11.9937 13.7037 11.9937C13.6378 11.994 13.6378 11.994 13.5706 11.9942C13.4779 11.9944 13.3853 11.9945 13.2926 11.9943C13.1511 11.9942 13.0097 11.9951 12.8683 11.9961C12.778 11.9962 12.6878 11.9962 12.5976 11.9961C12.5555 11.9965 12.5134 11.9969 12.47 11.9972C12.2329 11.9958 12.0647 11.979 11.8604 11.8652C11.8056 11.7723 11.8069 11.7119 11.8041 11.6082C11.8031 11.571 11.802 11.5338 11.801 11.4955C11.7977 11.3247 11.7951 11.1539 11.7933 10.9832C11.7921 10.8933 11.7902 10.8033 11.7876 10.7135C11.784 10.5836 11.7825 10.4539 11.7814 10.324C11.7791 10.2642 11.7791 10.2642 11.7768 10.2032C11.7769 10.1652 11.777 10.1273 11.7772 10.0882C11.7766 10.0552 11.776 10.0223 11.7754 9.98829C11.8843 9.68297 12.2441 9.48897 12.5357 9.31225C14.0343 8.36625 14.8274 7.50881 16.0897 6.21795C16.0897 4.39293 16.0897 2.56791 16.0897 0.687585C11.4324 0.687585 6.77514 0.687585 1.97673 0.687585Z" fill="#8071BE"/>
<path d="M18.8165 4.85972C18.9063 4.89782 18.9652 4.93765 19.0358 4.99827C19.0615 5.0201 19.0873 5.04193 19.1138 5.06442C19.141 5.08808 19.1682 5.11173 19.1963 5.1361C19.2246 5.16025 19.2529 5.1844 19.282 5.20928C19.3723 5.28639 19.462 5.3639 19.5518 5.44143C19.6129 5.49382 19.6741 5.54618 19.7353 5.59851C19.8852 5.72678 20.0347 5.85542 20.1839 5.98424C19.9214 6.25249 19.6358 6.50167 19.3508 6.75259C19.3232 6.77695 19.2955 6.80131 19.2671 6.82641C18.7221 7.30703 18.1727 7.78398 17.6217 8.25966C17.2716 8.56204 16.9229 8.86546 16.5776 9.1717C16.2753 9.43972 15.9705 9.70549 15.6626 9.96885C15.5001 10.108 15.339 10.2479 15.1809 10.3906C14.1059 11.3583 14.1059 11.3583 13.4245 11.3923C13.115 11.3975 12.8108 11.3689 12.5068 11.3199C12.4028 10.8801 12.3184 10.3541 12.6114 9.95394C12.9316 9.57021 13.3527 9.24858 13.7539 8.92715C13.9298 8.78506 14.1017 8.63953 14.274 8.4944C14.5631 8.25188 14.8547 8.01166 15.1482 7.77297C15.5626 7.436 15.9721 7.095 16.3808 6.75314C16.6987 6.48753 17.0179 6.22302 17.3373 5.95869C17.3715 5.93034 17.4058 5.90199 17.441 5.87279C17.6372 5.71044 17.8339 5.54867 18.0317 5.38774C18.0916 5.33891 18.1513 5.28991 18.2107 5.24073C18.2917 5.17388 18.3733 5.10767 18.4551 5.0416C18.4787 5.02185 18.5023 5.0021 18.5267 4.98176C18.6877 4.85361 18.6877 4.85361 18.8165 4.85972Z" fill="white"/>
<path d="M3.91016 3.6864C7.53586 3.6864 11.1616 3.6864 14.8971 3.6864C14.8971 3.90489 14.8971 4.12338 14.8971 4.34849C11.2714 4.34849 7.64573 4.34849 3.91016 4.34849C3.91016 4.13 3.91016 3.91151 3.91016 3.6864Z" fill="white"/>
<path d="M3.91016 2.36224C7.53586 2.36224 11.1616 2.36224 14.8971 2.36224C14.8971 2.58073 14.8971 2.79922 14.8971 3.02433C11.2714 3.02433 7.64573 3.02433 3.91016 3.02433C3.91016 2.80584 3.91016 2.58735 3.91016 2.36224Z" fill="white"/>
<path d="M3.91016 5.01062C7.27796 5.01062 10.6458 5.01062 14.1156 5.01062C14.1156 5.22911 14.1156 5.4476 14.1156 5.67271C10.7478 5.67271 7.38002 5.67271 3.91016 5.67271C3.91016 5.45422 3.91016 5.23573 3.91016 5.01062Z" fill="white"/>
<path d="M3.91016 6.33478C7.02007 6.33478 10.13 6.33478 13.3341 6.33478C13.3341 6.56612 13.3341 6.79746 13.3341 7.03581C10.2242 7.03581 7.11431 7.03581 3.91016 7.03581C3.91016 6.80447 3.91016 6.57313 3.91016 6.33478Z" fill="white"/>
<path d="M3.91016 7.659C6.76217 7.659 9.61418 7.659 12.5526 7.659C12.5526 7.89034 12.5526 8.12168 12.5526 8.36003C9.70061 8.36003 6.84859 8.36003 3.91016 8.36003C3.91016 8.12869 3.91016 7.89735 3.91016 7.659Z" fill="white"/>
<path d="M3.91016 8.98309C6.24638 8.98309 8.5826 8.98309 10.9896 8.98309C10.9896 9.21443 10.9896 9.44577 10.9896 9.68413C8.6534 9.68413 6.31718 9.68413 3.91016 9.68413C3.91016 9.45278 3.91016 9.22144 3.91016 8.98309Z" fill="white"/>
<path d="M3.91016 11.6704C6.24638 11.6704 8.5826 11.6704 10.9896 11.6704C10.9896 11.8889 10.9896 12.1074 10.9896 12.3325C8.6534 12.3325 6.31718 12.3325 3.91016 12.3325C3.91016 12.114 3.91016 11.8955 3.91016 11.6704Z" fill="white"/>
<path d="M3.91016 10.3463C6.24638 10.3463 8.5826 10.3463 10.9896 10.3463C10.9896 10.5647 10.9896 10.7832 10.9896 11.0083C8.6534 11.0083 6.31718 11.0083 3.91016 11.0083C3.91016 10.7898 3.91016 10.5714 3.91016 10.3463Z" fill="white"/>
<path d="M21.6465 3.28388C21.8797 3.41088 22.0233 3.58184 22.1098 3.80327C22.1252 3.90504 22.1252 3.90504 22.127 4.01017C22.1283 4.04456 22.1296 4.07895 22.131 4.11438C22.0805 4.39369 21.891 4.59582 21.6566 4.78666C21.6313 4.80783 21.6061 4.829 21.58 4.85081C21.5004 4.91744 21.4201 4.98349 21.3398 5.04955C21.2852 5.095 21.2307 5.14048 21.1762 5.18601C21.0435 5.29673 20.9102 5.40695 20.7767 5.5169C20.5794 5.45255 20.4483 5.32643 20.3033 5.20137C20.276 5.17814 20.2487 5.15491 20.2206 5.13098C20.1337 5.05696 20.0472 4.98267 19.9607 4.90837C19.9017 4.85804 19.8428 4.80774 19.7838 4.75745C19.6395 4.63432 19.4954 4.51096 19.3516 4.38746C19.4554 4.1793 19.6566 4.03812 19.8427 3.88119C19.9082 3.82582 19.9731 3.76996 20.0379 3.71404C20.5074 3.31598 20.9841 3.00723 21.6465 3.28388Z" fill="white"/>
</svg>
