<svg width="120" height="120" viewBox="0 0 120 120" fill="none" xmlns="http://www.w3.org/2000/svg">
<path d="M58.5938 0.0874023C52.6641 0.834389 48.3516 5.89463 48.375 12.1115C48.375 16.7862 50.625 20.6175 54.6562 22.8585L56.0156 23.6055L56.0859 26.4007L56.1562 29.1958L40.6172 29.2681L25.0781 29.3404L23.1562 30.0151C20.8594 30.8103 18.1172 32.6416 16.7109 34.2802C14.1797 37.244 13.0078 40.2802 12.8203 44.3284L12.7031 47.0031L9.16406 47.0995C6.16406 47.1717 5.46094 47.244 4.52344 47.7019C2.97656 48.4248 1.40625 50.0151 0.65625 51.6055L0 52.9549V64.1597V75.3645L0.65625 76.7139C1.5 78.497 3.1875 80.0874 4.875 80.7621C6.02344 81.1958 6.72656 81.2681 9.49219 81.2681H12.7734V83.1235C12.7969 89.1717 15.9609 94.5934 20.9766 97.1476C22.9688 98.1356 25.4766 98.8585 27.1406 98.8585C27.6094 98.8585 28.0078 98.9308 28.0078 99.0513C28.0078 99.1476 27.75 103.027 27.4219 107.654C27.0938 112.304 26.8359 116.545 26.8359 117.099C26.8359 118.834 28.3594 120.015 30 119.533C30.4219 119.413 35.4609 115.124 42.2812 109.099L53.8594 98.8585H73.8281C92.9297 98.8585 93.8672 98.8344 95.6016 98.3766C98.3438 97.6537 100.5 96.3766 102.562 94.2802C105.469 91.2922 106.969 87.5091 106.992 83.1235V81.2681H110.273C113.039 81.2681 113.742 81.1958 114.891 80.7621C116.578 80.0874 118.266 78.497 119.109 76.7139L119.766 75.3645V64.1597V52.9549L119.109 51.6055C118.359 50.0151 116.789 48.4248 115.242 47.7019C114.305 47.244 113.602 47.1717 110.602 47.0995L107.062 47.0031L106.945 44.3284C106.758 40.0151 105.445 36.8826 102.633 33.9187C100.992 32.1838 98.6484 30.6898 96.3281 29.8946C94.6875 29.3404 94.6641 29.3404 79.4062 29.2681L64.1016 29.1958V26.3766V23.5573L65.5312 22.8585C68.3672 21.4609 70.8516 18.1597 71.6016 14.7862C72.0469 12.7862 71.7891 9.4368 71.0391 7.50909C69.0469 2.47295 63.9375 -0.563202 58.5938 0.0874023ZM95.0859 34.979C96.8203 35.6055 97.9922 36.3766 99.3281 37.8705C100.688 39.3645 101.484 41.0754 101.812 43.1958C102.141 45.2922 102.164 82.738 101.836 84.8826C101.344 87.991 99.3281 90.9549 96.7031 92.4489C94.3125 93.7742 94.125 93.7982 72.1406 93.7982H51.9609L51.1641 94.4489C50.7422 94.8103 46.2891 98.738 41.2734 103.172L32.1562 111.22L32.2969 109.678C32.3672 108.834 32.625 105.413 32.8359 102.063C33.375 93.7982 33.4453 93.9428 28.7109 93.7501C26.5312 93.6537 25.4531 93.485 24.4922 93.0995C21.6562 91.991 19.5234 89.7982 18.3516 86.8344L17.8125 85.485L17.7422 65.1236C17.6953 52.7139 17.7656 44.1838 17.9062 43.244C18.2344 41.1476 19.1016 39.3404 20.5312 37.7742C21.9375 36.232 22.8047 35.6296 24.5391 35.0031C25.7344 34.5452 26.9766 34.5452 59.7891 34.5211C92.5781 34.5211 93.8438 34.5452 95.0859 34.979Z" fill="#35008B"/>
<path d="M36.2107 47.9186C33.5154 48.9307 31.1717 51.3885 30.4451 53.9909C29.0389 58.9307 31.4998 63.9668 36.1404 65.6536C38.1092 66.3524 40.9685 66.2078 42.9373 65.268C44.7185 64.4247 46.5232 62.5451 47.4139 60.6174C47.9764 59.3885 48.0467 58.9307 48.0467 56.8102C48.0467 54.6897 47.9764 54.2319 47.4139 53.0271C46.5467 51.0993 44.906 49.3644 43.0545 48.4487C41.742 47.774 41.2498 47.6536 39.3982 47.6054C37.8748 47.5572 36.9607 47.6295 36.2107 47.9186Z" fill="#35008B"/>
<path d="M78 47.8704C75.5625 48.6897 73.4297 50.6174 72.3516 53.027C71.7891 54.2319 71.7188 54.7138 71.7188 56.8102C71.7188 59.0511 71.7656 59.3403 72.4688 60.8102C73.3828 62.7379 75.0703 64.4246 76.9453 65.3162C78.1172 65.8945 78.5625 65.9668 80.7422 65.9668C82.9922 65.9668 83.3203 65.8945 84.6094 65.268C90.2812 62.4005 91.5234 54.6415 87.0234 50.1355C85.2891 48.4005 83.6484 47.7017 81.0938 47.6054C79.7578 47.5572 78.6328 47.6535 78 47.8704Z" fill="#35008B"/>
<path d="M46.0562 74.9306C44.7905 75.4366 44.1577 76.9306 44.7437 78.0631C45.4468 79.5089 50.4624 82.4245 54.1421 83.5812C56.0171 84.1595 56.6499 84.2318 59.6499 84.2559C63.728 84.2559 65.7202 83.798 69.3999 82.0149C71.7905 80.8342 74.5327 79.0992 75.0483 78.4004C75.3999 77.9185 75.4468 76.5691 75.1187 75.9426C74.7671 75.292 73.6655 74.7619 72.6577 74.7619C72.0015 74.7619 71.228 75.1233 69.564 76.2077C62.5562 80.7137 56.5093 80.6655 50.0405 76.0149C48.5405 74.9306 47.0171 74.5209 46.0562 74.9306Z" fill="#35008B"/>
</svg>
