<?xml version="1.0" encoding="utf-8"?>
<!-- Generator: Adobe Illustrator 27.8.0, SVG Export Plug-In . SVG Version: 6.00 Build 0)  -->
<svg version="1.1" id="Group_120562" xmlns="http://www.w3.org/2000/svg" xmlns:xlink="http://www.w3.org/1999/xlink" x="0px"
	 y="0px" viewBox="0 0 389.9 54.7" style="enable-background:new 0 0 389.9 54.7;" xml:space="preserve">
<style type="text/css">
	.st0{fill:none;stroke:#3C3C3B;stroke-width:0.5;stroke-miterlimit:10;}
	.st1{fill:#35008B;}
</style>
<g id="Group_119673">
	<line id="Line_255" class="st0" x1="205.5" y1="15" x2="205.5" y2="34"/>
	<rect id="Rectangle_14416" x="224.4" y="18.4" width="1.4" height="11.8"/>
	<path id="Path_28631" d="M239.3,31.2c0,1.8-2,2.9-4.4,2.9c-2.8,0-4.1-1-4.1-2.4c0-0.9,0.7-1.6,1.6-1.7c-0.7-0.3-1.2-0.9-1.2-1.6
		c0-0.8,0.5-1.6,1.3-1.8c-0.8-0.5-1.3-1.5-1.3-2.5c0-1.8,1.5-3,3.7-3c0.6,0,1.2,0.1,1.8,0.4c0.3-1.2,1.3-2,2.5-1.8l0.3,1.3
		c-1.2,0-1.9,0.3-2.1,1c0.7,0.5,1.1,1.4,1.1,2.3c0,1.8-1.5,3-3.7,3c-0.5,0-0.9,0-1.4-0.2c-0.7,0.2-1,0.5-1,1.1c0,0.6,0.5,1,1.2,1h3
		C238.3,29.1,239.3,30,239.3,31.2 M237.9,31.4c0-0.6-0.4-1.1-1.8-1.1h-2.4c-1.1,0-1.7,0.4-1.7,1.1c0,0.9,1,1.4,3,1.4
		C236.9,32.9,237.9,32.2,237.9,31.4 M232.6,24.2c-0.2,1.2,0.6,2.3,1.8,2.5c1.2,0.2,2.3-0.6,2.5-1.8c0.2-1.2-0.6-2.3-1.8-2.5
		c-0.1,0-0.2,0-0.4,0c-1.1-0.1-2.1,0.7-2.2,1.7C232.6,24.1,232.6,24.1,232.6,24.2"/>
	<path id="Path_28632" d="M249.2,24.5v5.7h-1.4V25c0-2-1-2.6-2.2-2.6c-1.3,0-2.8,0.8-2.8,3.1v4.8h-1.4v-8.9h1.3l0.1,1.4
		c0.6-1.1,1.8-1.7,3-1.6c1.8-0.2,3.3,1.1,3.5,2.9C249.2,24.2,249.2,24.4,249.2,24.5"/>
	<path id="Path_28633" d="M252.1,18.5c0-0.6,0.5-1.1,1.1-1.1c0.6,0,1.1,0.5,1.1,1.1s-0.5,1.1-1.1,1.1l0,0c-0.6,0-1-0.4-1.1-1
		C252.1,18.6,252.1,18.6,252.1,18.5 M253.9,30.3h-1.4v-8.9h1.4V30.3z"/>
	<path id="Path_28634" d="M262.7,29.6c-0.6,0.6-1.5,0.8-2.3,0.8c-1.2,0.1-2.3-0.8-2.5-2c0-0.1,0-0.3,0-0.4v-5.5h-1.8v-1.2h1.8v-2.1
		l1.4-0.4v2.5h3.3v1.2h-3.3v5.2c-0.1,0.7,0.4,1.3,1.1,1.3c0.1,0,0.2,0,0.2,0c0.6,0,1.1-0.2,1.5-0.7L262.7,29.6z"/>
	<path id="Path_28635" d="M264.4,18.5c0-0.6,0.5-1.1,1.1-1.1c0.6,0,1.1,0.5,1.1,1.1s-0.5,1.1-1.1,1.1l0,0c-0.6,0-1-0.4-1.1-1
		C264.4,18.6,264.4,18.6,264.4,18.5 M266.2,30.3h-1.4v-8.9h1.4V30.3z"/>
	<path id="Path_28636" d="M277.3,24.5v5.7h-1.4V25c0-2-1-2.6-2.2-2.6c-1.3,0-2.8,0.8-2.8,3.1v4.8h-1.4v-8.9h1.3l0.1,1.4
		c0.6-1.1,1.8-1.7,3-1.6c1.8-0.2,3.3,1.1,3.5,2.9C277.4,24.2,277.4,24.4,277.3,24.5"/>
	<path id="Path_28637" d="M288.3,31.2c0,1.8-2,2.9-4.4,2.9c-2.8,0-4.1-1-4.1-2.4c0.1-0.9,0.7-1.6,1.6-1.7c-0.7-0.3-1.2-0.9-1.2-1.6
		c0-0.8,0.5-1.6,1.3-1.8c-0.8-0.5-1.3-1.5-1.3-2.5c0-1.8,1.5-3,3.7-3c0.6,0,1.2,0.1,1.8,0.4c0.3-1.2,1.3-2,2.5-1.8l0.3,1.3
		c-1.2,0-1.9,0.3-2.1,1c0.7,0.5,1.1,1.4,1.1,2.3c0,1.8-1.5,3-3.7,3c-0.5,0-0.9,0-1.4-0.2c-0.7,0.2-1,0.5-1,1.1c0,0.6,0.5,1,1.2,1h3
		C287.3,29.1,288.3,30,288.3,31.2 M287,31.4c0-0.6-0.4-1.1-1.8-1.1h-2.4c-1.1,0-1.7,0.4-1.7,1.1c0,0.9,1,1.4,3,1.4
		C285.9,32.9,287,32.2,287,31.4 M281.6,24.2c-0.2,1.2,0.6,2.3,1.8,2.5c1.2,0.2,2.3-0.6,2.5-1.8c0.2-1.2-0.6-2.3-1.8-2.5
		c-0.1,0-0.2,0-0.4,0c-1.1-0.1-2.1,0.7-2.2,1.7C281.6,24.1,281.6,24.1,281.6,24.2"/>
	<path id="Path_28638" d="M300.3,24.3l-2.1,2.1v3.8h-1.4V18.4h1.4v6.1l5.9-6.1h1.9l-4.7,4.8l4.8,7h-1.7L300.3,24.3z"/>
	<path id="Path_28639" d="M316.1,24.5v5.7h-1.4V25c0-2-1-2.6-2.2-2.6c-1.3,0-2.8,0.8-2.8,3.1v4.8h-1.4v-8.9h1.3l0.1,1.4
		c0.6-1.1,1.8-1.7,3-1.6c1.8-0.2,3.3,1.1,3.5,2.9C316.1,24.2,316.1,24.4,316.1,24.5"/>
	<path id="Path_28640" d="M327.4,25.8c0,2.9-1.6,4.7-4.3,4.7s-4.3-1.8-4.3-4.7s1.6-4.7,4.3-4.7S327.4,22.9,327.4,25.8 M320.2,25.8
		c0,2.1,1.1,3.4,2.9,3.4s2.9-1.3,2.9-3.4s-1.1-3.4-2.9-3.4S320.2,23.7,320.2,25.8"/>
	<path id="Path_28641" d="M342.9,21.3l-3.1,8.9h-1.4l-2.5-7.1l-2.4,7.1H332l-3.1-8.9h1.6l2.3,7.3l2.4-7.3h1.4l2.4,7.3l2.3-7.3
		L342.9,21.3z"/>
	<path id="Path_28642" d="M346.6,27.9c0,0.9,0.2,1.2,1,1.2c0.4,0,0.9-0.1,1.3-0.3l-0.2,1.4c-0.4,0.2-0.9,0.3-1.3,0.3
		c-1.4,0-2.1-0.8-2.1-2.4V17.2h1.4L346.6,27.9z"/>
	<path id="Path_28643" d="M358.3,26.3h-6.7c0,1.6,1.2,2.8,2.8,2.9c0,0,0.1,0,0.1,0c1,0.2,2.1-0.4,2.5-1.3l1.2,0.6
		c-0.7,1.3-2.2,2.1-3.7,2c-2.7,0-4.3-1.8-4.3-4.7s1.5-4.7,4.2-4.7c2.1-0.1,3.9,1.6,4,3.7c0,0.2,0,0.3,0,0.5
		C358.4,25.7,358.4,26,358.3,26.3 M351.6,25h5.4c-0.2-1.6-1.1-2.7-2.6-2.7C352.9,22.3,351.7,23.5,351.6,25
		C351.6,25,351.6,25,351.6,25"/>
	<path id="Path_28644" d="M369.1,17.2v13.1h-1.3l-0.1-1.6c-0.6,1.1-1.8,1.8-3.1,1.7c-2.5,0-4.1-1.7-4.1-4.7s1.6-4.7,4.1-4.7
		c1.2,0,2.3,0.6,3,1.6v-5.5H369.1z M367.6,25.9v-0.2c0-2-1.1-3.3-2.8-3.3c-1.8,0-2.8,1.3-2.8,3.4s1.1,3.4,2.8,3.4
		C366.5,29.2,367.6,27.9,367.6,25.9"/>
	<path id="Path_28645" d="M380.1,31.2c0,1.8-2,2.9-4.4,2.9c-2.8,0-4.1-1-4.1-2.4c0-0.9,0.7-1.6,1.6-1.7c-0.7-0.3-1.2-0.9-1.2-1.6
		c0-0.8,0.5-1.6,1.3-1.8c-0.8-0.5-1.3-1.5-1.3-2.5c0-1.8,1.5-3,3.7-3c0.6,0,1.2,0.1,1.8,0.4c0.3-1.2,1.3-2,2.5-1.8l0.3,1.3
		c-1.2,0-1.9,0.3-2.1,1c0.7,0.5,1.1,1.4,1.1,2.3c0,1.8-1.5,3-3.7,3c-0.5,0-0.9,0-1.4-0.2c-0.7,0.2-1,0.5-1,1.1c0,0.6,0.5,1,1.2,1h3
		C379.1,29.1,380.1,30,380.1,31.2 M378.8,31.4c0-0.6-0.4-1.1-1.8-1.1h-2.4c-1.1,0-1.7,0.4-1.7,1.1c0,0.9,1,1.4,3,1.4
		C377.7,32.9,378.8,32.2,378.8,31.4 M373.4,24.2c-0.2,1.2,0.6,2.3,1.8,2.5c1.2,0.2,2.3-0.6,2.5-1.8c0.2-1.2-0.6-2.3-1.8-2.5
		c-0.1,0-0.2,0-0.4,0c-1.1-0.1-2.1,0.7-2.2,1.7C373.4,24.1,373.4,24.1,373.4,24.2"/>
	<path id="Path_28646" d="M389.8,26.3h-6.7c0,1.6,1.2,2.8,2.8,2.9c0,0,0.1,0,0.1,0c1,0.2,2.1-0.4,2.5-1.3l1.2,0.6
		c-0.7,1.3-2.2,2.1-3.7,2c-2.7,0-4.3-1.8-4.3-4.7s1.5-4.7,4.2-4.7c2.1-0.1,3.9,1.6,4,3.7c0,0.2,0,0.3,0,0.5
		C389.9,25.7,389.9,26,389.8,26.3 M383.1,25h5.4c-0.2-1.6-1.1-2.7-2.6-2.7C384.4,22.3,383.2,23.5,383.1,25
		C383.1,25,383.1,25,383.1,25"/>
	<rect id="Rectangle_14417" x="221.3" y="18.4" width="7.8" height="1.4"/>
	<rect id="Rectangle_14418" x="221.3" y="28.9" width="7.8" height="1.4"/>
	<g id="Untitled-2" transform="translate(10.047 10.989)">
		<g id="Group_120560" transform="translate(0 0)">
			<path id="Path_29314" class="st1" d="M7,32.5c-1.8,0-3.7-1.4-5-2.7c-1.8-1.8-3.3-3.9-4.5-6.2c-0.1-0.2-0.2-0.3-0.2-0.5
				c-0.6-1.1-1.1-2.3-1.5-3.5c-0.4-1.1-0.7-2.2-1-3.3c-0.3-1-0.5-2-0.7-3c-0.2-0.8-0.3-1.7-0.4-2.5C-6.5,10.2-6.5,9.5-6.6,9
				c0-0.4,0-0.8-0.1-1.1l0,0c0-0.2,0-0.4,0-0.7c0-0.9,0.1-1.9,0.2-2.8c0.1-0.7,0.3-1.3,0.6-1.9c0.2-0.4,0.6-0.8,1-1.1
				c0.4-0.2,0.8-0.4,1.3-0.4c0.5,0,1,0.1,1.5,0.2c0.6,0.2,1.1,0.4,1.6,0.6c0.6,0.3,1.3,0.6,1.7,0.9C1.8,3,2.3,3.2,2.7,3.5l0.5,0.3
				c0.6,0.3,1.2,0.7,1.9,1c0.7,0.3,1.3,0.6,1.9,0.8C7.5,5.8,8.1,6,8.7,6.1c1.2,0.3,2.4,0.5,3.4,0.6c3.9,0.6,6,1,5.5,5.1
				c-0.4,2.4-1.3,4.6-2.5,6.7c-1.7,2.9-3,6.1-3.9,9.3c-0.8,2.9-2.1,4.5-3.9,4.7C7.2,32.5,7.1,32.5,7,32.5z M-6.2,7.8
				c0,0.3,0,0.7,0.1,1.1c0,0.6,0.1,1.2,0.2,1.8c0.1,0.8,0.2,1.7,0.4,2.5c0.2,1,0.4,2,0.7,3c0.3,1.1,0.6,2.2,1,3.3
				c0.4,1.2,0.9,2.3,1.5,3.5c0.1,0.2,0.2,0.3,0.2,0.5c2.3,4.4,6.3,9,9.4,8.7c1.6-0.2,2.8-1.6,3.5-4.3c0.9-3.3,2.2-6.5,3.9-9.4
				c1.3-2,2.1-4.2,2.5-6.5c0.5-3.7-1.3-4-5.1-4.6C11,7,9.9,6.8,8.6,6.6C8,6.4,7.4,6.2,6.8,6C6.2,5.7,5.6,5.5,4.9,5.1
				C4.2,4.8,3.6,4.5,3,4.1L2.5,3.9C2.1,3.6,1.6,3.4,1.2,3.1C0.7,2.9,0.1,2.6-0.5,2.3C-1,2-1.6,1.9-2.1,1.7C-2.5,1.6-3,1.5-3.5,1.5
				c-0.4,0-0.8,0.1-1.1,0.3C-4.9,2-5.2,2.4-5.4,2.7C-5.7,3.3-5.9,3.9-6,4.5c-0.2,0.9-0.2,1.8-0.2,2.7L-6.2,7.8L-6.2,7.8L-6.2,7.8z"
				/>
			<path id="Path_29315" class="st1" d="M5,36.2c-0.1,0-0.2,0-0.2,0C2.4,36,0.3,33.8-1,32c-1.8-2.5-3.1-5.3-4-8.2
				C-7,17.5-7.5,11-6.8,4.5l0,0C-6.1,0.2-5-2-3.3-2.7C-1-3.6,1.9-1.3,5,1.2c2,1.7,4.2,3.2,6.5,4.3c1.4,0.6,2.7,1,3.8,1.4
				c4.3,1.4,6.9,2.3,5.4,7.1c-0.9,2.9-2.5,4.9-4.3,7.3c-2.5,3.1-4.7,6.5-6.4,10.2C8.8,34.6,7,36.2,5,36.2L5,36.2z M-6.2,4.5
				C-7,10.9-6.4,17.4-4.6,23.6c1.8,5.7,5.7,11.8,9.3,12c1.9,0.1,3.5-1.4,4.9-4.4c1.7-3.7,3.9-7.1,6.4-10.3c1.9-2.4,3.4-4.3,4.2-7.1
				c1.3-4.3-0.7-4.9-5.1-6.4C14.1,7,12.8,6.6,11.4,6C8.9,4.8,6.7,3.4,4.7,1.6C1.7-0.7-1.1-3-3.1-2.2C-4.6-1.6-5.6,0.6-6.2,4.5
				L-6.2,4.5z"/>
			<path id="Path_29316" class="st1" d="M3,39.6c-0.3,0-0.5,0-0.8-0.1c-2.1-0.4-4.3-2.3-6.1-5.6c-1.7-3.1-2.9-6.5-3.6-10
				C-8.9,16.5-8.7,8.9-7,1.5l0,0c1.3-4.8,2.9-7.3,5-7.8C0.8-7,3.9-4,7.2-0.8c2.2,2.2,4.5,4.5,6.9,5.8c1.5,0.8,3,1.5,4.2,2.1
				c4.8,2.2,7.6,3.6,5.4,9c-1.4,3.2-3.5,5.4-5.9,7.9c-3.3,3.2-6.2,6.8-8.6,10.8C7.3,37.9,5.2,39.6,3,39.6L3,39.6z M-6.1,1.8
				C-7.8,9-8,16.5-6.7,23.8c0.7,3.4,1.8,6.7,3.5,9.7c1.2,2.1,3.2,4.8,5.5,5.2c2.1,0.4,4.1-1.1,6.1-4.4c2.4-4,5.4-7.7,8.7-10.9
				c2.5-2.5,4.4-4.5,5.7-7.6c2-4.6-0.1-5.6-4.9-7.9c-1.3-0.6-2.7-1.3-4.3-2.1c-2.5-1.3-4.8-3.7-7.1-5.9c-3.1-3.1-6-5.9-8.3-5.3
				C-3.5-5-4.9-2.6-6.1,1.8L-6.1,1.8z"/>
			<path id="Path_29317" class="st1" d="M1.2,42.9c-0.4,0-0.9-0.1-1.3-0.2c-2.4-0.6-4.7-3-6.5-6.9c-1.6-3.7-2.7-7.6-3.2-11.6
				c-0.8-8.5,0.1-17.2,2.6-25.3l0,0c1.9-5.3,4-8,6.4-8.5c3.3-0.6,6.5,3.1,9.9,7.1C11.6,0.2,14,3,16.5,4.7c1.7,1.1,3.2,2,4.6,2.7
				c5.2,3,8.4,4.8,5.3,10.8C24.6,21.7,22,24,19,26.6c-4,3.3-7.6,7.2-10.7,11.4C6,41.3,3.6,42.9,1.2,42.9L1.2,42.9z M-6-0.7
				c-2.5,8-3.4,16.5-2.6,24.8c0.4,3.9,1.5,7.7,3.1,11.3c1.7,3.6,3.7,5.8,5.7,6.3c2.3,0.6,4.7-0.9,7.2-4.3c3.1-4.3,6.8-8.2,10.9-11.6
				c3-2.6,5.4-4.7,7.1-8.1c2.6-5,0.4-6.2-4.8-9.2c-1.4-0.8-2.9-1.7-4.6-2.8C13.2,3.9,10.8,1,8.4-1.7C5.2-5.4,2.2-8.9-0.5-8.5
				C-2.4-8.1-4.3-5.6-6-0.7z"/>
		</g>
		<g id="Group_120561" transform="translate(53.186 13.591)">
			<path id="Path_29318" class="st1" d="M91.6,10.2c-0.3,0-0.6-0.2-0.7-0.4L82.8-4.7v14c0,0.5-0.4,0.8-0.8,0.8h-1.9
				c-0.5,0-0.8-0.4-0.8-0.8c0,0,0,0,0,0V-8.8c0-0.5,0.4-0.8,0.8-0.8c0,0,0,0,0,0l3.5,0c0.3,0,0.6,0.2,0.7,0.4l8.3,14.5v-14
				c0-0.5,0.4-0.8,0.8-0.8h1.8c0.5,0,0.8,0.4,0.8,0.8V9.3c0,0.5-0.4,0.8-0.8,0.8L91.6,10.2L91.6,10.2z"/>
			<path id="Path_24809" class="st1" d="M92.5,6.3L83.8-9c-0.1-0.1-0.1-0.1-0.3-0.1c-1.1,0-2.4,0-3.5,0c-0.2,0-0.3,0.1-0.3,0.3v0
				V9.3c0,0.2,0.1,0.3,0.3,0.3c0,0,0,0,0,0H82c0.2,0,0.3-0.1,0.3-0.3v0V-5.6c0-0.2,0.1-0.3,0.3-0.3c0.1,0,0.2,0.1,0.3,0.1l8.5,15.2
				c0.1,0.1,0.2,0.1,0.3,0.1l3.5,0c0.2,0,0.3-0.1,0.3-0.3v0V-8.8c0-0.2-0.1-0.3-0.3-0.3l0,0h-1.8c-0.2,0-0.3,0.1-0.3,0.3v0v15
				c0,0.2-0.1,0.3-0.3,0.3C92.7,6.4,92.6,6.4,92.5,6.3L92.5,6.3z"/>
			<path id="Path_29319" class="st1" d="M63.4,10.1c-0.3,0-0.6-0.2-0.8-0.5L56.7-5.5L50.6,9.6c-0.1,0.3-0.4,0.5-0.8,0.5
				c-0.3,0-0.5,0-0.8,0h-0.9c-0.5,0-0.8-0.4-0.8-0.8c0-0.1,0-0.2,0.1-0.3l7.1-18.1c0.1-0.3,0.4-0.5,0.8-0.5c0.5,0,0.9,0,1.3,0
				c0.5,0,1.1,0,1.6,0c0.3,0,0.7,0.2,0.8,0.5L65.8,9c0.1,0.3,0.1,0.5-0.1,0.8c-0.2,0.2-0.4,0.4-0.7,0.4L63.4,10.1L63.4,10.1z"/>
			<path id="Path_24811" class="st1" d="M57-6.3l6.1,15.7c0,0.1,0.2,0.2,0.3,0.2H65c0.2,0,0.3-0.1,0.3-0.3c0,0,0-0.1,0-0.1L58.4-8.9
				c0-0.1-0.2-0.2-0.3-0.2c-1,0-1.9,0-2.9,0c-0.1,0-0.2,0.1-0.3,0.2L47.8,9.2c-0.1,0.1,0,0.3,0.2,0.4c0,0,0.1,0,0.1,0
				c0.6,0,1.2,0,1.7,0c0.1,0,0.2-0.1,0.3-0.2l6.4-15.7c0.1-0.1,0.2-0.2,0.4-0.2C56.9-6.4,57-6.4,57-6.3L57-6.3z"/>
			<path id="Path_29320" class="st1" d="M110.2,10.1c-0.5,0-0.8-0.4-0.8-0.8l0-18.1c0-0.5,0.4-0.8,0.8-0.8h12.6
				c0.5,0,0.8,0.4,0.8,0.8v1.6c0,0.5-0.4,0.8-0.8,0.8h-9.9l0,13.3h9.9c0.5,0,0.8,0.4,0.8,0.8v1.6c0,0.5-0.4,0.8-0.8,0.8L110.2,10.1
				L110.2,10.1z M114.8,1.8c-0.5,0-0.8-0.4-0.8-0.8v-1.5c0-0.5,0.4-0.8,0.8-0.8h5.7c0.5,0,0.8,0.4,0.8,0.8V1c0,0.5-0.4,0.8-0.8,0.8
				L114.8,1.8z"/>
			<path id="Path_29321" class="st1" d="M112.2-6.6c0-0.2,0.1-0.3,0.3-0.3l0,0h10.2c0.2,0,0.3-0.1,0.3-0.3v0v-1.6
				c0-0.2-0.1-0.3-0.3-0.3c0,0,0,0,0,0h-12.6c-0.2,0-0.3,0.1-0.3,0.3c0,0,0,0,0,0l0,18.1c0,0.2,0.1,0.3,0.3,0.3l0,0h12.5
				c0.2,0,0.3-0.1,0.3-0.3v0V7.7c0-0.2-0.1-0.3-0.3-0.3l0,0h-10.2c-0.2,0-0.3-0.1-0.3-0.3v0L112.2-6.6L112.2-6.6z M120.5-0.8h-5.7
				c-0.2,0-0.3,0.1-0.3,0.3v0V1c0,0.2,0.1,0.3,0.3,0.3l0,0h5.7c0.2,0,0.3-0.1,0.3-0.3v0v-1.5C120.8-0.7,120.6-0.8,120.5-0.8z"/>
			<path id="Path_29322" class="st1" d="M-9.3,10.1c-0.5,0-0.8-0.4-0.8-0.8V-8.8c0-0.5,0.4-0.8,0.8-0.8l0,0h7.9c0.1,0,0.2,0,0.3,0
				c1.2,0,2.5,0.3,3.5,1c2.4,1.6,3.1,4.9,1.5,7.3C3.5-0.9,3.1-0.4,2.6-0.1C2.7,0,2.8,0,2.8,0.1c1.8,1,2.8,3,2.5,5
				C5.2,7.5,3.4,9.5,1,9.9c-0.7,0.1-1.4,0.2-2,0.2L-9.3,10.1L-9.3,10.1z M-1.2,6.9c0.3,0,0.6,0,0.9-0.1c1.4-0.2,2.4-1.6,2.2-3
				C1.8,3.2,1.5,2.6,1,2.2C0.5,1.9-0.2,1.7-0.9,1.7l-3.9,0c-0.2,0-0.4-0.1-0.6-0.2c-0.2-0.2-0.2-0.4-0.2-0.6v-1.4
				c0-0.5,0.4-0.8,0.8-0.8h3.4c0.4,0,0.8-0.1,1.2-0.3C0.8-2,1.4-2.9,1.4-3.9v0c0.1-0.9-0.5-1.8-1.3-2.2c-0.5-0.2-1-0.3-1.5-0.3h-0.1
				l-5.2,0l0,13.4L-1.2,6.9L-1.2,6.9z"/>
			<path id="Path_29323" class="st1" d="M2.6,0.5C2.2,0.3,1.8,0.2,1.5,0c0,0,0,0,0,0c0,0,0.1,0,0.1-0.1c2.3-1.2,3.3-4,2.1-6.3
				C3.3-7.2,2.8-7.8,2.1-8.2C1-8.8-0.2-9.2-1.4-9.1h-7.9c-0.2,0-0.3,0.1-0.3,0.3c0,0,0,0,0,0V9.3c0,0.2,0.1,0.3,0.3,0.3c0,0,0,0,0,0
				h8.2c0.7,0,1.3-0.1,2-0.2C3.1,9,4.7,7.2,4.8,5C5.1,3.2,4.2,1.4,2.6,0.5L2.6,0.5z M-7.3-6.7C-7.3-6.8-7.1-7-7-7l0,0l5.4,0
				c0.6,0,1.2,0.1,1.8,0.3C1.3-6.2,2-5.1,1.9-3.9c0,1.2-0.7,2.4-1.9,2.8C-0.4-1-0.8-0.9-1.3-0.9h-3.4C-4.9-0.9-5-0.7-5-0.6v0v1.4
				C-5,1-4.9,1.1-4.8,1.1c0,0,0,0,0,0l3.8,0c0.8,0,1.6,0.2,2.3,0.7c1.3,1.1,1.5,3.1,0.4,4.5c-0.5,0.6-1.2,1-2,1.1
				c-0.3,0.1-0.7,0.1-1,0.1l-5.8,0c-0.2,0-0.3-0.1-0.3-0.3v0L-7.3-6.7L-7.3-6.7z"/>
			<path id="Path_29324" class="st1" d="M31.3,10.1c-0.5,0-0.9-0.3-1.1-0.7l-3.8-6.3c-0.3,0-0.6,0-1,0c-0.4,0-0.9,0-1.4,0
				c-0.4,0-0.8-0.4-0.8-0.8V0.9c0-0.5,0.4-0.8,0.8-0.8c0.3,0,0.6,0,0.9,0c1.1,0.1,2.1,0,3.2-0.3C29-0.4,29.7-1,30.1-1.7
				c0.4-0.8,0.5-1.8,0.2-2.6c-0.4-1.2-1.5-2.1-2.8-2.1l-5.3,0l0,15.7c0,0.2-0.1,0.4-0.2,0.6c-0.2,0.2-0.4,0.2-0.6,0.2h-1.8
				c-0.5,0-0.8-0.4-0.8-0.8V-8.8c0-0.5,0.4-0.8,0.8-0.8h7.6c3.5-0.1,6.5,2.6,6.6,6.1c0,0.6,0,1.2-0.2,1.8c-0.5,2-1.8,3.6-3.7,4.3
				l3.8,6.2c0.2,0.4,0.1,0.9-0.3,1.1c-0.1,0.1-0.3,0.1-0.4,0.1h-0.7c-0.3,0-0.5,0-0.8,0C31.4,10.1,31.4,10.1,31.3,10.1L31.3,10.1z"
				/>
			<path id="Path_29325" class="st1" d="M33.2,9.1l-3.9-6.5c-0.1-0.1,0-0.3,0.1-0.4c0,0,0,0,0.1,0c1.8-0.6,3.2-2.1,3.6-4
				c0.5-2.1-0.1-4.3-1.7-5.8c-1.2-1-2.6-1.6-4.2-1.6h-7.6c-0.2,0-0.3,0.1-0.3,0.3v0V9.3c0,0.2,0.1,0.3,0.3,0.3l0,0h1.8
				c0.2,0,0.3-0.1,0.3-0.3c0,0,0,0,0,0l0-16c0-0.2,0.1-0.3,0.3-0.3l5.5,0c1.5,0,2.9,1,3.3,2.5c0.7,2-0.4,4.1-2.4,4.8
				c-1.4,0.3-2.8,0.4-4.3,0.3c-0.2,0-0.3,0.1-0.3,0.3c0,0,0,0,0,0v1.4c0,0.2,0.1,0.3,0.3,0.3c0.8,0,1.6,0,2.4,0c0.1,0,0.2,0,0.3,0.1
				l3.9,6.4c0.1,0.3,0.4,0.4,0.7,0.4c0.5,0,1,0,1.6,0c0.2,0,0.3-0.1,0.3-0.3C33.3,9.2,33.3,9.2,33.2,9.1L33.2,9.1z"/>
		</g>
	</g>
</g>
</svg>
