<svg width="169" height="43" viewBox="0 0 169 43" fill="none" xmlns="http://www.w3.org/2000/svg">
<path d="M15.3789 34.4921C13.7586 34.4921 12.0483 33.3468 10.8781 32.2834C9.25788 30.8109 7.90766 29.093 6.82749 27.2115C6.73747 27.0479 6.64746 26.9661 6.64746 26.8025C6.10737 25.9026 5.6573 24.921 5.29724 23.9393C4.93718 23.0395 4.66714 22.1396 4.39709 21.2397C4.12705 20.4217 3.94702 19.6037 3.76699 18.7856C3.58696 18.1312 3.49695 17.3949 3.40693 16.7405C3.2269 16.2497 3.2269 15.677 3.13689 15.268C3.13689 14.9408 3.13689 14.6136 3.04688 14.3682C3.04688 14.2045 3.04688 14.0409 3.04688 13.7955C3.04688 13.0593 3.13689 12.2412 3.2269 11.505C3.31692 10.9324 3.49695 10.4415 3.76699 9.9507C3.94702 9.62348 4.30708 9.29627 4.66714 9.05085C5.0272 8.88724 5.38725 8.72363 5.83733 8.72363C6.2874 8.72363 6.73747 8.80544 7.18755 8.88724C7.72763 9.05085 8.17771 9.21446 8.62778 9.37807C9.16787 9.62348 9.79797 9.8689 10.158 10.1143C10.6981 10.3597 11.1482 10.5233 11.5082 10.7688L11.9583 11.0142C12.4984 11.2596 13.0385 11.5868 13.6686 11.8322C14.2987 12.0776 14.8388 12.323 15.3789 12.4866C15.829 12.6503 16.369 12.8139 16.9091 12.8957C17.9893 13.1411 19.0695 13.3047 19.9696 13.3865C23.4802 13.8773 25.3705 14.2045 24.9204 17.5585C24.5604 19.5219 23.7502 21.3216 22.6701 23.0395C21.1398 25.4118 19.9696 28.0295 19.1595 30.6473C18.4394 33.0196 17.2692 34.3285 15.6489 34.4921C15.5589 34.4921 15.4689 34.4921 15.3789 34.4921ZM3.49695 14.2864C3.49695 14.5318 3.49695 14.859 3.58696 15.1862C3.58696 15.677 3.67698 16.1679 3.76699 16.6587C3.85701 17.3131 3.94702 18.0494 4.12705 18.7038C4.30708 19.5219 4.48711 20.3399 4.75715 21.1579C5.0272 22.0578 5.29724 22.9576 5.6573 23.8575C6.01736 24.8392 6.46743 25.739 7.00752 26.7207C7.09753 26.8843 7.18755 26.9661 7.18755 27.1297C9.25788 30.7291 12.8585 34.4921 15.6489 34.2467C17.0892 34.0831 18.1693 32.9378 18.7994 30.7291C19.6096 28.0295 20.7798 25.4118 22.31 23.0395C23.4802 21.4034 24.2003 19.6037 24.5604 17.7221C25.0104 14.6954 23.3902 14.45 19.9696 13.9591C18.9795 13.6319 17.9893 13.4683 16.8191 13.3047C16.279 13.1411 15.7389 12.9775 15.1988 12.8139C14.6588 12.5685 14.1187 12.4048 13.4886 12.0776C12.8585 11.8322 12.3184 11.5868 11.7783 11.2596L11.3282 11.096C10.9682 10.8506 10.5181 10.6869 10.158 10.4415C9.70796 10.2779 9.16787 10.0325 8.62778 9.78709C8.17771 9.54168 7.63762 9.45988 7.18755 9.29627C6.82749 9.21446 6.37742 9.13266 5.92734 9.13266C5.56728 9.13266 5.20723 9.21446 4.93718 9.37807C4.66714 9.54168 4.39709 9.8689 4.21706 10.1143C3.94702 10.6051 3.76699 11.096 3.67698 11.5868C3.49695 12.323 3.49695 13.0593 3.49695 13.7955V14.2864Z" fill="white"/>
<path d="M13.5785 37.5191C13.4885 37.5191 13.3985 37.5191 13.3985 37.5191C11.2382 37.3555 9.34785 35.5558 8.17766 34.0833C6.5574 32.0382 5.38721 29.7477 4.57707 27.3753C2.77678 22.2216 2.32671 16.9043 2.95681 11.587C3.58691 8.06942 4.57707 6.26972 6.10732 5.69709C8.17766 4.96084 10.7881 6.84235 13.5785 8.88747C15.3788 10.2781 17.3591 11.5052 19.4295 12.4051C20.6897 12.8959 21.8599 13.2231 22.85 13.5503C26.7207 14.6956 29.061 15.4318 27.7108 19.3585C26.9007 21.7308 25.4605 23.3669 23.8402 25.3302C21.5898 27.8662 19.6095 30.6475 18.0793 33.6743C16.9991 36.2102 15.3788 37.5191 13.5785 37.5191ZM3.4969 11.587C2.77678 16.8225 3.31687 22.1398 4.93713 27.2117C6.5574 31.8746 10.068 36.8647 13.3085 37.0283C15.0188 37.1101 16.459 35.883 17.7192 33.4289C19.2495 30.4021 21.2298 27.6207 23.4801 25.003C25.1904 23.0397 26.5406 21.4854 27.2608 19.1949C28.4309 15.6773 26.6307 15.1864 22.67 13.9594C21.7699 13.6321 20.5997 13.3049 19.3395 12.8141C17.0891 11.8324 15.1088 10.6872 13.3085 9.21469C10.6081 7.33318 8.08764 5.45167 6.28735 6.10611C4.93713 6.59694 4.03699 8.39664 3.4969 11.587Z" fill="white"/>
<path d="M11.7784 40.3002C11.5084 40.3002 11.3284 40.3002 11.0583 40.2184C9.168 39.8912 7.18768 38.3369 5.56742 35.6373C4.03717 33.1014 2.957 30.32 2.32689 27.4568C1.06669 21.4033 1.24672 15.1861 2.77697 9.13259C3.94716 5.20596 5.38739 3.16085 7.2777 2.75182C9.79811 2.17919 12.5886 4.63333 15.559 7.25108C17.5394 9.05078 19.6097 10.9323 21.7701 11.9958C23.1203 12.6502 24.4705 13.2228 25.5507 13.7137C29.8714 15.5134 32.3918 16.6586 30.4115 21.0761C29.1512 23.6938 27.2609 25.4935 25.1006 27.5386C22.1301 30.1564 19.5197 33.1014 17.3593 36.3736C15.6491 38.9095 13.7587 40.3002 11.7784 40.3002ZM3.5871 9.378C2.05685 15.2679 1.87682 21.4033 3.04701 27.375C3.67711 30.1564 4.66727 32.8559 6.19752 35.3101C7.2777 37.028 9.07799 39.2367 11.1483 39.5639C13.0386 39.8912 14.8389 38.6641 16.6392 35.9645C18.7996 32.6923 21.5 29.6656 24.4705 27.0478C26.7209 25.0027 28.4311 23.3666 29.6013 20.8307C31.4016 17.0676 29.5113 16.2496 25.1906 14.3681C24.0204 13.8773 22.7602 13.3046 21.32 12.6502C19.0696 11.5867 16.9993 9.62342 14.9289 7.82371C12.1385 5.28777 9.52806 2.99724 7.45773 3.48807C5.92748 3.81528 4.66727 5.7786 3.5871 9.378Z" fill="white"/>
<path d="M10.157 43C9.79689 43 9.34682 42.9182 8.98676 42.8364C6.82641 42.3456 4.75607 40.3822 3.13581 37.1919C1.69558 34.1651 0.705417 30.9747 0.255344 27.7025C-0.464773 20.7491 0.345359 13.6321 2.59572 7.00593C4.306 2.67029 6.19631 0.461558 8.35666 0.0525348C11.3271 -0.438293 14.2076 2.58848 17.2681 5.86067C19.5185 8.0694 21.6788 10.3599 23.9292 11.7506C25.4594 12.6505 26.8097 13.3867 28.0699 13.9593C32.7506 16.4135 35.6311 17.886 32.8406 22.7942C31.2204 25.6574 28.88 27.5389 26.1796 29.6658C22.579 32.3654 19.3384 35.5558 16.548 38.9916C14.4777 41.6911 12.3173 43 10.157 43ZM3.6759 7.33315C1.42553 13.8775 0.615402 20.8309 1.33552 27.6207C1.69558 30.8111 2.68574 33.9197 4.12597 36.8646C5.65622 39.8096 7.45651 41.6093 9.25681 42.0183C11.3271 42.5092 13.4875 41.2821 15.7379 38.5007C18.5283 34.9831 21.8589 31.7928 25.5495 29.0114C28.2499 26.8845 30.4102 25.1666 31.9405 22.3852C34.2809 18.295 32.3005 17.3133 27.6198 14.8592C26.3596 14.2047 25.0094 13.4685 23.4791 12.5687C20.9587 11.0962 18.7984 8.72383 16.638 6.51511C13.7575 3.48833 11.0571 0.625168 8.6267 0.952387C6.91643 1.27961 5.20615 3.32472 3.6759 7.33315Z" fill="white"/>
<path d="M139.404 27.3673C139.134 27.3673 138.864 27.2036 138.774 27.04L131.483 15.1784V26.631C131.483 27.04 131.122 27.2854 130.762 27.2854H129.052C128.602 27.2854 128.332 26.9582 128.332 26.631V11.8244C128.332 11.4153 128.692 11.1699 129.052 11.1699H132.203C132.473 11.1699 132.743 11.3335 132.833 11.4971L140.304 23.3588V11.9062C140.304 11.4971 140.664 11.2517 141.024 11.2517H142.644C143.094 11.2517 143.364 11.5789 143.364 11.9062V26.631C143.364 27.04 143.004 27.2854 142.644 27.2854L139.404 27.3673Z" fill="white"/>
<path d="M140.213 24.177L132.382 11.6609C132.292 11.5791 132.292 11.5791 132.112 11.5791C131.122 11.5791 129.952 11.5791 128.961 11.5791C128.781 11.5791 128.691 11.6609 128.691 11.8245V26.6312C128.691 26.7948 128.781 26.8766 128.961 26.8766H130.762C130.942 26.8766 131.032 26.7948 131.032 26.6312V14.4423C131.032 14.2787 131.122 14.1969 131.302 14.1969C131.392 14.1969 131.482 14.2787 131.572 14.2787L139.223 26.713C139.313 26.7948 139.403 26.7948 139.493 26.7948H142.644C142.824 26.7948 142.914 26.713 142.914 26.5494V11.8245C142.914 11.6609 142.824 11.5791 142.644 11.5791H141.023C140.843 11.5791 140.753 11.6609 140.753 11.8245V24.0952C140.753 24.2588 140.663 24.3406 140.483 24.3406C140.393 24.2588 140.303 24.2588 140.213 24.177Z" fill="white"/>
<path d="M114.02 27.2854C113.75 27.2854 113.48 27.1218 113.3 26.8764L107.989 14.5239L102.498 26.8764C102.408 27.1218 102.138 27.2854 101.778 27.2854C101.508 27.2854 101.328 27.2854 101.058 27.2854H100.247C99.7974 27.2854 99.5273 26.9582 99.5273 26.631C99.5273 26.5492 99.5273 26.4674 99.6174 26.3856L106.008 11.5789C106.098 11.3335 106.368 11.1699 106.729 11.1699C107.179 11.1699 107.539 11.1699 107.899 11.1699C108.349 11.1699 108.889 11.1699 109.339 11.1699C109.609 11.1699 109.969 11.3335 110.059 11.5789L116.18 26.3856C116.27 26.631 116.27 26.7946 116.09 27.04C115.91 27.2036 115.73 27.3673 115.46 27.3673L114.02 27.2854Z" fill="white"/>
<path d="M108.258 13.8696L113.749 26.713C113.749 26.7948 113.929 26.8766 114.019 26.8766H115.459C115.639 26.8766 115.729 26.7948 115.729 26.6312V26.5494L109.518 11.7427C109.518 11.6609 109.338 11.5791 109.248 11.5791C108.348 11.5791 107.538 11.5791 106.638 11.5791C106.548 11.5791 106.458 11.6609 106.368 11.7427L99.9767 26.5494C99.8867 26.6312 99.9767 26.7948 100.157 26.8766H100.247C100.787 26.8766 101.327 26.8766 101.777 26.8766C101.867 26.8766 101.957 26.7948 102.047 26.713L107.808 13.8696C107.898 13.7878 107.988 13.706 108.168 13.706C108.168 13.7878 108.258 13.7878 108.258 13.8696Z" fill="white"/>
<path d="M156.146 27.2854C155.696 27.2854 155.426 26.9582 155.426 26.631V11.8244C155.426 11.4153 155.786 11.1699 156.146 11.1699H167.488C167.938 11.1699 168.208 11.4971 168.208 11.8244V13.1332C168.208 13.5423 167.848 13.7877 167.488 13.7877H158.576V24.6677H167.488C167.938 24.6677 168.208 24.9949 168.208 25.3221V26.631C168.208 27.04 167.848 27.2854 167.488 27.2854H156.146ZM160.287 20.4957C159.836 20.4957 159.566 20.1684 159.566 19.8412V18.6141C159.566 18.2051 159.927 17.9597 160.287 17.9597H165.417C165.867 17.9597 166.138 18.2869 166.138 18.6141V19.8412C166.138 20.2502 165.777 20.4957 165.417 20.4957H160.287Z" fill="white"/>
<path d="M157.946 13.6242C157.946 13.4606 158.036 13.3788 158.216 13.3788H167.397C167.577 13.3788 167.667 13.297 167.667 13.1334V11.8245C167.667 11.6609 167.577 11.5791 167.397 11.5791H156.055C155.875 11.5791 155.785 11.6609 155.785 11.8245V26.6312C155.785 26.7948 155.875 26.8766 156.055 26.8766H167.307C167.487 26.8766 167.577 26.7948 167.577 26.6312V25.3223C167.577 25.1587 167.487 25.0769 167.307 25.0769H158.126C157.946 25.0769 157.855 24.9951 157.855 24.8315L157.946 13.6242ZM165.417 18.3689H160.286C160.106 18.3689 160.016 18.4507 160.016 18.6143V19.8414C160.016 20.005 160.106 20.0868 160.286 20.0868H165.417C165.597 20.0868 165.687 20.005 165.687 19.8414V18.6143C165.687 18.4507 165.507 18.3689 165.417 18.3689Z" fill="white"/>
<path d="M48.5795 27.2854C48.1294 27.2854 47.8594 26.9582 47.8594 26.631V11.8244C47.8594 11.4153 48.2194 11.1699 48.5795 11.1699H55.6906C55.7807 11.1699 55.8707 11.1699 55.9607 11.1699C57.0409 11.1699 58.2111 11.4153 59.1112 11.988C61.2716 13.2968 61.9017 15.9964 60.4614 17.9597C60.1014 18.2869 59.7413 18.696 59.2912 18.9414C59.3812 19.0232 59.4713 19.0232 59.4713 19.105C61.0915 19.923 61.9917 21.5591 61.7216 23.1952C61.6316 25.1585 60.0113 26.7946 57.851 27.1218C57.2209 27.2036 56.5908 27.2854 56.0507 27.2854H48.5795ZM55.8707 24.6677C56.1407 24.6677 56.4108 24.6677 56.6808 24.5859C57.941 24.4223 58.8412 23.277 58.6611 22.1318C58.5711 21.6409 58.3011 21.1501 57.851 20.8229C57.4009 20.5775 56.7708 20.4139 56.1407 20.4139H52.6301C52.4501 20.4139 52.2701 20.332 52.0901 20.2502C51.91 20.0866 51.91 19.923 51.91 19.7594V18.6141C51.91 18.2051 52.2701 17.9597 52.6301 17.9597H55.6906C56.0507 17.9597 56.4108 17.8779 56.7708 17.7143C57.671 17.3871 58.2111 16.6508 58.2111 15.8328C58.3011 15.0965 57.761 14.3603 57.0409 14.0331C56.5908 13.8695 56.1407 13.7877 55.6906 13.7877H55.6006H50.9199V24.7495L55.8707 24.6677Z" fill="white"/>
<path d="M59.2904 19.4322C58.9303 19.2686 58.5703 19.1868 58.3002 19.0232C58.3002 19.0232 58.3902 19.0232 58.3902 18.9414C60.4606 17.9597 61.3607 15.6692 60.2805 13.7877C59.9205 13.1332 59.4704 12.6424 58.8403 12.3152C57.8501 11.8243 56.77 11.4971 55.6898 11.5789H48.5786C48.3986 11.5789 48.3086 11.6607 48.3086 11.8243V26.631C48.3086 26.7946 48.3986 26.8764 48.5786 26.8764H55.9598C56.5899 26.8764 57.13 26.7946 57.7601 26.7128C59.7404 26.3856 61.1807 24.9131 61.2707 23.1134C61.5407 21.6409 60.7306 20.1684 59.2904 19.4322ZM50.3789 13.5422C50.3789 13.4604 50.559 13.2968 50.649 13.2968H55.5098C56.0499 13.2968 56.5899 13.3786 57.13 13.5422C58.1202 13.9513 58.7503 14.8511 58.6603 15.8328C58.6603 16.8144 58.0302 17.7961 56.95 18.1233C56.5899 18.2051 56.2299 18.2869 55.7798 18.2869H52.7193C52.5393 18.2869 52.4493 18.4505 52.4493 18.5323V19.6776C52.4493 19.8412 52.5393 19.923 52.6293 19.923H56.0499C56.77 19.923 57.4901 20.0866 58.1202 20.4956C59.2904 21.3955 59.4704 23.0316 58.4802 24.1769C58.0302 24.6677 57.4001 24.9949 56.68 25.0767C56.4099 25.1585 56.0499 25.1585 55.7798 25.1585H50.559C50.3789 25.1585 50.2889 25.0767 50.2889 24.9131L50.3789 13.5422Z" fill="white"/>
<path d="M85.1229 27.2857C84.6728 27.2857 84.3128 27.0403 84.1328 26.7131L80.7122 21.5594C80.4422 21.5594 80.1721 21.5594 79.8121 21.5594C79.452 21.5594 79.0019 21.5594 78.5519 21.5594C78.1918 21.5594 77.8317 21.2321 77.8317 20.9049V19.7597C77.8317 19.3506 78.1918 19.1052 78.5519 19.1052C78.8219 19.1052 79.0919 19.1052 79.362 19.1052C80.3521 19.187 81.2523 19.1052 82.2425 18.8598C83.0526 18.6962 83.6827 18.2054 84.0427 17.6327C84.4028 16.9783 84.4928 16.1603 84.2228 15.5058C83.8627 14.5242 82.8726 13.7879 81.7024 13.7879H76.9316V26.6313C76.9316 26.7949 76.8416 26.9585 76.7516 27.1221C76.5715 27.2857 76.3915 27.2857 76.2115 27.2857H74.5912C74.1411 27.2857 73.8711 26.9585 73.8711 26.6313V11.8246C73.8711 11.4156 74.2312 11.1702 74.5912 11.1702H81.4323C84.5828 11.0884 87.2833 13.2971 87.3733 16.1603C87.3733 16.6511 87.3733 17.1419 87.1933 17.6327C86.7432 19.2688 85.573 20.5777 83.8627 21.1503L87.2833 26.2222C87.4633 26.5495 87.3733 26.9585 87.0132 27.1221C86.9232 27.2039 86.7432 27.2039 86.6532 27.2039H86.0231C85.753 27.2039 85.573 27.2039 85.303 27.2039C85.2129 27.2857 85.2129 27.2857 85.1229 27.2857Z" fill="white"/>
<path d="M86.8323 26.4673L83.3218 21.15C83.2318 21.0682 83.3218 20.9046 83.4118 20.8228C83.4118 20.8228 83.4118 20.8228 83.5018 20.8228C85.1221 20.332 86.3823 19.1049 86.7423 17.5506C87.1924 15.8327 86.6523 14.033 85.2121 12.8059C84.1319 11.9879 82.8717 11.4971 81.4315 11.4971H74.5904C74.4103 11.4971 74.3203 11.5789 74.3203 11.7425V26.6309C74.3203 26.7945 74.4103 26.8764 74.5904 26.8764H76.2106C76.3906 26.8764 76.4807 26.7945 76.4807 26.6309V13.5422C76.4807 13.3786 76.5707 13.2968 76.7507 13.2968H81.7015C83.0517 13.2968 84.3119 14.1148 84.672 15.3419C85.3021 16.978 84.3119 18.6959 82.5116 19.2685C81.2514 19.5139 79.9912 19.5957 78.641 19.5139C78.461 19.5139 78.371 19.5957 78.371 19.7593V20.9046C78.371 21.0682 78.461 21.15 78.641 21.15C79.3611 21.15 80.0812 21.15 80.8014 21.15C80.8914 21.15 80.9814 21.15 81.0714 21.2318L84.582 26.4673C84.672 26.7127 84.942 26.7945 85.2121 26.7945C85.6622 26.7945 86.1122 26.7945 86.6523 26.7945C86.8323 26.7945 86.9224 26.7127 86.9224 26.5491C86.9224 26.5491 86.9224 26.5491 86.8323 26.4673Z" fill="white"/>
</svg>
