<svg width="83" height="59" viewBox="0 0 83 59" fill="none" xmlns="http://www.w3.org/2000/svg">
<path d="M32.6723 49.635V43.1707C32.6723 39.7419 31.838 36.4534 30.3531 34.0289C28.8682 31.6043 26.8542 30.2422 24.7542 30.2422H8.91807C6.81807 30.2422 4.80407 31.6043 3.31915 34.0289C1.83422 36.4534 1 39.7419 1 43.1707V49.635" fill="#6636B6"/>
<path d="M32.6723 49.635V43.1707C32.6723 39.7419 31.838 36.4534 30.3531 34.0289C28.8682 31.6043 26.8542 30.2422 24.7542 30.2422H8.91807C6.81807 30.2422 4.80407 31.6043 3.31915 34.0289C1.83422 36.4534 1 39.7419 1 43.1707V49.635" stroke="#6636B6" stroke-width="2" stroke-linecap="round" stroke-linejoin="round"/>
<path d="M17.6752 26.0666C23.1158 26.0666 27.5262 20.4553 27.5262 13.5333C27.5262 6.61135 23.1158 1 17.6752 1C12.2347 1 7.82422 6.61135 7.82422 13.5333C7.82422 20.4553 12.2347 26.0666 17.6752 26.0666Z" stroke="#6636B6" stroke-width="2" stroke-linecap="round" stroke-linejoin="round"/>
<path d="M81.9994 49.6353V43.1709C81.9994 39.742 81.1652 36.4535 79.6803 34.0289C78.1953 31.6043 76.1814 30.2422 74.0814 30.2422H58.2452C56.1452 30.2422 54.1312 31.6043 52.6463 34.0289C51.1614 36.4535 50.3271 39.742 50.3271 43.1709V49.6353" fill="#6535B3"/>
<path d="M81.9994 49.6353V43.1709C81.9994 39.742 81.1652 36.4535 79.6803 34.0289C78.1953 31.6043 76.1814 30.2422 74.0814 30.2422H58.2452C56.1452 30.2422 54.1312 31.6043 52.6463 34.0289C51.1614 36.4535 50.3271 39.742 50.3271 43.1709V49.6353" stroke="#6636B6" stroke-width="2" stroke-linecap="round" stroke-linejoin="round"/>
<path d="M65.9076 26.0666C71.3482 26.0666 75.7587 20.4553 75.7587 13.5333C75.7587 6.61135 71.3482 1 65.9076 1C60.4671 1 56.0566 6.61135 56.0566 13.5333C56.0566 20.4553 60.4671 26.0666 65.9076 26.0666Z" stroke="#6636B6" stroke-width="2" stroke-linecap="round" stroke-linejoin="round"/>
<path d="M58.1293 58.0025V51.5381C58.1293 48.1092 57.2951 44.8207 55.8102 42.3961C54.3252 39.9715 52.3112 38.6094 50.2112 38.6094H34.3751C32.2751 38.6094 30.2611 39.9715 28.7762 42.3961C27.2913 44.8207 26.457 48.1092 26.457 51.5381V58.0025" fill="#6535B3"/>
<path d="M58.1293 58.0025V51.5381C58.1293 48.1092 57.2951 44.8207 55.8102 42.3961C54.3252 39.9715 52.3112 38.6094 50.2112 38.6094H34.3751C32.2751 38.6094 30.2611 39.9715 28.7762 42.3961C27.2913 44.8207 26.457 48.1092 26.457 51.5381V58.0025" stroke="#6636B6" stroke-width="2" stroke-linecap="round" stroke-linejoin="round"/>
<path d="M42.0375 34.4338C47.4781 34.4338 51.8885 28.8224 51.8885 21.9005C51.8885 14.9785 47.4781 9.36719 42.0375 9.36719C36.597 9.36719 32.1865 14.9785 32.1865 21.9005C32.1865 28.8224 36.597 34.4338 42.0375 34.4338Z" stroke="#6636B6" stroke-width="2" stroke-linecap="round" stroke-linejoin="round"/>
</svg>
