<svg width="425" height="432" viewBox="0 0 425 432" fill="none" xmlns="http://www.w3.org/2000/svg">
<path d="M221.962 363.811C313.47 363.811 387.651 295.893 387.651 212.113C387.651 128.332 313.47 60.4141 221.962 60.4141C130.455 60.4141 56.2734 128.332 56.2734 212.113C56.2734 295.893 130.455 363.811 221.962 363.811Z" fill="#FFD500" fill-opacity="0.33"/>
<path d="M94.7859 199V164.091H99.0131V195.25H115.24V199H94.7859ZM125.421 199H120.989L133.807 164.091H138.171L150.989 199H146.557L136.125 169.614H135.853L125.421 199ZM127.057 185.364H144.921V189.114H127.057V185.364ZM184.108 164.091V199H180.017L160.995 171.591H160.654V199H156.426V164.091H160.517L179.608 191.568H179.949V164.091H184.108ZM216.431 175C216.056 173.852 215.561 172.824 214.948 171.915C214.346 170.994 213.624 170.21 212.783 169.562C211.953 168.915 211.01 168.42 209.953 168.08C208.897 167.739 207.738 167.568 206.476 167.568C204.408 167.568 202.527 168.102 200.834 169.17C199.141 170.239 197.794 171.812 196.794 173.892C195.794 175.972 195.294 178.523 195.294 181.545C195.294 184.568 195.8 187.119 196.811 189.199C197.823 191.278 199.192 192.852 200.919 193.92C202.647 194.989 204.59 195.523 206.749 195.523C208.749 195.523 210.51 195.097 212.033 194.244C213.567 193.381 214.76 192.165 215.613 190.597C216.476 189.017 216.908 187.159 216.908 185.023L218.203 185.295H207.703V181.545H220.999V185.295C220.999 188.17 220.385 190.67 219.158 192.795C217.942 194.92 216.26 196.568 214.113 197.739C211.976 198.898 209.522 199.477 206.749 199.477C203.658 199.477 200.942 198.75 198.601 197.295C196.272 195.841 194.453 193.773 193.147 191.091C191.851 188.409 191.203 185.227 191.203 181.545C191.203 178.784 191.573 176.301 192.311 174.097C193.061 171.881 194.118 169.994 195.482 168.438C196.846 166.881 198.459 165.688 200.323 164.858C202.186 164.028 204.238 163.614 206.476 163.614C208.317 163.614 210.033 163.892 211.624 164.449C213.226 164.994 214.652 165.773 215.902 166.784C217.164 167.784 218.215 168.983 219.056 170.381C219.897 171.767 220.476 173.307 220.794 175H216.431ZM251.148 164.091H255.375V187.205C255.375 189.591 254.813 191.722 253.688 193.597C252.574 195.46 251 196.932 248.966 198.011C246.932 199.08 244.546 199.614 241.807 199.614C239.069 199.614 236.682 199.08 234.648 198.011C232.614 196.932 231.034 195.46 229.909 193.597C228.796 191.722 228.239 189.591 228.239 187.205V164.091H232.466V186.864C232.466 188.568 232.841 190.085 233.591 191.415C234.341 192.733 235.409 193.773 236.796 194.534C238.194 195.284 239.864 195.659 241.807 195.659C243.75 195.659 245.421 195.284 246.819 194.534C248.216 193.773 249.284 192.733 250.023 191.415C250.773 190.085 251.148 188.568 251.148 186.864V164.091ZM265.249 199H260.817L273.635 164.091H277.999L290.817 199H286.385L275.953 169.614H275.681L265.249 199ZM266.885 185.364H284.749V189.114H266.885V185.364ZM318.478 175C318.103 173.852 317.608 172.824 316.995 171.915C316.392 170.994 315.671 170.21 314.83 169.562C314 168.915 313.057 168.42 312 168.08C310.944 167.739 309.784 167.568 308.523 167.568C306.455 167.568 304.574 168.102 302.881 169.17C301.188 170.239 299.841 171.812 298.841 173.892C297.841 175.972 297.341 178.523 297.341 181.545C297.341 184.568 297.847 187.119 298.858 189.199C299.87 191.278 301.239 192.852 302.966 193.92C304.694 194.989 306.637 195.523 308.796 195.523C310.796 195.523 312.557 195.097 314.08 194.244C315.614 193.381 316.807 192.165 317.659 190.597C318.523 189.017 318.955 187.159 318.955 185.023L320.25 185.295H309.75V181.545H323.046V185.295C323.046 188.17 322.432 190.67 321.205 192.795C319.989 194.92 318.307 196.568 316.159 197.739C314.023 198.898 311.569 199.477 308.796 199.477C305.705 199.477 302.989 198.75 300.648 197.295C298.319 195.841 296.5 193.773 295.194 191.091C293.898 188.409 293.25 185.227 293.25 181.545C293.25 178.784 293.62 176.301 294.358 174.097C295.108 171.881 296.165 169.994 297.529 168.438C298.892 166.881 300.506 165.688 302.37 164.858C304.233 164.028 306.284 163.614 308.523 163.614C310.364 163.614 312.08 163.892 313.671 164.449C315.273 164.994 316.699 165.773 317.949 166.784C319.211 167.784 320.262 168.983 321.103 170.381C321.944 171.767 322.523 173.307 322.841 175H318.478ZM330.286 199V164.091H351.354V167.841H334.513V179.636H350.263V183.386H334.513V195.25H351.627V199H330.286ZM180.45 257V222.091H184.677V253.25H200.904V257H180.45ZM211.085 257H206.653L219.471 222.091H223.835L236.653 257H232.221L221.789 227.614H221.517L211.085 257ZM212.721 243.364H230.585V247.114H212.721V243.364ZM242.091 257V222.091H254.295C256.727 222.091 258.733 222.511 260.312 223.352C261.892 224.182 263.068 225.301 263.841 226.71C264.613 228.108 265 229.659 265 231.364C265 232.864 264.733 234.102 264.199 235.08C263.676 236.057 262.983 236.83 262.119 237.398C261.267 237.966 260.341 238.386 259.341 238.659V239C260.409 239.068 261.483 239.443 262.562 240.125C263.642 240.807 264.545 241.784 265.272 243.057C266 244.33 266.363 245.886 266.363 247.727C266.363 249.477 265.966 251.051 265.17 252.449C264.375 253.847 263.119 254.955 261.403 255.773C259.687 256.591 257.454 257 254.704 257H242.091ZM246.318 253.25H254.704C257.466 253.25 259.426 252.716 260.585 251.648C261.755 250.568 262.341 249.261 262.341 247.727C262.341 246.545 262.039 245.455 261.437 244.455C260.835 243.443 259.977 242.636 258.863 242.034C257.75 241.42 256.431 241.114 254.909 241.114H246.318V253.25ZM246.318 237.432H254.159C255.431 237.432 256.579 237.182 257.602 236.682C258.636 236.182 259.454 235.477 260.056 234.568C260.67 233.659 260.977 232.591 260.977 231.364C260.977 229.83 260.443 228.528 259.375 227.46C258.306 226.381 256.613 225.841 254.295 225.841H246.318V237.432Z" fill="#35008B"/>
<path d="M146.944 387.276H135.311L168.957 295.645H180.411L214.057 387.276H202.424L175.042 310.141H174.326L146.944 387.276ZM151.239 351.483H198.129V361.326H151.239V351.483Z" fill="#FF9D00" fill-opacity="0.7"/>
<path d="M24.9032 158.045C38.6568 158.045 49.8064 147.837 49.8064 135.245C49.8064 122.652 38.6568 112.444 24.9032 112.444C11.1495 112.444 0 122.652 0 135.245C0 147.837 11.1495 158.045 24.9032 158.045Z" fill="#E3E3E3"/>
<path d="M44.2075 158.498L40.749 145.74L32.25 153.476L44.2075 158.498Z" fill="#E3E3E3"/>
<path d="M39.1597 130.566C39.1597 131.049 38.7323 131.441 38.2054 131.441H11.5988C11.0719 131.441 10.6445 131.049 10.6445 130.566C10.6445 130.084 11.0719 129.692 11.5988 129.692H38.2054C38.7313 129.692 39.1597 130.085 39.1597 130.566Z" fill="white"/>
<path d="M39.1597 135.81C39.1597 136.293 38.7323 136.685 38.2054 136.685H11.5988C11.0719 136.685 10.6445 136.294 10.6445 135.81C10.6445 135.328 11.0719 134.937 11.5988 134.937H38.2054C38.7313 134.937 39.1597 135.329 39.1597 135.81Z" fill="white"/>
<path d="M39.1597 141.054C39.1597 141.537 38.7323 141.929 38.2054 141.929H11.5988C11.0719 141.929 10.6445 141.538 10.6445 141.054C10.6445 140.572 11.0719 140.181 11.5988 140.181H38.2054C38.7313 140.181 39.1597 140.573 39.1597 141.054Z" fill="white"/>
<path d="M290.898 161.879C308.227 161.879 322.276 149.017 322.276 133.15C322.276 117.284 308.227 104.422 290.898 104.422C273.568 104.422 259.52 117.284 259.52 133.15C259.52 149.017 273.568 161.879 290.898 161.879Z" fill="white"/>
<path d="M266.574 162.449L270.932 146.375L281.641 156.123L266.574 162.449Z" fill="white"/>
<path d="M279.993 135.947C281.68 135.947 283.048 134.695 283.048 133.15C283.048 131.605 281.68 130.353 279.993 130.353C278.305 130.353 276.938 131.605 276.938 133.15C276.938 134.695 278.305 135.947 279.993 135.947Z" fill="#4C5C8A"/>
<path d="M290.899 135.947C292.586 135.947 293.954 134.695 293.954 133.15C293.954 131.605 292.586 130.353 290.899 130.353C289.212 130.353 287.844 131.605 287.844 133.15C287.844 134.695 289.212 135.947 290.899 135.947Z" fill="#4C5C8A"/>
<path d="M301.805 135.947C303.492 135.947 304.86 134.695 304.86 133.15C304.86 131.605 303.492 130.353 301.805 130.353C300.118 130.353 298.75 131.605 298.75 133.15C298.75 134.695 300.118 135.947 301.805 135.947Z" fill="#4C5C8A"/>
<path d="M123.967 268.018V332.771H71.172C68.9706 332.771 67.1875 331.138 67.1875 329.123V271.666C67.1875 269.65 68.9706 268.018 71.172 268.018H123.967Z" fill="#6E85C7"/>
<path d="M85.7838 340.94L82.2147 339.544L78.6445 340.94V332.771H85.7838V340.94Z" fill="#D92145"/>
<path d="M75.4852 268.018V332.771H71.172C68.9706 332.771 67.1875 331.138 67.1875 329.123V271.666C67.1875 269.65 68.9706 268.018 71.172 268.018H75.4852Z" fill="#4C5C8A"/>
<path d="M112.096 282.818H84.4531V296.727H112.096V282.818Z" fill="#E3E3E3"/>
<path d="M107.985 286.923H88.0625V289.032H107.985V286.923Z" fill="white"/>
<path d="M107.985 290.629H88.0625V292.738H107.985V290.629Z" fill="white"/>
<path d="M405.504 350.142C405.504 359.243 397.445 366.62 387.506 366.62H344.311C334.37 366.62 326.312 359.242 326.312 350.142C326.312 341.041 334.371 333.664 344.311 333.664H387.506C397.445 333.663 405.504 341.04 405.504 350.142Z" fill="#E3E3E3"/>
<path d="M343.469 340.035V322.238L358.948 336.85L343.469 341.353" fill="#E3E3E3"/>
<path d="M367.27 345.417C367.27 346.286 366.499 346.993 365.548 346.993H346.111C345.162 346.993 344.391 346.287 344.391 345.417C344.391 344.548 345.161 343.841 346.111 343.841H365.548C366.499 343.841 367.27 344.548 367.27 345.417Z" fill="white"/>
<path d="M385.788 353.621C385.788 354.489 385.018 355.195 384.066 355.195H346.111C345.162 355.195 344.391 354.49 344.391 353.621C344.391 352.75 345.161 352.044 346.111 352.044H384.066C385.017 352.045 385.788 352.75 385.788 353.621Z" fill="white"/>
<path d="M167.433 263.917C167.433 264.786 166.662 265.493 165.712 265.493H146.275C145.326 265.493 144.555 264.787 144.555 263.917C144.555 263.048 145.325 262.341 146.275 262.341H165.712C166.661 262.341 167.433 263.048 167.433 263.917Z" fill="white"/>
<path d="M248.288 154.413C248.288 155.282 247.516 155.989 246.567 155.989H227.129C226.18 155.989 225.41 155.283 225.41 154.413C225.41 153.544 226.18 152.838 227.129 152.838H246.567C247.516 152.837 248.288 153.544 248.288 154.413Z" fill="white"/>
<path d="M264.534 350.142C264.534 351.012 263.763 351.718 262.813 351.718H243.377C242.427 351.718 241.656 351.012 241.656 350.142C241.656 349.273 242.426 348.566 243.377 348.566H262.814C263.763 348.566 264.534 349.273 264.534 350.142Z" fill="white"/>
<path d="M185.952 272.121C185.952 272.989 185.182 273.695 184.23 273.695H146.275C145.326 273.695 144.555 272.99 144.555 272.121C144.555 271.25 145.325 270.544 146.275 270.544H184.23C185.181 270.544 185.952 271.25 185.952 272.121Z" fill="white"/>
<path d="M187.709 104.424C187.709 105.292 186.939 105.998 185.988 105.998H148.033C147.084 105.998 146.312 105.292 146.312 104.424C146.312 103.553 147.083 102.847 148.033 102.847H185.988C186.938 102.847 187.709 103.553 187.709 104.424Z" fill="white"/>
<path d="M248.288 162.508C248.288 163.376 247.518 164.082 246.565 164.082H208.611C207.662 164.082 206.891 163.377 206.891 162.508C206.891 161.637 207.661 160.931 208.611 160.931H246.565C247.517 160.931 248.288 161.637 248.288 162.508Z" fill="white"/>
<path d="M80.5572 249.755C80.5572 250.623 79.7872 251.329 78.8349 251.329H40.8805C39.9312 251.329 39.1602 250.624 39.1602 249.755C39.1602 248.884 39.9302 248.178 40.8805 248.178H78.8349C79.7862 248.179 80.5572 248.884 80.5572 249.755Z" fill="white"/>
<path d="M402.306 252.905C402.306 253.773 401.536 254.479 400.585 254.479H362.63C361.681 254.479 360.91 253.774 360.91 252.905C360.91 252.034 361.68 251.329 362.63 251.329H400.585C401.535 251.329 402.306 252.034 402.306 252.905Z" fill="white"/>
<path d="M264.845 340.942C264.845 341.81 264.075 342.516 263.123 342.516H225.17C224.22 342.516 223.449 341.811 223.449 340.942C223.449 340.071 224.219 339.365 225.17 339.365H263.123C264.074 339.365 264.845 340.071 264.845 340.942Z" fill="white"/>
<path d="M246.213 302.58H242.031V308.608H246.213V302.58Z" fill="#E3A268"/>
<path d="M288.529 94V23.5342H313.165C318.073 23.5342 322.122 24.3829 325.31 26.0803C328.499 27.7548 330.873 30.0142 332.433 32.8585C333.992 35.6799 334.772 38.811 334.772 42.2517C334.772 45.2795 334.233 47.7798 333.155 49.7524C332.1 51.7251 330.701 53.2849 328.957 54.4318C327.237 55.5787 325.368 56.4274 323.349 56.9779V57.6661C325.505 57.8037 327.673 58.5607 329.852 59.937C332.031 61.3132 333.855 63.2859 335.323 65.855C336.791 68.424 337.525 71.5666 337.525 75.2825C337.525 78.815 336.722 81.9919 335.116 84.8133C333.511 87.6347 330.976 89.8711 327.512 91.5227C324.049 93.1742 319.541 94 313.99 94H288.529ZM297.062 86.4304H313.99C319.564 86.4304 323.521 85.3523 325.861 83.1962C328.223 81.017 329.405 78.3792 329.405 75.2825C329.405 72.897 328.797 70.6949 327.581 68.6764C326.365 66.6349 324.634 65.0063 322.386 63.7905C320.138 62.5519 317.477 61.9326 314.403 61.9326H297.062V86.4304ZM297.062 54.5006H312.889C315.458 54.5006 317.775 53.996 319.84 52.9867C321.927 51.9774 323.578 50.5553 324.794 48.7202C326.033 46.8852 326.652 44.729 326.652 42.2517C326.652 39.1551 325.574 36.5286 323.418 34.3725C321.262 32.1933 317.844 31.1038 313.165 31.1038H297.062V54.5006Z" fill="#D92145" fill-opacity="0.7"/>
<path d="M99.8228 131.567H77.7678V60.0979H100.8C107.733 60.0979 113.665 61.5287 118.598 64.3903C123.53 67.2286 127.31 71.3116 129.939 76.6392C132.568 81.9436 133.882 88.2949 133.882 95.6931C133.882 103.138 132.556 109.547 129.904 114.921C127.252 120.272 123.39 124.39 118.318 127.275C113.247 130.137 107.081 131.567 99.8228 131.567ZM86.4223 123.89H99.2645C105.174 123.89 110.071 122.75 113.956 120.47C117.841 118.19 120.738 114.945 122.646 110.734C124.553 106.523 125.507 101.509 125.507 95.6931C125.507 89.9234 124.565 84.9564 122.68 80.792C120.796 76.6043 117.981 73.3938 114.235 71.1603C110.49 68.9036 105.825 67.7753 100.242 67.7753H86.4223V123.89Z" fill="#4C5C8A"/>
<path d="M208.411 125.954V144.987H112.9C110.227 142.668 108.547 139.369 108.547 135.733C108.547 131.817 110.481 128.297 113.536 125.954H208.411Z" fill="white"/>
<path d="M122.46 126.479H212.661V122.983H122.46C119.074 122.983 115.955 124.102 113.536 125.955C110.481 128.298 108.547 131.817 108.547 135.733C108.547 139.37 110.227 142.668 112.9 144.988C115.395 147.155 118.769 148.483 122.461 148.483H212.662V144.988H122.461C116.897 144.988 112.366 140.838 112.366 135.733C112.365 130.64 116.897 126.479 122.46 126.479Z" fill="#D92145" fill-opacity="0.7"/>
<path d="M171.5 129.06H127.477V130.128H171.5V129.06Z" fill="#E3E3E3"/>
<path d="M144.555 139.742H119.625V140.81H144.555V139.742Z" fill="#E3E3E3"/>
<path d="M208.413 137.412H169.168V138.48H208.413V137.412Z" fill="#E3E3E3"/>
<path d="M208.411 133.721H135.75V134.789H208.411V133.721Z" fill="#E3E3E3"/>
<path d="M194.068 160.432L189.17 157.772L184.273 160.432V138.479H194.068V160.432Z" fill="#4C5C8A"/>
<path d="M224.736 45.4873C214.015 45.4873 205.324 53.4447 205.324 63.2598C205.324 68.6617 207.96 73.4944 212.117 76.7522C213.97 78.2041 215.767 80.8225 215.767 83.0551V91.1392H233.706V83.0551C233.706 80.8225 235.503 78.2041 237.355 76.7522C241.511 73.4944 244.146 68.6617 244.146 63.2598C244.146 53.4437 235.456 45.4873 224.736 45.4873Z" fill="#FF9D00"/>
<path d="M215.766 94.3823C215.766 94.3823 217.691 95.1557 220.067 96.1088C222.442 97.0627 226.457 97.0627 229.036 96.1088L233.706 94.3823V72.9043L215.766 94.3823Z" fill="#FF9D00"/>
<path d="M235.534 89.519C235.534 88.6234 234.742 87.8975 233.762 87.8975H215.709C214.73 87.8975 213.938 88.6234 213.938 89.519C213.938 90.4137 214.73 91.1397 215.709 91.1397H233.762C234.742 91.1397 235.534 90.4137 235.534 89.519Z" fill="#FF9D00"/>
<path d="M235.534 92.7602C235.534 91.8646 234.742 91.1387 233.762 91.1387H215.709C214.73 91.1387 213.938 91.8646 213.938 92.7602C213.938 93.6549 214.73 94.3809 215.709 94.3809H233.762C234.742 94.3818 235.534 93.6558 235.534 92.7602Z" fill="#FF9D00"/>
<path d="M235.534 86.2739C235.534 85.3783 234.742 84.6523 233.762 84.6523H215.709C214.73 84.6523 213.938 85.3783 213.938 86.2739C213.938 87.1695 214.73 87.8955 215.709 87.8955H233.762C234.742 87.8955 235.534 87.1695 235.534 86.2739Z" fill="#FF9D00"/>
<path d="M224.73 92.7598V92.7826L225.076 92.7598H224.73Z" fill="#FF9D00"/>
<path d="M233.102 93.3286L224.73 92.7832C224.707 92.7832 216.336 93.3286 216.336 93.3286H233.102Z" fill="#FF9D00"/>
<path d="M224.363 92.7598L224.709 92.7826V92.7598H224.363Z" fill="#FF9D00"/>
<path d="M216.793 62.2783L220.934 65.9264L225.08 62.2783L229.228 65.9264L233.376 62.2783" stroke="#FFD500" stroke-width="2" stroke-miterlimit="10"/>
<path d="M224.906 84.6536V70.251" stroke="#FFD500" stroke-width="2" stroke-miterlimit="10"/>
<path d="M214.344 83.7891H235.101" stroke="#FFD500" stroke-width="2" stroke-miterlimit="10"/>
<path d="M227.544 39.486C227.544 40.6953 226.474 41.6757 225.153 41.6757C223.833 41.6757 222.762 40.6953 222.762 39.486V30.8939C222.762 29.6845 223.833 28.7041 225.153 28.7041C226.474 28.7041 227.544 29.6845 227.544 30.8939V39.486Z" fill="#FF9D00"/>
<path d="M208.945 44.6107C209.881 45.4662 209.881 46.8525 208.946 47.7079C208.012 48.5634 206.497 48.5634 205.564 47.7079L198.926 41.633C197.993 40.7775 197.993 39.3913 198.928 38.5358C199.863 37.6803 201.376 37.6812 202.31 38.5358L208.945 44.6107Z" fill="#FF9D00"/>
<path d="M199.751 60.2783C201.074 60.2774 202.143 61.2578 202.143 62.4672C202.143 63.6774 201.072 64.6578 199.752 64.6578H190.367C189.046 64.6578 187.977 63.6774 187.977 62.4672C187.977 61.2578 189.048 60.2783 190.367 60.2783H199.751Z" fill="#FF9D00"/>
<path d="M205.352 77.3085C206.286 76.4521 207.799 76.4521 208.734 77.3067C209.668 78.1622 209.668 79.5494 208.734 80.4039L202.098 86.4798C201.164 87.3352 199.651 87.3343 198.716 86.478C197.781 85.6225 197.783 84.2371 198.716 83.3817L205.352 77.3085Z" fill="#FF9D00"/>
<path d="M241.061 80.6005C240.126 79.745 240.126 78.3597 241.06 77.5033C241.994 76.6478 243.51 76.6469 244.442 77.5033L251.078 83.5791C252.012 84.4346 252.012 85.819 251.077 86.6763C250.142 87.5318 248.629 87.5309 247.695 86.6763L241.061 80.6005Z" fill="#FF9D00"/>
<path d="M250.256 64.9333C248.934 64.9342 247.863 63.9547 247.863 62.7444C247.862 61.5342 248.934 60.5529 250.255 60.5556L259.64 60.5547C260.961 60.5556 262.03 61.5342 262.03 62.7454C262.03 63.9556 260.958 64.9342 259.64 64.9351L250.256 64.9333Z" fill="#FF9D00"/>
<path d="M244.658 47.9035C243.723 48.7599 242.21 48.7599 241.276 47.9035C240.34 47.0489 240.34 45.6608 241.276 44.8081L247.91 38.7313C248.846 37.8759 250.357 37.8759 251.294 38.7322C252.229 39.5877 252.226 40.9749 251.294 41.8295L244.658 47.9035Z" fill="#FF9D00"/>
<path d="M252.446 317.994C250.793 317.994 248.308 317.559 246.897 317.024L244.34 316.052V302.635H261.864V317.994H252.446Z" fill="#D19560"/>
<path d="M263.022 289.924H253.301V319.035H263.022V289.924Z" fill="#D92145"/>
<path d="M263.022 319.034C263.022 316.577 260.845 314.584 258.161 314.584C255.477 314.584 253.301 316.577 253.301 319.034C253.301 321.492 255.477 323.484 258.161 323.484C260.845 323.484 263.022 321.493 263.022 319.034Z" fill="#D92145"/>
<path d="M254.934 282.689C254.934 285.767 252.209 288.261 248.848 288.261H239.493C236.131 288.261 233.406 285.767 233.406 282.689C233.406 279.612 236.131 277.116 239.493 277.116H248.848C252.208 277.115 254.934 279.612 254.934 282.689Z" fill="#D92145"/>
<path d="M323.909 282.689C323.909 285.767 321.185 288.261 317.824 288.261H308.468C305.106 288.261 289 285.767 289 282.689C289 279.612 305.106 277.116 308.468 277.116H317.824C321.184 277.115 323.909 279.612 323.909 282.689Z" fill="#D92145"/>
<path d="M266.523 316.188C266.523 317.186 265.64 317.993 264.552 317.993H258.382C257.292 317.993 256.41 317.185 256.41 316.188C256.41 315.192 257.293 314.382 258.382 314.382H264.552C265.641 314.383 266.523 315.192 266.523 316.188Z" fill="#D19560"/>
<path d="M267.788 312.352C267.788 313.473 266.795 314.383 265.57 314.383H258.63C257.404 314.383 256.41 313.473 256.41 312.352C256.41 311.23 257.403 310.32 258.63 310.32H265.57C266.795 310.321 267.788 311.23 267.788 312.352Z" fill="#D19560"/>
<path d="M267.788 308.291C267.788 309.412 266.795 310.322 265.57 310.322H258.63C257.404 310.322 256.41 309.412 256.41 308.291C256.41 307.168 257.403 306.258 258.63 306.258H265.57C266.795 306.258 267.788 307.168 267.788 308.291Z" fill="#D19560"/>
<path d="M266.556 304.82C266.556 305.822 265.669 306.63 264.578 306.63H258.391C257.3 306.63 256.414 305.822 256.414 304.82C256.414 303.82 257.301 303.01 258.391 303.01H264.578C265.669 303.01 266.556 303.821 266.556 304.82Z" fill="#D19560"/>
<path d="M244.336 302.635H225.004V316.052H244.336V302.635Z" fill="#D19560"/>
<path d="M244.34 302.635C244.34 302.635 252.415 298.002 253.103 297.971C253.79 297.94 259.99 299 260.194 299.188C260.398 299.375 262.646 303.275 262.648 303.554C262.653 304.77 259.445 304.895 257.47 302.368L254.418 303.283C254.418 303.283 258.429 309.449 244.34 308.512V302.635Z" fill="#E3A268"/>
<path d="M238.424 300.59H216.758V317.495H238.424V300.59Z" fill="#4C5C8A"/>
<path d="M242.033 301.588H238.422V316.808H242.033V301.588Z" fill="#E3E3E3"/>
<path d="M251.03 297.576C245.01 297.576 240.129 293.107 240.129 287.596V277.615C240.129 272.103 245.01 267.635 251.03 267.635H266.927V297.577L251.03 297.576Z" fill="#4C5C8A"/>
<path d="M263.02 267.634V282.606V297.577L317.097 305.229V282.606V259.981L263.02 267.634Z" fill="#6E85C7"/>
<path d="M319.594 305.956C319.594 307.092 318.587 308.014 317.346 308.014C316.105 308.014 315.098 307.092 315.098 305.956V259.92C315.098 258.783 316.105 257.861 317.346 257.861C318.587 257.861 319.594 258.783 319.594 259.92V305.956Z" fill="#4C5C8A"/>
<path d="M326.943 300.279C326.019 299.433 326.019 298.065 326.942 297.221C327.866 296.374 329.362 296.374 330.282 297.221L336.836 303.22C337.757 304.065 337.757 305.432 336.835 306.278C335.912 307.123 334.416 307.121 333.495 306.278L326.943 300.279Z" fill="#D92145"/>
<path d="M336.023 284.807C334.717 284.808 333.66 283.84 333.66 282.646C333.659 281.45 334.717 280.481 336.022 280.483L345.289 280.482C346.594 280.482 347.65 281.45 347.65 282.647C347.65 283.841 346.591 284.808 345.289 284.808L336.023 284.807Z" fill="#D92145"/>
<path d="M330.498 267.991C329.575 268.837 328.081 268.837 327.158 267.992C326.234 267.148 326.234 265.778 327.158 264.936L333.71 258.935C334.633 258.089 336.126 258.089 337.05 258.936C337.972 259.781 337.971 261.15 337.05 261.994L330.498 267.991Z" fill="#D92145"/>
<path d="M150.101 45.1095C150.101 47.0065 148.421 48.545 146.349 48.545C144.277 48.545 142.598 47.0065 142.598 45.1095C142.598 43.2125 144.277 41.6748 146.349 41.6748C148.422 41.6748 150.101 43.2125 150.101 45.1095Z" fill="#4C5C8A"/>
<path d="M35.996 275.554C35.996 277.451 34.3155 278.99 32.2436 278.99C30.1717 278.99 28.4922 277.451 28.4922 275.554C28.4922 273.657 30.1717 272.119 32.2436 272.119C34.3165 272.12 35.996 273.657 35.996 275.554Z" fill="#4C5C8A"/>
<path d="M112.297 363.811C112.297 365.708 110.617 367.247 108.544 367.247C106.472 367.247 104.793 365.708 104.793 363.811C104.793 361.914 106.472 360.376 108.544 360.376C110.617 360.376 112.297 361.914 112.297 363.811Z" fill="#4C5C8A"/>
<path d="M308.609 379.585C308.609 381.482 306.929 383.022 304.857 383.022C302.785 383.022 301.105 381.482 301.105 379.585C301.105 377.688 302.785 376.15 304.857 376.15C306.93 376.15 308.609 377.688 308.609 379.585Z" fill="#4C5C8A"/>
<path d="M422.141 273.694C422.141 275.591 420.46 277.131 418.388 277.131C416.316 277.131 414.637 275.591 414.637 273.694C414.637 271.797 416.316 270.26 418.388 270.26C420.46 270.26 422.141 271.797 422.141 273.694Z" fill="#4C5C8A"/>
<path d="M400.502 289.772C396.901 290.759 396.028 291.56 394.95 294.857C393.873 291.56 392.999 290.759 389.398 289.772C392.999 288.786 393.873 287.986 394.95 284.689C396.028 287.986 396.901 288.786 400.502 289.772Z" fill="#4C5C8A"/>
<path d="M114.096 35.1881C110.495 36.1749 109.621 36.9757 108.544 40.2726C107.467 36.9757 106.593 36.1749 102.992 35.1881C106.593 34.2023 107.467 33.4024 108.544 30.1055C109.621 33.4024 110.495 34.2023 114.096 35.1881Z" fill="#4C5C8A"/>
<path d="M95.5531 376.15C91.9521 377.137 91.0784 377.938 90.0006 381.235C88.9238 377.938 88.0502 377.137 84.4492 376.15C88.0502 375.164 88.9238 374.364 90.0006 371.067C91.0784 374.364 91.9521 375.164 95.5531 376.15Z" fill="#4C5C8A"/>
<path d="M385.789 97.748L353.18 121.717H418.397L385.789 97.748Z" fill="#6E85C7"/>
<path d="M418.393 121.722L385.793 145.69L353.18 121.722H418.393Z" fill="#6E85C7"/>
<path d="M406.682 118.774H364.887V151.573H406.682V118.774Z" fill="white"/>
<path d="M418.393 121.722V162.506H353.18V121.722L385.793 145.69L418.393 121.722Z" fill="#B1C1F0"/>
<path d="M398.65 124.901H371.879V128.207H398.65V124.901Z" fill="#E3E3E3"/>
<path d="M398.65 131.498H371.879V134.804H398.65V131.498Z" fill="#E3E3E3"/>
<path d="M90.6939 398.359H83.228C83.0916 397.393 82.8132 396.536 82.3927 395.786C81.9723 395.024 81.4325 394.376 80.7734 393.842C80.1143 393.308 79.353 392.899 78.4893 392.615C77.6371 392.331 76.7109 392.189 75.7109 392.189C73.9041 392.189 72.3302 392.638 70.9893 393.536C69.6484 394.422 68.6087 395.717 67.87 397.422C67.1314 399.115 66.7621 401.172 66.7621 403.592C66.7621 406.081 67.1314 408.172 67.87 409.865C68.62 411.558 69.6655 412.837 71.0064 413.7C72.3473 414.564 73.8984 414.996 75.6598 414.996C76.6484 414.996 77.5632 414.865 78.4041 414.604C79.2564 414.342 80.0121 413.962 80.6712 413.462C81.3302 412.95 81.8757 412.331 82.3075 411.604C82.7507 410.876 83.0575 410.047 83.228 409.115L90.6939 409.149C90.5007 410.751 90.0178 412.297 89.245 413.786C88.4837 415.263 87.4552 416.587 86.1598 417.757C84.8757 418.916 83.3416 419.837 81.5575 420.518C79.7848 421.189 77.7791 421.524 75.5405 421.524C72.4268 421.524 69.6427 420.82 67.1882 419.411C64.745 418.001 62.8132 415.962 61.3927 413.291C59.9837 410.621 59.2791 407.388 59.2791 403.592C59.2791 399.786 59.995 396.547 61.4268 393.876C62.8587 391.206 64.8018 389.172 67.2564 387.774C69.7109 386.365 72.4723 385.661 75.5405 385.661C77.5632 385.661 79.4382 385.945 81.1655 386.513C82.9041 387.081 84.4439 387.911 85.7848 389.001C87.1257 390.081 88.2166 391.405 89.0575 392.973C89.9098 394.541 90.4552 396.337 90.6939 398.359ZM107.68 421.558C105.032 421.558 102.742 420.996 100.81 419.871C98.8899 418.734 97.407 417.155 96.3615 415.132C95.316 413.098 94.7933 410.74 94.7933 408.058C94.7933 405.354 95.316 402.99 96.3615 400.967C97.407 398.933 98.8899 397.354 100.81 396.229C102.742 395.092 105.032 394.524 107.68 394.524C110.327 394.524 112.611 395.092 114.532 396.229C116.464 397.354 117.952 398.933 118.998 400.967C120.043 402.99 120.566 405.354 120.566 408.058C120.566 410.74 120.043 413.098 118.998 415.132C117.952 417.155 116.464 418.734 114.532 419.871C112.611 420.996 110.327 421.558 107.68 421.558ZM107.714 415.933C108.918 415.933 109.924 415.592 110.731 414.911C111.538 414.217 112.146 413.274 112.555 412.081C112.975 410.888 113.185 409.53 113.185 408.007C113.185 406.484 112.975 405.126 112.555 403.933C112.146 402.74 111.538 401.797 110.731 401.104C109.924 400.411 108.918 400.064 107.714 400.064C106.498 400.064 105.475 400.411 104.646 401.104C103.827 401.797 103.208 402.74 102.788 403.933C102.379 405.126 102.174 406.484 102.174 408.007C102.174 409.53 102.379 410.888 102.788 412.081C103.208 413.274 103.827 414.217 104.646 414.911C105.475 415.592 106.498 415.933 107.714 415.933ZM125.288 421.047V394.865H132.208V399.484H132.515C133.06 397.95 133.969 396.74 135.242 395.854C136.515 394.967 138.038 394.524 139.81 394.524C141.606 394.524 143.134 394.973 144.396 395.871C145.657 396.757 146.498 397.962 146.918 399.484H147.191C147.725 397.984 148.691 396.786 150.089 395.888C151.498 394.979 153.163 394.524 155.083 394.524C157.526 394.524 159.509 395.303 161.032 396.859C162.566 398.405 163.333 400.598 163.333 403.439V421.047H156.089V404.871C156.089 403.416 155.702 402.325 154.93 401.598C154.157 400.871 153.191 400.507 152.032 400.507C150.714 400.507 149.685 400.928 148.947 401.768C148.208 402.598 147.839 403.695 147.839 405.058V421.047H140.799V404.717C140.799 403.433 140.43 402.411 139.691 401.649C138.964 400.888 138.004 400.507 136.81 400.507C136.004 400.507 135.276 400.712 134.629 401.121C133.992 401.518 133.486 402.081 133.111 402.808C132.736 403.524 132.549 404.365 132.549 405.331V421.047H125.288ZM169.069 421.047V394.865H176.33V421.047H169.069ZM172.717 391.49C171.637 391.49 170.711 391.132 169.938 390.416C169.177 389.689 168.796 388.82 168.796 387.808C168.796 386.808 169.177 385.95 169.938 385.234C170.711 384.507 171.637 384.143 172.717 384.143C173.796 384.143 174.717 384.507 175.478 385.234C176.251 385.95 176.637 386.808 176.637 387.808C176.637 388.82 176.251 389.689 175.478 390.416C174.717 391.132 173.796 391.49 172.717 391.49ZM189.408 405.911V421.047H182.147V394.865H189.067V399.484H189.374C189.954 397.962 190.925 396.757 192.289 395.871C193.653 394.973 195.306 394.524 197.249 394.524C199.067 394.524 200.653 394.922 202.005 395.717C203.357 396.513 204.408 397.649 205.158 399.126C205.908 400.592 206.283 402.342 206.283 404.376V421.047H199.022V405.672C199.033 404.07 198.624 402.82 197.795 401.922C196.965 401.013 195.823 400.558 194.369 400.558C193.391 400.558 192.528 400.768 191.778 401.189C191.039 401.609 190.46 402.223 190.039 403.03C189.63 403.825 189.42 404.786 189.408 405.911ZM223.802 431.411C221.45 431.411 219.433 431.087 217.751 430.439C216.08 429.803 214.751 428.933 213.762 427.831C212.773 426.729 212.131 425.49 211.836 424.115L218.552 423.212C218.756 423.734 219.08 424.223 219.523 424.678C219.967 425.132 220.552 425.496 221.279 425.768C222.018 426.053 222.915 426.195 223.972 426.195C225.552 426.195 226.853 425.808 227.876 425.036C228.91 424.274 229.427 422.996 229.427 421.2V416.411H229.12C228.802 417.138 228.325 417.825 227.688 418.473C227.052 419.121 226.234 419.649 225.234 420.058C224.234 420.467 223.04 420.672 221.654 420.672C219.688 420.672 217.898 420.217 216.285 419.308C214.683 418.388 213.404 416.984 212.45 415.098C211.506 413.2 211.035 410.803 211.035 407.905C211.035 404.939 211.518 402.462 212.484 400.473C213.45 398.484 214.734 396.996 216.336 396.007C217.95 395.018 219.717 394.524 221.637 394.524C223.103 394.524 224.33 394.774 225.319 395.274C226.308 395.763 227.103 396.376 227.705 397.115C228.319 397.842 228.79 398.558 229.12 399.263H229.393V394.865H236.603V421.303C236.603 423.53 236.058 425.393 234.967 426.893C233.876 428.393 232.364 429.518 230.433 430.268C228.512 431.03 226.302 431.411 223.802 431.411ZM223.955 415.217C225.126 415.217 226.114 414.928 226.921 414.348C227.739 413.757 228.364 412.916 228.796 411.825C229.239 410.723 229.461 409.405 229.461 407.871C229.461 406.337 229.245 405.007 228.813 403.882C228.381 402.746 227.756 401.865 226.938 401.24C226.12 400.615 225.126 400.303 223.955 400.303C222.762 400.303 221.756 400.626 220.938 401.274C220.12 401.911 219.501 402.797 219.08 403.933C218.66 405.07 218.45 406.382 218.45 407.871C218.45 409.382 218.66 410.689 219.08 411.791C219.512 412.882 220.131 413.729 220.938 414.331C221.756 414.922 222.762 415.217 223.955 415.217ZM272.565 396.178C272.428 394.803 271.843 393.734 270.809 392.973C269.775 392.212 268.371 391.831 266.599 391.831C265.394 391.831 264.377 392.001 263.548 392.342C262.718 392.672 262.082 393.132 261.638 393.723C261.207 394.314 260.991 394.984 260.991 395.734C260.968 396.359 261.099 396.905 261.383 397.371C261.678 397.837 262.082 398.24 262.593 398.581C263.104 398.911 263.695 399.2 264.366 399.45C265.036 399.689 265.752 399.893 266.513 400.064L269.65 400.814C271.173 401.155 272.57 401.609 273.843 402.178C275.116 402.746 276.218 403.445 277.15 404.274C278.082 405.104 278.803 406.081 279.315 407.206C279.837 408.331 280.104 409.621 280.116 411.075C280.104 413.212 279.559 415.064 278.479 416.632C277.411 418.189 275.866 419.399 273.843 420.263C271.832 421.115 269.406 421.541 266.565 421.541C263.746 421.541 261.292 421.109 259.201 420.246C257.121 419.382 255.496 418.104 254.326 416.411C253.167 414.706 252.559 412.598 252.502 410.087H259.644C259.724 411.257 260.059 412.234 260.65 413.018C261.252 413.791 262.053 414.376 263.053 414.774C264.065 415.161 265.207 415.354 266.479 415.354C267.729 415.354 268.815 415.172 269.735 414.808C270.667 414.445 271.388 413.939 271.9 413.291C272.411 412.643 272.667 411.899 272.667 411.058C272.667 410.274 272.434 409.615 271.968 409.081C271.513 408.547 270.843 408.092 269.957 407.717C269.082 407.342 268.008 407.001 266.735 406.695L262.934 405.74C259.991 405.024 257.667 403.905 255.962 402.382C254.258 400.859 253.411 398.808 253.423 396.229C253.411 394.115 253.974 392.268 255.11 390.689C256.258 389.109 257.832 387.876 259.832 386.99C261.832 386.104 264.104 385.661 266.65 385.661C269.241 385.661 271.502 386.104 273.434 386.99C275.377 387.876 276.888 389.109 277.968 390.689C279.048 392.268 279.604 394.098 279.638 396.178H272.565ZM296.773 421.558C294.126 421.558 291.836 420.996 289.904 419.871C287.984 418.734 286.501 417.155 285.455 415.132C284.41 413.098 283.887 410.74 283.887 408.058C283.887 405.354 284.41 402.99 285.455 400.967C286.501 398.933 287.984 397.354 289.904 396.229C291.836 395.092 294.126 394.524 296.773 394.524C299.421 394.524 301.705 395.092 303.626 396.229C305.558 397.354 307.046 398.933 308.092 400.967C309.137 402.99 309.66 405.354 309.66 408.058C309.66 410.74 309.137 413.098 308.092 415.132C307.046 417.155 305.558 418.734 303.626 419.871C301.705 420.996 299.421 421.558 296.773 421.558ZM296.808 415.933C298.012 415.933 299.018 415.592 299.825 414.911C300.631 414.217 301.239 413.274 301.648 412.081C302.069 410.888 302.279 409.53 302.279 408.007C302.279 406.484 302.069 405.126 301.648 403.933C301.239 402.74 300.631 401.797 299.825 401.104C299.018 400.411 298.012 400.064 296.808 400.064C295.592 400.064 294.569 400.411 293.739 401.104C292.921 401.797 292.302 402.74 291.881 403.933C291.472 405.126 291.268 406.484 291.268 408.007C291.268 409.53 291.472 410.888 291.881 412.081C292.302 413.274 292.921 414.217 293.739 414.911C294.569 415.592 295.592 415.933 296.808 415.933ZM326.211 421.558C323.563 421.558 321.273 420.996 319.342 419.871C317.421 418.734 315.938 417.155 314.893 415.132C313.847 413.098 313.325 410.74 313.325 408.058C313.325 405.354 313.847 402.99 314.893 400.967C315.938 398.933 317.421 397.354 319.342 396.229C321.273 395.092 323.563 394.524 326.211 394.524C328.859 394.524 331.143 395.092 333.063 396.229C334.995 397.354 336.484 398.933 337.529 400.967C338.575 402.99 339.097 405.354 339.097 408.058C339.097 410.74 338.575 413.098 337.529 415.132C336.484 417.155 334.995 418.734 333.063 419.871C331.143 420.996 328.859 421.558 326.211 421.558ZM326.245 415.933C327.45 415.933 328.455 415.592 329.262 414.911C330.069 414.217 330.677 413.274 331.086 412.081C331.506 410.888 331.717 409.53 331.717 408.007C331.717 406.484 331.506 405.126 331.086 403.933C330.677 402.74 330.069 401.797 329.262 401.104C328.455 400.411 327.45 400.064 326.245 400.064C325.029 400.064 324.006 400.411 323.177 401.104C322.359 401.797 321.739 402.74 321.319 403.933C320.91 405.126 320.705 406.484 320.705 408.007C320.705 409.53 320.91 410.888 321.319 412.081C321.739 413.274 322.359 414.217 323.177 414.911C324.006 415.592 325.029 415.933 326.245 415.933ZM351.08 405.911V421.047H343.819V394.865H350.739V399.484H351.046C351.626 397.962 352.597 396.757 353.961 395.871C355.325 394.973 356.978 394.524 358.921 394.524C360.739 394.524 362.325 394.922 363.677 395.717C365.029 396.513 366.08 397.649 366.83 399.126C367.58 400.592 367.955 402.342 367.955 404.376V421.047H360.694V405.672C360.705 404.07 360.296 402.82 359.467 401.922C358.637 401.013 357.495 400.558 356.04 400.558C355.063 400.558 354.2 400.768 353.45 401.189C352.711 401.609 352.131 402.223 351.711 403.03C351.302 403.825 351.092 404.786 351.08 405.911Z" fill="#35008B"/>
</svg>
