<svg width="423" height="404" viewBox="0 0 423 404" fill="none" xmlns="http://www.w3.org/2000/svg">
<path d="M221.962 363.811C313.47 363.811 387.651 295.893 387.651 212.113C387.651 128.332 313.47 60.4141 221.962 60.4141C130.455 60.4141 56.2734 128.332 56.2734 212.113C56.2734 295.893 130.455 363.811 221.962 363.811Z" fill="#FFD500" fill-opacity="0.33"/>
<path d="M146.944 387.273H135.311L168.957 295.642H180.411L214.057 387.273H202.424L175.042 310.138H174.326L146.944 387.273ZM151.239 351.48H198.129V361.323H151.239V351.48Z" fill="#FF9D00" fill-opacity="0.7"/>
<path d="M24.9032 158.046C38.6568 158.046 49.8064 147.838 49.8064 135.246C49.8064 122.653 38.6568 112.445 24.9032 112.445C11.1495 112.445 0 122.653 0 135.246C0 147.838 11.1495 158.046 24.9032 158.046Z" fill="#E3E3E3"/>
<path d="M44.2075 158.499L40.749 145.742L32.25 153.478L44.2075 158.499Z" fill="#E3E3E3"/>
<path d="M39.1597 130.569C39.1597 131.051 38.7323 131.444 38.2054 131.444H11.5988C11.0719 131.444 10.6445 131.052 10.6445 130.569C10.6445 130.087 11.0719 129.695 11.5988 129.695H38.2054C38.7313 129.695 39.1597 130.087 39.1597 130.569Z" fill="white"/>
<path d="M39.1597 135.811C39.1597 136.294 38.7323 136.686 38.2054 136.686H11.5988C11.0719 136.686 10.6445 136.295 10.6445 135.811C10.6445 135.329 11.0719 134.938 11.5988 134.938H38.2054C38.7313 134.937 39.1597 135.33 39.1597 135.811Z" fill="white"/>
<path d="M39.1597 141.053C39.1597 141.536 38.7323 141.928 38.2054 141.928H11.5988C11.0719 141.928 10.6445 141.537 10.6445 141.053C10.6445 140.571 11.0719 140.18 11.5988 140.18H38.2054C38.7313 140.18 39.1597 140.572 39.1597 141.053Z" fill="white"/>
<path d="M290.898 161.879C308.227 161.879 322.276 149.017 322.276 133.15C322.276 117.284 308.227 104.422 290.898 104.422C273.568 104.422 259.52 117.284 259.52 133.15C259.52 149.017 273.568 161.879 290.898 161.879Z" fill="white"/>
<path d="M266.574 162.449L270.932 146.375L281.641 156.123L266.574 162.449Z" fill="white"/>
<path d="M279.993 135.946C281.68 135.946 283.048 134.694 283.048 133.149C283.048 131.604 281.68 130.352 279.993 130.352C278.305 130.352 276.938 131.604 276.938 133.149C276.938 134.694 278.305 135.946 279.993 135.946Z" fill="#4C5C8A"/>
<path d="M290.899 135.946C292.586 135.946 293.954 134.694 293.954 133.149C293.954 131.604 292.586 130.352 290.899 130.352C289.212 130.352 287.844 131.604 287.844 133.149C287.844 134.694 289.212 135.946 290.899 135.946Z" fill="#4C5C8A"/>
<path d="M301.805 135.946C303.492 135.946 304.86 134.694 304.86 133.149C304.86 131.604 303.492 130.352 301.805 130.352C300.118 130.352 298.75 131.604 298.75 133.149C298.75 134.694 300.118 135.946 301.805 135.946Z" fill="#4C5C8A"/>
<path d="M123.967 268.016V332.769H71.172C68.9706 332.769 67.1875 331.136 67.1875 329.121V271.664C67.1875 269.648 68.9706 268.016 71.172 268.016H123.967Z" fill="#6E85C7"/>
<path d="M85.7838 340.935L82.2147 339.539L78.6445 340.935V332.766H85.7838V340.935Z" fill="#D92145"/>
<path d="M75.4852 268.016V332.769H71.172C68.9706 332.769 67.1875 331.136 67.1875 329.121V271.664C67.1875 269.648 68.9706 268.016 71.172 268.016H75.4852Z" fill="#4C5C8A"/>
<path d="M112.096 282.82H84.4531V296.729H112.096V282.82Z" fill="#E3E3E3"/>
<path d="M107.985 286.922H88.0625V289.031H107.985V286.922Z" fill="white"/>
<path d="M107.985 290.625H88.0625V292.735H107.985V290.625Z" fill="white"/>
<path d="M405.504 350.142C405.504 359.243 397.445 366.62 387.506 366.62H344.311C334.37 366.62 326.312 359.242 326.312 350.142C326.312 341.041 334.371 333.664 344.311 333.664H387.506C397.445 333.663 405.504 341.04 405.504 350.142Z" fill="#E3E3E3"/>
<path d="M343.469 340.031V322.234L358.948 336.846L343.469 341.349" fill="#E3E3E3"/>
<path d="M367.27 345.412C367.27 346.281 366.499 346.988 365.548 346.988H346.111C345.162 346.988 344.391 346.282 344.391 345.412C344.391 344.543 345.161 343.836 346.111 343.836H365.548C366.499 343.836 367.27 344.543 367.27 345.412Z" fill="white"/>
<path d="M385.788 353.616C385.788 354.484 385.018 355.19 384.066 355.19H346.111C345.162 355.19 344.391 354.485 344.391 353.616C344.391 352.745 345.161 352.039 346.111 352.039H384.066C385.017 352.04 385.788 352.745 385.788 353.616Z" fill="white"/>
<path d="M167.433 263.912C167.433 264.781 166.662 265.488 165.712 265.488H146.275C145.326 265.488 144.555 264.782 144.555 263.912C144.555 263.043 145.325 262.336 146.275 262.336H165.712C166.661 262.336 167.433 263.043 167.433 263.912Z" fill="white"/>
<path d="M248.288 154.411C248.288 155.28 247.516 155.987 246.567 155.987H227.129C226.18 155.987 225.41 155.281 225.41 154.411C225.41 153.542 226.18 152.836 227.129 152.836H246.567C247.516 152.835 248.288 153.542 248.288 154.411Z" fill="white"/>
<path d="M264.534 350.138C264.534 351.008 263.763 351.714 262.813 351.714H243.377C242.427 351.714 241.656 351.009 241.656 350.138C241.656 349.269 242.426 348.562 243.377 348.562H262.814C263.763 348.562 264.534 349.269 264.534 350.138Z" fill="white"/>
<path d="M185.952 272.116C185.952 272.984 185.182 273.69 184.23 273.69H146.275C145.326 273.69 144.555 272.985 144.555 272.116C144.555 271.245 145.325 270.539 146.275 270.539H184.23C185.181 270.539 185.952 271.245 185.952 272.116Z" fill="white"/>
<path d="M187.709 104.421C187.709 105.289 186.939 105.995 185.988 105.995H148.033C147.084 105.995 146.312 105.289 146.312 104.421C146.312 103.55 147.083 102.844 148.033 102.844H185.988C186.938 102.844 187.709 103.55 187.709 104.421Z" fill="white"/>
<path d="M248.288 162.507C248.288 163.375 247.518 164.081 246.565 164.081H208.611C207.662 164.081 206.891 163.376 206.891 162.507C206.891 161.636 207.661 160.93 208.611 160.93H246.565C247.517 160.93 248.288 161.636 248.288 162.507Z" fill="white"/>
<path d="M80.5572 249.749C80.5572 250.617 79.7872 251.323 78.8349 251.323H40.8805C39.9312 251.323 39.1602 250.618 39.1602 249.749C39.1602 248.878 39.9302 248.172 40.8805 248.172H78.8349C79.7862 248.173 80.5572 248.878 80.5572 249.749Z" fill="white"/>
<path d="M402.306 252.904C402.306 253.772 401.536 254.478 400.585 254.478H362.63C361.681 254.478 360.91 253.773 360.91 252.904C360.91 252.033 361.68 251.328 362.63 251.328H400.585C401.535 251.328 402.306 252.033 402.306 252.904Z" fill="white"/>
<path d="M264.845 340.936C264.845 341.804 264.075 342.51 263.123 342.51H225.17C224.22 342.51 223.449 341.805 223.449 340.936C223.449 340.065 224.219 339.359 225.17 339.359H263.123C264.074 339.359 264.845 340.065 264.845 340.936Z" fill="white"/>
<path d="M246.213 302.578H242.031V308.606H246.213V302.578Z" fill="#E3A268"/>
<path d="M288.529 94V23.5342H313.165C318.073 23.5342 322.122 24.3829 325.31 26.0803C328.499 27.7548 330.873 30.0142 332.433 32.8585C333.992 35.6799 334.772 38.811 334.772 42.2517C334.772 45.2795 334.233 47.7798 333.155 49.7524C332.1 51.7251 330.701 53.2849 328.957 54.4318C327.237 55.5787 325.368 56.4274 323.349 56.9779V57.6661C325.505 57.8037 327.673 58.5607 329.852 59.937C332.031 61.3132 333.855 63.2859 335.323 65.855C336.791 68.424 337.525 71.5666 337.525 75.2825C337.525 78.815 336.722 81.9919 335.116 84.8133C333.511 87.6347 330.976 89.8711 327.512 91.5227C324.049 93.1742 319.541 94 313.99 94H288.529ZM297.062 86.4304H313.99C319.564 86.4304 323.521 85.3523 325.861 83.1962C328.223 81.017 329.405 78.3792 329.405 75.2825C329.405 72.897 328.797 70.6949 327.581 68.6764C326.365 66.6349 324.634 65.0063 322.386 63.7905C320.138 62.5519 317.477 61.9326 314.403 61.9326H297.062V86.4304ZM297.062 54.5006H312.889C315.458 54.5006 317.775 53.996 319.84 52.9867C321.927 51.9774 323.578 50.5553 324.794 48.7202C326.033 46.8852 326.652 44.729 326.652 42.2517C326.652 39.1551 325.574 36.5286 323.418 34.3725C321.262 32.1933 317.844 31.1038 313.165 31.1038H297.062V54.5006Z" fill="#D92145" fill-opacity="0.7"/>
<path d="M99.8228 131.57H77.7678V60.1009H100.8C107.733 60.1009 113.665 61.5316 118.598 64.3932C123.53 67.2315 127.31 71.3145 129.939 76.6421C132.568 81.9465 133.882 88.2978 133.882 95.696C133.882 103.141 132.556 109.55 129.904 114.924C127.252 120.275 123.39 124.393 118.318 127.278C113.247 130.14 107.081 131.57 99.8228 131.57ZM86.4223 123.893H99.2645C105.174 123.893 110.071 122.753 113.956 120.473C117.841 118.193 120.738 114.948 122.646 110.737C124.553 106.526 125.507 101.512 125.507 95.696C125.507 89.9263 124.565 84.9593 122.68 80.7949C120.796 76.6072 117.981 73.3967 114.235 71.1633C110.49 68.9066 105.825 67.7782 100.242 67.7782H86.4223V123.893Z" fill="#4C5C8A"/>
<path d="M208.411 125.953V144.986H112.9C110.227 142.667 108.547 139.368 108.547 135.732C108.547 131.816 110.481 128.296 113.536 125.953H208.411Z" fill="white"/>
<path d="M122.46 126.48H212.661V122.984H122.46C119.074 122.984 115.955 124.103 113.536 125.956C110.481 128.299 108.547 131.818 108.547 135.734C108.547 139.371 110.227 142.669 112.9 144.989C115.395 147.156 118.769 148.484 122.461 148.484H212.662V144.989H122.461C116.897 144.989 112.366 140.839 112.366 135.734C112.365 130.641 116.897 126.48 122.46 126.48Z" fill="#D92145" fill-opacity="0.7"/>
<path d="M171.5 129.062H127.477V130.13H171.5V129.062Z" fill="#E3E3E3"/>
<path d="M144.555 139.742H119.625V140.81H144.555V139.742Z" fill="#E3E3E3"/>
<path d="M208.413 137.414H169.168V138.482H208.413V137.414Z" fill="#E3E3E3"/>
<path d="M208.411 133.719H135.75V134.787H208.411V133.719Z" fill="#E3E3E3"/>
<path d="M194.068 160.437L189.17 157.777L184.273 160.437V138.484H194.068V160.437Z" fill="#4C5C8A"/>
<path d="M224.736 45.4844C214.015 45.4844 205.324 53.4417 205.324 63.2569C205.324 68.6587 207.96 73.4915 212.117 76.7492C213.97 78.2012 215.767 80.8196 215.767 83.0522V91.1363H233.706V83.0522C233.706 80.8196 235.503 78.2012 237.355 76.7492C241.511 73.4915 244.146 68.6587 244.146 63.2569C244.146 53.4408 235.456 45.4844 224.736 45.4844Z" fill="#FF9D00"/>
<path d="M215.766 94.3843C215.766 94.3843 217.691 95.1576 220.067 96.1107C222.442 97.0647 226.457 97.0647 229.036 96.1107L233.706 94.3843V72.9062L215.766 94.3843Z" fill="#FF9D00"/>
<path d="M235.534 89.52C235.534 88.6244 234.742 87.8984 233.762 87.8984H215.709C214.73 87.8984 213.938 88.6244 213.938 89.52C213.938 90.4147 214.73 91.1407 215.709 91.1407H233.762C234.742 91.1407 235.534 90.4147 235.534 89.52Z" fill="#FF9D00"/>
<path d="M235.534 92.7622C235.534 91.8666 234.742 91.1406 233.762 91.1406H215.709C214.73 91.1406 213.938 91.8666 213.938 92.7622C213.938 93.6569 214.73 94.3828 215.709 94.3828H233.762C234.742 94.3838 235.534 93.6578 235.534 92.7622Z" fill="#FF9D00"/>
<path d="M235.534 86.27C235.534 85.3744 234.742 84.6484 233.762 84.6484H215.709C214.73 84.6484 213.938 85.3744 213.938 86.27C213.938 87.1656 214.73 87.8916 215.709 87.8916H233.762C234.742 87.8916 235.534 87.1656 235.534 86.27Z" fill="#FF9D00"/>
<path d="M224.73 92.7578V92.7806L225.076 92.7578H224.73Z" fill="#FF9D00"/>
<path d="M233.102 93.3266L224.73 92.7812C224.707 92.7812 216.336 93.3266 216.336 93.3266H233.102Z" fill="#FF9D00"/>
<path d="M224.363 92.7578L224.709 92.7806V92.7578H224.363Z" fill="#FF9D00"/>
<path d="M216.793 62.2812L220.934 65.9293L225.08 62.2812L229.228 65.9293L233.376 62.2812" stroke="#FFD500" stroke-width="2" stroke-miterlimit="10"/>
<path d="M224.906 84.6526V70.25" stroke="#FFD500" stroke-width="2" stroke-miterlimit="10"/>
<path d="M214.344 83.7891H235.101" stroke="#FFD500" stroke-width="2" stroke-miterlimit="10"/>
<path d="M227.544 39.485C227.544 40.6943 226.474 41.6747 225.153 41.6747C223.833 41.6747 222.762 40.6943 222.762 39.485V30.8929C222.762 29.6835 223.833 28.7031 225.153 28.7031C226.474 28.7031 227.544 29.6835 227.544 30.8929V39.485Z" fill="#FF9D00"/>
<path d="M208.945 44.6068C209.881 45.4623 209.881 46.8486 208.946 47.704C208.012 48.5595 206.497 48.5595 205.564 47.704L198.926 41.6291C197.993 40.7736 197.993 39.3874 198.928 38.5319C199.863 37.6764 201.376 37.6773 202.31 38.5319L208.945 44.6068Z" fill="#FF9D00"/>
<path d="M199.751 60.2734C201.074 60.2725 202.143 61.2529 202.143 62.4623C202.143 63.6725 201.072 64.6529 199.752 64.6529H190.367C189.046 64.6529 187.977 63.6725 187.977 62.4623C187.977 61.2529 189.048 60.2734 190.367 60.2734H199.751Z" fill="#FF9D00"/>
<path d="M205.352 77.3066C206.286 76.4502 207.799 76.4502 208.734 77.3048C209.668 78.1602 209.668 79.5474 208.734 80.402L202.098 86.4778C201.164 87.3333 199.651 87.3324 198.716 86.476C197.781 85.6205 197.783 84.2352 198.716 83.3797L205.352 77.3066Z" fill="#FF9D00"/>
<path d="M241.061 80.5985C240.126 79.7431 240.126 78.3577 241.06 77.5013C241.994 76.6458 243.51 76.6449 244.442 77.5013L251.078 83.5772C252.012 84.4327 252.012 85.8171 251.077 86.6744C250.142 87.5299 248.629 87.5289 247.695 86.6744L241.061 80.5985Z" fill="#FF9D00"/>
<path d="M250.256 64.9333C248.934 64.9342 247.863 63.9547 247.863 62.7444C247.862 61.5342 248.934 60.5529 250.255 60.5556L259.64 60.5547C260.961 60.5556 262.03 61.5342 262.03 62.7454C262.03 63.9556 260.958 64.9342 259.64 64.9351L250.256 64.9333Z" fill="#FF9D00"/>
<path d="M244.658 47.8996C243.723 48.756 242.21 48.756 241.276 47.8996C240.34 47.045 240.34 45.6569 241.276 44.8042L247.91 38.7274C248.846 37.872 250.357 37.872 251.294 38.7283C252.229 39.5838 252.226 40.971 251.294 41.8256L244.658 47.8996Z" fill="#FF9D00"/>
<path d="M252.446 317.992C250.793 317.992 248.308 317.557 246.897 317.022L244.34 316.05V302.633H261.864V317.992H252.446Z" fill="#D19560"/>
<path d="M263.022 289.922H253.301V319.033H263.022V289.922Z" fill="#D92145"/>
<path d="M263.022 319.036C263.022 316.579 260.845 314.586 258.161 314.586C255.477 314.586 253.301 316.579 253.301 319.036C253.301 321.494 255.477 323.486 258.161 323.486C260.845 323.486 263.022 321.494 263.022 319.036Z" fill="#D92145"/>
<path d="M254.934 282.69C254.934 285.768 252.209 288.262 248.848 288.262H239.493C236.131 288.262 233.406 285.768 233.406 282.69C233.406 279.612 236.131 277.117 239.493 277.117H248.848C252.208 277.116 254.934 279.612 254.934 282.69Z" fill="#D92145"/>
<path d="M323.909 282.69C323.909 285.768 321.185 288.262 317.824 288.262H308.468C305.106 288.262 289 285.768 289 282.69C289 279.612 305.106 277.117 308.468 277.117H317.824C321.184 277.116 323.909 279.612 323.909 282.69Z" fill="#D92145"/>
<path d="M266.523 316.189C266.523 317.187 265.64 317.994 264.552 317.994H258.382C257.292 317.994 256.41 317.186 256.41 316.189C256.41 315.193 257.293 314.383 258.382 314.383H264.552C265.641 314.384 266.523 315.193 266.523 316.189Z" fill="#D19560"/>
<path d="M267.788 312.352C267.788 313.473 266.795 314.383 265.57 314.383H258.63C257.404 314.383 256.41 313.473 256.41 312.352C256.41 311.23 257.403 310.32 258.63 310.32H265.57C266.795 310.321 267.788 311.23 267.788 312.352Z" fill="#D19560"/>
<path d="M267.788 308.291C267.788 309.412 266.795 310.322 265.57 310.322H258.63C257.404 310.322 256.41 309.412 256.41 308.291C256.41 307.168 257.403 306.258 258.63 306.258H265.57C266.795 306.258 267.788 307.168 267.788 308.291Z" fill="#D19560"/>
<path d="M266.556 304.818C266.556 305.82 265.669 306.629 264.578 306.629H258.391C257.3 306.629 256.414 305.82 256.414 304.818C256.414 303.818 257.301 303.008 258.391 303.008H264.578C265.669 303.008 266.556 303.819 266.556 304.818Z" fill="#D19560"/>
<path d="M244.336 302.633H225.004V316.05H244.336V302.633Z" fill="#D19560"/>
<path d="M244.34 302.633C244.34 302.633 252.415 298 253.103 297.969C253.79 297.938 259.99 298.998 260.194 299.186C260.398 299.373 262.646 303.273 262.648 303.552C262.653 304.769 259.445 304.893 257.47 302.366L254.418 303.281C254.418 303.281 258.429 309.447 244.34 308.511V302.633Z" fill="#E3A268"/>
<path d="M238.424 300.586H216.758V317.491H238.424V300.586Z" fill="#4C5C8A"/>
<path d="M242.033 301.586H238.422V316.806H242.033V301.586Z" fill="#E3E3E3"/>
<path d="M251.03 297.574C245.01 297.574 240.129 293.105 240.129 287.594V277.613C240.129 272.101 245.01 267.633 251.03 267.633H266.927V297.575L251.03 297.574Z" fill="#4C5C8A"/>
<path d="M263.02 267.629V282.601V297.572L317.097 305.224V282.601V259.977L263.02 267.629Z" fill="#6E85C7"/>
<path d="M319.594 305.954C319.594 307.09 318.587 308.012 317.346 308.012C316.105 308.012 315.098 307.09 315.098 305.954V259.918C315.098 258.781 316.105 257.859 317.346 257.859C318.587 257.859 319.594 258.781 319.594 259.918V305.954Z" fill="#4C5C8A"/>
<path d="M326.943 300.279C326.019 299.433 326.019 298.065 326.942 297.221C327.866 296.374 329.362 296.374 330.282 297.221L336.836 303.22C337.757 304.065 337.757 305.432 336.835 306.278C335.912 307.123 334.416 307.121 333.495 306.278L326.943 300.279Z" fill="#D92145"/>
<path d="M336.023 284.809C334.717 284.81 333.66 283.842 333.66 282.648C333.659 281.452 334.717 280.483 336.022 280.485L345.289 280.484C346.594 280.484 347.65 281.452 347.65 282.649C347.65 283.843 346.591 284.81 345.289 284.81L336.023 284.809Z" fill="#D92145"/>
<path d="M330.498 267.987C329.575 268.833 328.081 268.833 327.158 267.988C326.234 267.144 326.234 265.774 327.158 264.932L333.71 258.931C334.633 258.085 336.126 258.085 337.05 258.932C337.972 259.777 337.971 261.146 337.05 261.99L330.498 267.987Z" fill="#D92145"/>
<path d="M150.101 45.1143C150.101 47.0113 148.421 48.5499 146.349 48.5499C144.277 48.5499 142.598 47.0113 142.598 45.1143C142.598 43.2173 144.277 41.6797 146.349 41.6797C148.422 41.6797 150.101 43.2173 150.101 45.1143Z" fill="#4C5C8A"/>
<path d="M35.996 275.56C35.996 277.457 34.3155 278.996 32.2436 278.996C30.1717 278.996 28.4922 277.457 28.4922 275.56C28.4922 273.663 30.1717 272.125 32.2436 272.125C34.3165 272.126 35.996 273.663 35.996 275.56Z" fill="#4C5C8A"/>
<path d="M112.297 363.817C112.297 365.714 110.617 367.254 108.544 367.254C106.472 367.254 104.793 365.714 104.793 363.817C104.793 361.92 106.472 360.383 108.544 360.383C110.617 360.383 112.297 361.92 112.297 363.817Z" fill="#4C5C8A"/>
<path d="M308.609 379.591C308.609 381.488 306.929 383.027 304.857 383.027C302.785 383.027 301.105 381.488 301.105 379.591C301.105 377.694 302.785 376.156 304.857 376.156C306.93 376.156 308.609 377.694 308.609 379.591Z" fill="#4C5C8A"/>
<path d="M422.141 273.7C422.141 275.597 420.46 277.137 418.388 277.137C416.316 277.137 414.637 275.597 414.637 273.7C414.637 271.803 416.316 270.266 418.388 270.266C420.46 270.266 422.141 271.802 422.141 273.7Z" fill="#4C5C8A"/>
<path d="M400.502 289.778C396.901 290.765 396.028 291.566 394.95 294.862C393.873 291.566 392.999 290.765 389.398 289.778C392.999 288.792 393.873 287.992 394.95 284.695C396.028 287.992 396.901 288.792 400.502 289.778Z" fill="#4C5C8A"/>
<path d="M114.096 35.192C110.495 36.1789 109.621 36.9796 108.544 40.2765C107.467 36.9796 106.593 36.1789 102.992 35.192C106.593 34.2062 107.467 33.4063 108.544 30.1094C109.621 33.4063 110.495 34.2062 114.096 35.192Z" fill="#4C5C8A"/>
<path d="M95.5531 376.153C91.9521 377.14 91.0784 377.941 90.0006 381.237C88.9238 377.941 88.0502 377.14 84.4492 376.153C88.0502 375.167 88.9238 374.367 90.0006 371.07C91.0784 374.367 91.9521 375.167 95.5531 376.153Z" fill="#4C5C8A"/>
<path d="M385.789 97.75L353.18 121.719H418.397L385.789 97.75Z" fill="#6E85C7"/>
<path d="M418.393 121.727L385.793 145.695L353.18 121.727H418.393Z" fill="#6E85C7"/>
<path d="M406.682 118.773H364.887V151.572H406.682V118.773Z" fill="white"/>
<path d="M418.393 121.727V162.511H353.18V121.727L385.793 145.695L418.393 121.727Z" fill="#B1C1F0"/>
<path d="M398.65 124.906H371.879V128.212H398.65V124.906Z" fill="#E3E3E3"/>
<path d="M398.65 131.5H371.879V134.806H398.65V131.5Z" fill="#E3E3E3"/>
<path d="M100.374 205.312H92.9084C92.772 204.347 92.4936 203.489 92.0732 202.739C91.6527 201.977 91.1129 201.33 90.4538 200.795C89.7947 200.261 89.0334 199.852 88.1697 199.568C87.3175 199.284 86.3913 199.142 85.3913 199.142C83.5845 199.142 82.0107 199.591 80.6697 200.489C79.3288 201.375 78.2891 202.67 77.5504 204.375C76.8118 206.068 76.4425 208.125 76.4425 210.545C76.4425 213.034 76.8118 215.125 77.5504 216.818C78.3004 218.511 79.3459 219.79 80.6868 220.653C82.0277 221.517 83.5788 221.949 85.3402 221.949C86.3288 221.949 87.2436 221.818 88.0845 221.557C88.9368 221.295 89.6925 220.915 90.3516 220.415C91.0107 219.903 91.5561 219.284 91.9879 218.557C92.4311 217.83 92.7379 217 92.9084 216.068L100.374 216.102C100.181 217.705 99.6982 219.25 98.9254 220.739C98.1641 222.216 97.1357 223.54 95.8402 224.71C94.5561 225.869 93.022 226.79 91.2379 227.472C89.4652 228.142 87.4595 228.477 85.2209 228.477C82.1072 228.477 79.3232 227.773 76.8686 226.364C74.4254 224.955 72.4936 222.915 71.0732 220.244C69.6641 217.574 68.9595 214.341 68.9595 210.545C68.9595 206.739 69.6754 203.5 71.1072 200.83C72.5391 198.159 74.4822 196.125 76.9368 194.727C79.3913 193.318 82.1527 192.614 85.2209 192.614C87.2436 192.614 89.1186 192.898 90.8459 193.466C92.5845 194.034 94.1243 194.864 95.4652 195.955C96.8061 197.034 97.897 198.358 98.7379 199.926C99.5902 201.494 100.136 203.29 100.374 205.312ZM117.36 228.511C114.712 228.511 112.423 227.949 110.491 226.824C108.57 225.687 107.087 224.108 106.042 222.085C104.996 220.051 104.474 217.693 104.474 215.011C104.474 212.307 104.996 209.943 106.042 207.92C107.087 205.886 108.57 204.307 110.491 203.182C112.423 202.045 114.712 201.477 117.36 201.477C120.008 201.477 122.292 202.045 124.212 203.182C126.144 204.307 127.633 205.886 128.678 207.92C129.724 209.943 130.246 212.307 130.246 215.011C130.246 217.693 129.724 220.051 128.678 222.085C127.633 224.108 126.144 225.687 124.212 226.824C122.292 227.949 120.008 228.511 117.36 228.511ZM117.394 222.886C118.599 222.886 119.604 222.545 120.411 221.864C121.218 221.17 121.826 220.227 122.235 219.034C122.656 217.841 122.866 216.483 122.866 214.96C122.866 213.438 122.656 212.08 122.235 210.886C121.826 209.693 121.218 208.75 120.411 208.057C119.604 207.364 118.599 207.017 117.394 207.017C116.178 207.017 115.156 207.364 114.326 208.057C113.508 208.75 112.888 209.693 112.468 210.886C112.059 212.08 111.854 213.438 111.854 214.96C111.854 216.483 112.059 217.841 112.468 219.034C112.888 220.227 113.508 221.17 114.326 221.864C115.156 222.545 116.178 222.886 117.394 222.886ZM134.968 228V201.818H141.888V206.438H142.195C142.741 204.903 143.65 203.693 144.923 202.807C146.195 201.92 147.718 201.477 149.491 201.477C151.286 201.477 152.815 201.926 154.076 202.824C155.337 203.71 156.178 204.915 156.599 206.438H156.871C157.406 204.938 158.371 203.739 159.769 202.841C161.178 201.932 162.843 201.477 164.763 201.477C167.207 201.477 169.19 202.256 170.712 203.812C172.246 205.358 173.013 207.551 173.013 210.392V228H165.769V211.824C165.769 210.369 165.383 209.278 164.61 208.551C163.837 207.824 162.871 207.46 161.712 207.46C160.394 207.46 159.366 207.881 158.627 208.722C157.888 209.551 157.519 210.648 157.519 212.011V228H150.479V211.67C150.479 210.386 150.11 209.364 149.371 208.602C148.644 207.841 147.684 207.46 146.491 207.46C145.684 207.46 144.957 207.665 144.309 208.074C143.673 208.472 143.167 209.034 142.792 209.761C142.417 210.477 142.229 211.318 142.229 212.284V228H134.968ZM178.749 228V201.818H186.011V228H178.749ZM182.397 198.443C181.317 198.443 180.391 198.085 179.619 197.369C178.857 196.642 178.477 195.773 178.477 194.761C178.477 193.761 178.857 192.903 179.619 192.188C180.391 191.46 181.317 191.097 182.397 191.097C183.477 191.097 184.397 191.46 185.158 192.188C185.931 192.903 186.317 193.761 186.317 194.761C186.317 195.773 185.931 196.642 185.158 197.369C184.397 198.085 183.477 198.443 182.397 198.443ZM199.089 212.864V228H191.827V201.818H198.748V206.438H199.055C199.634 204.915 200.606 203.71 201.969 202.824C203.333 201.926 204.987 201.477 206.93 201.477C208.748 201.477 210.333 201.875 211.685 202.67C213.038 203.466 214.089 204.602 214.839 206.08C215.589 207.545 215.964 209.295 215.964 211.33V228H208.702V212.625C208.714 211.023 208.305 209.773 207.475 208.875C206.646 207.966 205.504 207.511 204.049 207.511C203.072 207.511 202.208 207.722 201.458 208.142C200.719 208.562 200.14 209.176 199.719 209.983C199.31 210.778 199.1 211.739 199.089 212.864ZM233.482 238.364C231.13 238.364 229.113 238.04 227.431 237.392C225.761 236.756 224.431 235.886 223.442 234.784C222.454 233.682 221.812 232.443 221.516 231.068L228.232 230.165C228.437 230.688 228.761 231.176 229.204 231.631C229.647 232.085 230.232 232.449 230.96 232.722C231.698 233.006 232.596 233.148 233.653 233.148C235.232 233.148 236.533 232.761 237.556 231.989C238.59 231.227 239.107 229.949 239.107 228.153V223.364H238.8C238.482 224.091 238.005 224.778 237.369 225.426C236.732 226.074 235.914 226.602 234.914 227.011C233.914 227.42 232.721 227.625 231.335 227.625C229.369 227.625 227.579 227.17 225.965 226.261C224.363 225.341 223.085 223.937 222.13 222.051C221.187 220.153 220.715 217.756 220.715 214.858C220.715 211.892 221.198 209.415 222.164 207.426C223.13 205.437 224.414 203.949 226.016 202.96C227.63 201.972 229.397 201.477 231.317 201.477C232.783 201.477 234.011 201.727 234.999 202.227C235.988 202.716 236.783 203.33 237.386 204.068C237.999 204.795 238.471 205.511 238.8 206.216H239.073V201.818H246.283V228.256C246.283 230.483 245.738 232.347 244.647 233.847C243.556 235.347 242.045 236.472 240.113 237.222C238.192 237.983 235.982 238.364 233.482 238.364ZM233.636 222.17C234.806 222.17 235.795 221.881 236.602 221.301C237.42 220.71 238.045 219.869 238.477 218.778C238.92 217.676 239.141 216.358 239.141 214.824C239.141 213.29 238.925 211.96 238.494 210.835C238.062 209.699 237.437 208.818 236.619 208.193C235.8 207.568 234.806 207.256 233.636 207.256C232.442 207.256 231.437 207.58 230.619 208.227C229.8 208.864 229.181 209.75 228.761 210.886C228.34 212.023 228.13 213.335 228.13 214.824C228.13 216.335 228.34 217.642 228.761 218.744C229.192 219.835 229.812 220.682 230.619 221.284C231.437 221.875 232.442 222.17 233.636 222.17ZM282.245 203.131C282.109 201.756 281.523 200.687 280.489 199.926C279.455 199.165 278.052 198.784 276.279 198.784C275.075 198.784 274.058 198.955 273.228 199.295C272.398 199.625 271.762 200.085 271.319 200.676C270.887 201.267 270.671 201.938 270.671 202.688C270.648 203.312 270.779 203.858 271.063 204.324C271.359 204.79 271.762 205.193 272.273 205.534C272.785 205.864 273.376 206.153 274.046 206.403C274.717 206.642 275.433 206.847 276.194 207.017L279.33 207.767C280.853 208.108 282.251 208.562 283.523 209.131C284.796 209.699 285.898 210.398 286.83 211.227C287.762 212.057 288.484 213.034 288.995 214.159C289.518 215.284 289.785 216.574 289.796 218.028C289.785 220.165 289.239 222.017 288.16 223.585C287.092 225.142 285.546 226.352 283.523 227.216C281.512 228.068 279.086 228.494 276.245 228.494C273.427 228.494 270.972 228.062 268.881 227.199C266.802 226.335 265.177 225.057 264.006 223.364C262.847 221.659 262.239 219.551 262.183 217.04H269.325C269.404 218.21 269.739 219.187 270.33 219.972C270.933 220.744 271.734 221.33 272.734 221.727C273.745 222.114 274.887 222.307 276.16 222.307C277.41 222.307 278.495 222.125 279.415 221.761C280.347 221.398 281.069 220.892 281.58 220.244C282.092 219.597 282.347 218.852 282.347 218.011C282.347 217.227 282.114 216.568 281.648 216.034C281.194 215.5 280.523 215.045 279.637 214.67C278.762 214.295 277.688 213.955 276.415 213.648L272.614 212.693C269.671 211.977 267.347 210.858 265.643 209.335C263.938 207.812 263.092 205.761 263.103 203.182C263.092 201.068 263.654 199.222 264.79 197.642C265.938 196.062 267.512 194.83 269.512 193.943C271.512 193.057 273.785 192.614 276.33 192.614C278.921 192.614 281.183 193.057 283.114 193.943C285.058 194.83 286.569 196.062 287.648 197.642C288.728 199.222 289.285 201.051 289.319 203.131H282.245ZM306.454 228.511C303.806 228.511 301.516 227.949 299.585 226.824C297.664 225.687 296.181 224.108 295.136 222.085C294.09 220.051 293.567 217.693 293.567 215.011C293.567 212.307 294.09 209.943 295.136 207.92C296.181 205.886 297.664 204.307 299.585 203.182C301.516 202.045 303.806 201.477 306.454 201.477C309.102 201.477 311.386 202.045 313.306 203.182C315.238 204.307 316.727 205.886 317.772 207.92C318.817 209.943 319.34 212.307 319.34 215.011C319.34 217.693 318.817 220.051 317.772 222.085C316.727 224.108 315.238 225.687 313.306 226.824C311.386 227.949 309.102 228.511 306.454 228.511ZM306.488 222.886C307.692 222.886 308.698 222.545 309.505 221.864C310.312 221.17 310.92 220.227 311.329 219.034C311.749 217.841 311.96 216.483 311.96 214.96C311.96 213.438 311.749 212.08 311.329 210.886C310.92 209.693 310.312 208.75 309.505 208.057C308.698 207.364 307.692 207.017 306.488 207.017C305.272 207.017 304.249 207.364 303.42 208.057C302.602 208.75 301.982 209.693 301.562 210.886C301.153 212.08 300.948 213.438 300.948 214.96C300.948 216.483 301.153 217.841 301.562 219.034C301.982 220.227 302.602 221.17 303.42 221.864C304.249 222.545 305.272 222.886 306.488 222.886ZM335.891 228.511C333.244 228.511 330.954 227.949 329.022 226.824C327.102 225.687 325.619 224.108 324.573 222.085C323.528 220.051 323.005 217.693 323.005 215.011C323.005 212.307 323.528 209.943 324.573 207.92C325.619 205.886 327.102 204.307 329.022 203.182C330.954 202.045 333.244 201.477 335.891 201.477C338.539 201.477 340.823 202.045 342.744 203.182C344.675 204.307 346.164 205.886 347.21 207.92C348.255 209.943 348.778 212.307 348.778 215.011C348.778 217.693 348.255 220.051 347.21 222.085C346.164 224.108 344.675 225.687 342.744 226.824C340.823 227.949 338.539 228.511 335.891 228.511ZM335.925 222.886C337.13 222.886 338.136 222.545 338.942 221.864C339.749 221.17 340.357 220.227 340.766 219.034C341.187 217.841 341.397 216.483 341.397 214.96C341.397 213.438 341.187 212.08 340.766 210.886C340.357 209.693 339.749 208.75 338.942 208.057C338.136 207.364 337.13 207.017 335.925 207.017C334.71 207.017 333.687 207.364 332.857 208.057C332.039 208.75 331.42 209.693 330.999 210.886C330.59 212.08 330.386 213.438 330.386 214.96C330.386 216.483 330.59 217.841 330.999 219.034C331.42 220.227 332.039 221.17 332.857 221.864C333.687 222.545 334.71 222.886 335.925 222.886ZM360.761 212.864V228H353.499V201.818H360.42V206.438H360.727C361.306 204.915 362.278 203.71 363.641 202.824C365.005 201.926 366.658 201.477 368.602 201.477C370.42 201.477 372.005 201.875 373.357 202.67C374.71 203.466 375.761 204.602 376.511 206.08C377.261 207.545 377.636 209.295 377.636 211.33V228H370.374V212.625C370.386 211.023 369.977 209.773 369.147 208.875C368.317 207.966 367.175 207.511 365.721 207.511C364.744 207.511 363.88 207.722 363.13 208.142C362.391 208.562 361.812 209.176 361.391 209.983C360.982 210.778 360.772 211.739 360.761 212.864Z" fill="#35008B"/>
</svg>
