<svg width="25" height="25" viewBox="0 0 25 25" fill="none" xmlns="http://www.w3.org/2000/svg">
<path d="M0.541771 0.05653C0.315833 0.148077 0.126533 0.349482 0.0532563 0.575298C-0.0932979 1.00862 -0.0505528 1.05745 2.63628 3.75505L5.13991 6.26955L3.43622 6.28786L1.72642 6.30617L1.3295 6.50147C0.834879 6.7456 0.4746 7.12399 0.21813 7.66718L0.0227242 8.07609L0.00440493 12.2568C-0.00780792 15.2229 0.00440493 16.5412 0.0532563 16.8036C0.199811 17.5665 0.694431 18.2012 1.39667 18.5369L1.73252 18.6956L4.20563 18.7261C6.34898 18.7505 6.69705 18.7688 6.81918 18.8543C6.89245 18.9092 8.34578 20.2397 10.0434 21.8143C11.973 23.6025 13.2309 24.7316 13.4141 24.8232C13.75 24.9941 14.3118 25.0185 14.6537 24.872C14.9529 24.7499 15.301 24.4326 15.4598 24.1335C15.5941 23.8833 15.5941 23.8528 15.6124 20.3129L15.6308 16.7487L19.7037 20.8134C24.0637 25.165 23.9966 25.1039 24.4423 24.9513C24.8576 24.8171 25.0896 24.3898 24.9675 23.9931C24.9064 23.8039 22.6654 21.5336 13.1271 11.9943C5.06663 3.93204 1.28675 0.1908 1.11577 0.111458C0.840985 -0.0228119 0.767708 -0.0289135 0.541771 0.05653Z" fill="#461696" fill-opacity="0.7"/>
<path d="M13.7377 0.0583191C13.5912 0.0888348 13.3714 0.174279 13.2492 0.259724C13.0477 0.393993 8.2847 4.78827 8.24806 4.86761C8.24196 4.88592 9.8968 6.56429 11.9302 8.59665L15.6246 12.2891L15.6124 6.70467L15.5941 1.12027L15.4598 0.87004C15.1239 0.247517 14.44 -0.0759506 13.7377 0.0583191Z" fill="#461696" fill-opacity="0.7"/>
<path d="M20.9426 4.00138C20.4663 4.2394 20.3442 4.72155 20.6495 5.14878C20.7411 5.27694 21.0037 5.62482 21.2296 5.91777C22.2433 7.21775 22.976 8.89001 23.2936 10.6355C23.4523 11.5022 23.4523 13.504 23.2936 14.3585C23.0676 15.5913 22.628 16.8302 22.0662 17.8128L21.7364 18.3865L22.2982 18.948L22.8539 19.5156L23.0921 19.1433C23.9897 17.7335 24.6309 15.9636 24.8812 14.2303C25.0156 13.266 25.0156 11.5998 24.8751 10.6966C24.5637 8.6703 23.7638 6.71729 22.5913 5.13047C22.054 4.39198 21.7609 4.08072 21.5105 3.97697C21.2479 3.86711 21.193 3.86711 20.9426 4.00138Z" fill="#461696" fill-opacity="0.7"/>
<path d="M19.0743 7.8467C18.7628 7.93214 18.4941 8.28002 18.4941 8.60349C18.4941 8.68283 18.6163 8.99409 18.7689 9.30536C18.9155 9.61662 19.1109 10.0683 19.1903 10.3185C19.7032 11.8382 19.6238 13.779 19.001 15.1888L18.8544 15.5184L19.4345 16.0982L20.0085 16.6719L20.2223 16.2508C20.7902 15.1217 21.0711 13.9071 21.0711 12.5339C21.0772 11.4537 20.9672 10.7518 20.6558 9.81802C20.3993 9.05513 19.9292 8.12744 19.7154 7.97486C19.5444 7.8528 19.2574 7.79787 19.0743 7.8467Z" fill="#461696" fill-opacity="0.7"/>
</svg>
