<svg xmlns="http://www.w3.org/2000/svg" xmlns:xlink="http://www.w3.org/1999/xlink" width="929.281" height="878.045" viewBox="0 0 929.281 878.045">
  <defs>
    <clipPath id="clip-path">
      <rect id="Rectangle_161342" data-name="Rectangle 161342" width="878.045" height="929.281" fill="none" stroke="#35008b" stroke-width="1"/>
    </clipPath>
  </defs>
  <g id="Swril" transform="translate(0 878.045) rotate(-90)" opacity="0.183" clip-path="url(#clip-path)">
    <path id="Path_341555" data-name="Path 341555" d="M380.954,139.382h0A44.613,44.613,0,0,1,394.89,141.5c14.668,4.768,26.4,17.793,34.865,38.715a168.927,168.927,0,0,1,8.214,27.392,251.933,251.933,0,0,1,4.066,25.078c1.5,13.266,2.834,30.8-.118,48.773a244.117,244.117,0,0,1-5.788,24.453l-.017.06c-.9,3.291-1.828,6.695-2.687,10.055-4.5,17.655-6.265,34.609-7.97,51l0,.023c-2.7,25.993-5.257,50.545-18.419,73.57a110.891,110.891,0,0,1-17.022,22.427c-18.535,19.089-40.924,29.978-58.913,38.727-9.1,4.426-19.784,9.326-30.075,12.126a63.294,63.294,0,0,1-16.434,2.44,37.177,37.177,0,0,1-12.365-1.982A31.557,31.557,0,0,1,262,508.4a69.885,69.885,0,0,1-8.894-10.058l-.007-.009a70.21,70.21,0,0,0-8.945-10.122c-6.517-5.641-14.575-8.166-22.367-10.608l-.021-.007a116.005,116.005,0,0,1-12.062-4.271,44.3,44.3,0,0,1-5.323-2.781c-6.261-3.837-16.914-12.682-17.918-28.808-.417-6.7.693-13.5,3.6-22.048,1.658-4.846,3.612-9.573,5.681-14.578,2.332-5.631,4.974-12.014,7.141-18.732a157.542,157.542,0,0,0,7.046-45.166,315.323,315.323,0,0,0-2.088-41.669c-1.682-15.57-2.733-28.539-2.391-41.226a129.673,129.673,0,0,1,1.894-19.532,90.967,90.967,0,0,1,5.263-18.478c.722-1.768,1.453-3.4,2.236-5,9.618-19.554,25.662-29.977,37.427-35.278,9.6-4.324,19.631-6.686,29.334-8.971l.022-.005c5.46-1.284,11.105-2.611,16.7-4.291,2.282-.688,4.632-1.458,6.986-2.29,7.9-2.79,15.982-6.308,23.795-9.71,7.372-3.212,14.995-6.534,22.452-9.222a118.915,118.915,0,0,1,15.824-4.626A65.488,65.488,0,0,1,380.954,139.382ZM284.59,515.349a62.3,62.3,0,0,0,16.172-2.405c10.212-2.778,20.844-7.655,29.9-12.059,17.922-8.717,40.223-19.564,58.636-38.526a109.9,109.9,0,0,0,16.871-22.227c13.058-22.841,15.6-47.291,18.293-73.177l0-.023c1.709-16.432,3.477-33.423,8-51.149.861-3.369,1.791-6.776,2.691-10.071l.017-.061a243.351,243.351,0,0,0,5.766-24.352c2.931-17.854,1.6-35.3.111-48.5a250.954,250.954,0,0,0-4.049-24.978,167.935,167.935,0,0,0-8.164-27.229c-8.351-20.635-19.873-33.467-34.246-38.139a43.628,43.628,0,0,0-13.626-2.074h0a64.5,64.5,0,0,0-13.363,1.512,117.938,117.938,0,0,0-15.691,4.588c-7.426,2.678-15.034,5.993-22.392,9.2-7.829,3.409-15.925,6.934-23.861,9.736-2.369.837-4.734,1.612-7.031,2.3-5.625,1.689-11.286,3.02-16.76,4.307l-.022.005c-9.656,2.274-19.642,4.625-29.152,8.909-11.615,5.233-27.453,15.52-36.94,34.807-.772,1.573-1.495,3.187-2.207,4.933a89.981,89.981,0,0,0-5.2,18.277,128.678,128.678,0,0,0-1.879,19.382c-.34,12.631.708,25.563,2.386,41.092a316.281,316.281,0,0,1,2.094,41.8,158.533,158.533,0,0,1-7.094,45.451c-2.18,6.757-4.83,13.159-7.169,18.807-2.063,4.99-4.011,9.7-5.659,14.519-2.861,8.416-3.955,15.1-3.546,21.663.976,15.674,11.347,24.282,17.442,28.017a43.3,43.3,0,0,0,5.2,2.718,115.25,115.25,0,0,0,11.959,4.232l.021.007c7.89,2.472,16.049,5.029,22.723,10.806a70.941,70.941,0,0,1,9.08,10.265l.007.008a69.161,69.161,0,0,0,8.759,9.916,30.56,30.56,0,0,0,9.9,5.781A36.18,36.18,0,0,0,284.59,515.349Z" transform="translate(126.71 139.042)" fill="#35008b"/>
    <path id="Path_341556" data-name="Path 341556" d="M391.5,136.813h0a47.088,47.088,0,0,1,17.782,3.252c14.876,5.969,26.355,20.422,34.119,42.958a183.376,183.376,0,0,1,7.212,29.325c1.406,8.423,2.431,17.38,3.046,26.623.937,14.04,1.518,32.553-2.335,51.252a257.866,257.866,0,0,1-7.063,25.305l-.083.264c-1.056,3.341-2.147,6.8-3.165,10.209-5.436,18.268-8.021,35.977-10.521,53.1l0,.021c-3.964,27.145-7.708,52.784-22.3,76.12A113.074,113.074,0,0,1,389.649,477.7c-19.942,18.848-43.479,28.828-62.391,36.847l-.022.009c-9.567,4.055-20.793,8.506-31.511,10.776a67.771,67.771,0,0,1-13.908,1.585,40.519,40.519,0,0,1-14.48-2.471,33.182,33.182,0,0,1-11.523-7.455,75.211,75.211,0,0,1-8.681-11.131l-.02-.029a75.837,75.837,0,0,0-8.755-11.233c-6.456-6.358-14.64-9.541-22.555-12.619l-.021-.008A120.62,120.62,0,0,1,203.56,476.7a46.6,46.6,0,0,1-5.351-3.269C191.943,468.985,181.387,459,181.086,442c-.124-7.071,1.327-14.143,4.7-22.93,1.931-4.99,4.156-9.828,6.512-14.951,2.659-5.777,5.673-12.324,8.2-19.225,5.095-13.912,8.226-29.734,9.307-47.025a339.484,339.484,0,0,0-.258-43.943c-1.025-16.474-1.518-30.174-.59-43.489a138.258,138.258,0,0,1,2.837-20.4,95.635,95.635,0,0,1,6.256-19.074c.8-1.771,1.654-3.489,2.527-5.106,10.788-19.923,27.778-29.829,40.13-34.631,10.1-3.924,20.534-5.748,30.63-7.512,5.691-1,11.575-2.024,17.389-3.419,2.347-.564,4.8-1.22,7.3-1.948,8.228-2.405,16.68-5.564,24.853-8.619l.084-.031c7.75-2.9,15.763-5.895,23.534-8.224C374.959,138.338,383.793,136.813,391.5,136.813ZM281.817,525.921a66.776,66.776,0,0,0,13.7-1.564c10.635-2.253,21.8-6.683,31.328-10.719l.022-.009c18.838-7.988,42.283-17.929,62.095-36.653a112.09,112.09,0,0,0,18.38-22.26c14.482-23.159,18.211-48.7,22.16-75.735l0-.021c2.505-17.16,5.1-34.905,10.552-53.243,1.02-3.422,2.113-6.88,3.17-10.225l.084-.264a257.136,257.136,0,0,0,7.037-25.206c3.829-18.581,3.249-37.007,2.317-50.984-.613-9.21-1.634-18.135-3.035-26.525a182.374,182.374,0,0,0-7.171-29.164c-7.665-22.249-18.951-36.5-33.545-42.356a46.108,46.108,0,0,0-17.41-3.18h0c-7.611,0-16.35,1.511-26.716,4.619-7.739,2.32-15.737,5.31-23.471,8.2l-.084.031c-8.19,3.061-16.659,6.226-24.923,8.642-2.51.733-4.981,1.392-7.343,1.96-5.845,1.4-11.745,2.434-17.45,3.432-10.048,1.756-20.438,3.571-30.44,7.459-12.2,4.741-28.97,14.519-39.613,34.175-.862,1.6-1.7,3.293-2.5,5.043a94.646,94.646,0,0,0-6.19,18.876,137.273,137.273,0,0,0-2.815,20.256c-.924,13.26-.432,26.922.59,43.357a340.458,340.458,0,0,1,.258,44.069c-1.087,17.386-4.238,33.3-9.366,47.305-2.543,6.939-5.566,13.506-8.233,19.3-2.349,5.107-4.568,9.932-6.487,14.892-3.328,8.66-4.758,15.616-4.636,22.552.293,16.554,10.589,26.293,16.7,30.625a45.6,45.6,0,0,0,5.236,3.2,119.889,119.889,0,0,0,12.121,5.234l.021.008c8.009,3.115,16.29,6.336,22.894,12.839a76.572,76.572,0,0,1,8.878,11.38l.02.029a74.492,74.492,0,0,0,8.558,10.984,32.19,32.19,0,0,0,11.178,7.233A39.527,39.527,0,0,0,281.817,525.921Z" transform="translate(123.116 136.489)" fill="#35008b"/>
    <path id="Path_341557" data-name="Path 341557" d="M402.086,134.333h0a50.2,50.2,0,0,1,22.192,4.707c15.036,7.244,26.192,23.18,33.158,47.367a198.841,198.841,0,0,1,6.091,31.291c1.065,8.945,1.713,18.427,1.926,28.182.328,14.813.086,34.306-4.73,53.714a271.339,271.339,0,0,1-8.429,26.165l-.008.023c-1.262,3.5-2.566,7.125-3.8,10.746-6.43,18.859-9.9,37.312-13.248,55.156-5.311,28.269-10.327,54.97-26.412,78.548a115.046,115.046,0,0,1-20.107,22.393c-21.39,18.509-46.078,27.459-65.915,34.65l-.012,0c-10.036,3.637-21.8,7.583-32.931,9.266a72.963,72.963,0,0,1-10.83.867,51.122,51.122,0,0,1-8.984-.758,39.352,39.352,0,0,1-7.959-2.285,34.653,34.653,0,0,1-6.955-3.826,36.122,36.122,0,0,1-5.968-5.37,81.4,81.4,0,0,1-8.447-12.294,81.776,81.776,0,0,0-8.507-12.387c-6.365-7.114-14.652-11-22.666-14.754l-.013-.006a126.169,126.169,0,0,1-12.339-6.347,49.306,49.306,0,0,1-5.358-3.785c-6.244-5.072-16.649-16.249-16.187-34.122.193-7.435,2.007-14.77,5.88-23.783,2.2-5.082,4.7-10.016,7.356-15.239l.025-.05c3-5.893,6.4-12.571,9.32-19.672,5.877-14.293,9.819-30.723,11.716-48.833a364.338,364.338,0,0,0,1.731-46.214c-.307-17.385-.191-31.817,1.368-45.749a147,147,0,0,1,3.845-21.256,100.254,100.254,0,0,1,7.3-19.636c.9-1.795,1.853-3.544,2.832-5.2,12.012-20.234,29.952-29.534,42.887-33.774,10.557-3.46,21.387-4.7,31.861-5.89l.014,0c5.895-.672,11.99-1.366,18.057-2.456,2.485-.448,5.042-.976,7.6-1.57,8.564-1.985,17.389-4.745,25.923-7.415l.144-.045c8.109-2.539,16.493-5.164,24.6-7.1A103.612,103.612,0,0,1,402.086,134.333ZM279.03,536.413a71.962,71.962,0,0,0,10.68-.856c11.049-1.671,22.751-5.6,32.74-9.218l.012,0c19.76-7.163,44.351-16.078,65.6-34.466A114.064,114.064,0,0,0,408,469.669c15.967-23.4,20.964-50.006,26.255-78.169,3.359-17.879,6.832-36.368,13.285-55.295,1.239-3.629,2.546-7.255,3.809-10.762l.008-.023a270.6,270.6,0,0,0,8.4-26.067c4.788-19.293,5.027-38.7,4.7-53.451-.213-9.723-.859-19.172-1.92-28.086a197.842,197.842,0,0,0-6.059-31.133c-6.884-23.9-17.862-39.627-32.63-46.742a49.227,49.227,0,0,0-21.759-4.608h0a102.636,102.636,0,0,0-23.74,3.23c-8.076,1.931-16.444,4.552-24.537,7.086l-.144.045c-8.552,2.675-17.4,5.441-26,7.434-2.574.6-5.147,1.129-7.649,1.58-6.1,1.1-12.211,1.792-18.121,2.465l-.014,0c-10.424,1.189-21.2,2.419-31.662,5.847-12.772,4.186-30.485,13.367-42.338,33.333-.967,1.636-1.909,3.365-2.8,5.139a99.265,99.265,0,0,0-7.231,19.442,146,146,0,0,0-3.819,21.113c-1.553,13.878-1.668,28.274-1.362,45.62a365.314,365.314,0,0,1-1.736,46.337c-1.907,18.2-5.873,34.725-11.786,49.107-2.939,7.138-6.347,13.836-9.353,19.745l-.025.05c-2.646,5.209-5.145,10.13-7.33,15.182-3.821,8.89-5.609,16.111-5.8,23.413-.451,17.445,9.716,28.364,15.817,33.319a48.282,48.282,0,0,0,5.249,3.708,125.407,125.407,0,0,0,12.242,6.3l.013.006c8.1,3.8,16.486,7.726,22.987,14.992a82.509,82.509,0,0,1,8.619,12.538,80.669,80.669,0,0,0,8.336,12.143,35.12,35.12,0,0,0,5.8,5.222,33.647,33.647,0,0,0,6.754,3.716,38.344,38.344,0,0,0,7.757,2.226A50.118,50.118,0,0,0,279.03,536.413Z" transform="translate(119.423 134.024)" fill="#35008b"/>
    <path id="Path_341558" data-name="Path 341558" d="M412.492,131.942h0a62.757,62.757,0,0,1,14.8,1.623,47.848,47.848,0,0,1,12.561,4.922c15.142,8.594,25.9,26.068,31.967,51.937a215.36,215.36,0,0,1,4.849,33.286c.69,9.471.927,19.479.7,29.747-.336,15.6-1.471,36.07-7.307,56.146a284.093,284.093,0,0,1-9.853,26.919l-.025.061c-1.461,3.609-2.972,7.342-4.4,11.04-7.469,19.386-11.874,38.541-16.133,57.066l-.012.052c-6.751,29.365-13.127,57.1-30.754,80.831a116.729,116.729,0,0,1-21.716,22.22c-22.863,18.059-48.689,25.851-69.441,32.112l-.005,0c-10.495,3.167-22.779,6.544-34.323,7.585-2.434.219-4.811.331-7.065.331a58.226,58.226,0,0,1-10.616-.922,42.841,42.841,0,0,1-9.236-2.784,36.7,36.7,0,0,1-7.887-4.669,38.388,38.388,0,0,1-6.563-6.562c-3.119-3.949-5.666-8.784-8.129-13.46l-.005-.01c-2.473-4.7-5.03-9.562-8.2-13.585-6.231-7.9-14.582-12.521-22.658-16.992l-.036-.02a132.318,132.318,0,0,1-12.407-7.475,52.331,52.331,0,0,1-5.341-4.328c-6.193-5.736-16.389-18.156-15.1-36.894.535-7.8,2.734-15.386,7.131-24.605,2.5-5.2,5.3-10.23,8.274-15.554l.019-.034c3.349-5.987,7.145-12.773,10.488-20.072,6.7-14.643,11.507-31.658,14.284-50.572a390.217,390.217,0,0,0,3.879-48.47c.473-18.292,1.247-33.454,3.484-48a155.789,155.789,0,0,1,4.923-22.088,104.722,104.722,0,0,1,8.41-20.159c1.007-1.824,2.068-3.6,3.152-5.28C247.49,164.8,266.381,156.2,279.89,152.6c11.035-2.95,22.243-3.539,33.083-4.108l.042,0c6.1-.322,12.4-.655,18.661-1.4,2.56-.3,5.216-.692,7.895-1.153,8.965-1.535,18.222-3.874,27.175-6.136l.119-.03c8.432-2.128,17.151-4.328,25.534-5.826A114.145,114.145,0,0,1,412.492,131.942ZM276.341,546.821c2.224,0,4.571-.11,6.975-.327,11.454-1.032,23.677-4.394,34.124-7.546l.005,0c20.671-6.237,46.4-14,69.11-31.94a115.739,115.739,0,0,0,21.533-22.031c17.5-23.562,23.855-51.2,30.582-80.459l.012-.052c4.267-18.559,8.68-37.749,16.175-57.2,1.43-3.707,2.943-7.443,4.405-11.056l.025-.061a283.363,283.363,0,0,0,9.82-26.823c5.8-19.964,6.933-40.355,7.268-55.888.222-10.237-.014-20.213-.7-29.652a214.363,214.363,0,0,0-4.826-33.13c-6-25.587-16.6-42.846-31.487-51.3a46.859,46.859,0,0,0-12.3-4.82,61.77,61.77,0,0,0-14.566-1.6h0a113.158,113.158,0,0,0-19.919,1.986c-8.349,1.491-17.051,3.687-25.466,5.811l-.119.03c-8.971,2.266-18.248,4.609-27.251,6.152-2.695.464-5.368.854-7.946,1.16-6.291.748-12.613,1.082-18.726,1.4l-.042,0c-10.788.567-21.943,1.153-32.877,4.075-13.339,3.563-31.992,12.053-45.1,32.269-1.072,1.659-2.121,3.416-3.116,5.22A103.74,103.74,0,0,0,223.6,211.02a154.8,154.8,0,0,0-4.891,21.948c-2.23,14.49-3,29.616-3.473,47.87a391.176,391.176,0,0,1-3.89,48.591c-2.79,19.006-7.622,36.112-14.363,50.841-3.36,7.336-7.166,14.14-10.524,20.143l-.019.033c-2.964,5.31-5.763,10.325-8.245,15.5-4.34,9.1-6.509,16.576-7.035,24.242-1.259,18.322,8.721,30.477,14.782,36.091a51.325,51.325,0,0,0,5.239,4.245,131.589,131.589,0,0,0,12.314,7.417l.036.02c8.163,4.519,16.6,9.193,22.959,17.248,3.227,4.1,5.806,9,8.3,13.738l.005.01c2.442,4.636,4.968,9.43,8.029,13.307a37.387,37.387,0,0,0,6.391,6.392,35.7,35.7,0,0,0,7.672,4.542,41.841,41.841,0,0,0,9.021,2.718A57.22,57.22,0,0,0,276.341,546.821Z" transform="translate(115.639 131.647)" fill="#35008b"/>
    <path id="Path_341559" data-name="Path 341559" d="M422.4,129.632a72.041,72.041,0,0,1,18.548,2.177,50.346,50.346,0,0,1,15.047,6.668c15.19,10.019,25.464,29.083,30.537,56.663a232.8,232.8,0,0,1,3.48,35.3c.28,10,.07,20.534-.625,31.313-1.054,16.369-3.151,37.815-10.071,58.532a297.016,297.016,0,0,1-11.355,27.628l-.075.165c-1.656,3.672-3.368,7.47-4.995,11.238-8.582,19.917-13.987,39.779-19.215,58.987-8.287,30.431-16.112,59.171-35.329,82.948a118.068,118.068,0,0,1-23.365,21.936c-24.36,17.488-51.3,23.987-72.954,29.21-10.949,2.641-23.75,5.387-35.681,5.727-.82.023-1.64.035-2.439.035a67.317,67.317,0,0,1-12.587-1.112,47.148,47.148,0,0,1-10.746-3.365,39.061,39.061,0,0,1-8.948-5.653,40.914,40.914,0,0,1-7.187-7.956c-3.033-4.357-5.435-9.607-7.758-14.685-2.334-5.106-4.747-10.386-7.831-14.824-6.059-8.713-14.448-14.122-22.561-19.354l-.032-.021a138.866,138.866,0,0,1-12.438-8.672,55.368,55.368,0,0,1-5.3-4.895c-6.11-6.43-16.034-20.143-13.861-39.74.9-8.16,3.513-15.991,8.456-25.39,2.822-5.333,5.942-10.437,9.245-15.84,3.725-6.085,7.947-12.982,11.71-20.414,7.565-14.957,13.285-32.531,17-52.233a416.418,416.418,0,0,0,6.2-50.7c.49-7.136,1.178-16.5,2.163-25.656.991-9.207,2.169-17.242,3.6-24.565a164.6,164.6,0,0,1,6.071-22.893,109.036,109.036,0,0,1,9.572-20.637c1.116-1.846,2.288-3.644,3.484-5.343,14.6-20.66,34.442-28.465,48.514-31.374,9.342-1.932,18.556-2.2,27.122-2.2,2.37,0,4.759.023,7.068.045h.055c2.366.024,4.813.049,7.3.049,4.7,0,8.522-.094,12.018-.3,2.636-.152,5.389-.386,8.181-.7,9.275-1.025,18.9-2.874,28.211-4.661l.045-.008c8.816-1.695,17.933-3.447,26.674-4.478A127.7,127.7,0,0,1,422.4,129.632ZM273.9,557.159c.789,0,1.6-.012,2.411-.035,11.839-.337,24.576-3.07,35.473-5.7,21.567-5.2,48.406-11.676,72.607-29.05a117.081,117.081,0,0,0,23.17-21.752c19.085-23.614,26.884-52.255,35.141-82.578,5.238-19.246,10.653-39.143,19.263-59.125,1.63-3.775,3.344-7.577,5-11.253l.074-.165a296.26,296.26,0,0,0,11.318-27.533c6.883-20.608,8.971-41.971,10.022-58.28.693-10.748.9-21.252.624-31.221a231.8,231.8,0,0,0-3.464-35.148c-5.022-27.3-15.15-46.145-30.1-56.008-9.008-5.922-19.509-8.68-33.045-8.68a126.7,126.7,0,0,0-14.932.956c-8.706,1.027-17.8,2.776-26.6,4.467l-.045.009c-9.329,1.792-18.975,3.644-28.29,4.673-2.809.311-5.58.547-8.233.7-3.516.2-7.353.3-12.075.3-2.492,0-4.941-.025-7.309-.049h-.055c-2.307-.022-4.693-.045-7.059-.045-8.513,0-17.666.264-26.92,2.177-13.9,2.873-33.486,10.578-47.9,30.971-1.183,1.68-2.342,3.458-3.445,5.284a108.05,108.05,0,0,0-9.484,20.45,163.628,163.628,0,0,0-6.033,22.755c-1.428,7.294-2.6,15.3-3.59,24.48-.983,9.138-1.671,18.49-2.16,25.617a417.371,417.371,0,0,1-6.212,50.819c-3.734,19.793-9.484,37.456-17.092,52.5-3.781,7.467-8.014,14.383-11.749,20.484-3.295,5.389-6.407,10.48-9.214,15.785-4.882,9.282-7.456,17-8.347,25.033-2.129,19.194,7.6,32.636,13.592,38.94a54.362,54.362,0,0,0,5.2,4.807,138.11,138.11,0,0,0,12.351,8.609l.032.021c8.195,5.284,16.668,10.748,22.84,19.623,3.135,4.512,5.567,9.833,7.919,14.979,2.3,5.037,4.687,10.246,7.669,14.53C243.5,551.383,256.144,557.159,273.9,557.159Z" transform="translate(111.774 129.351)" fill="#35008b"/>
    <path id="Path_341560" data-name="Path 341560" d="M431.292,127.379a85.333,85.333,0,0,1,23.387,2.851,53.326,53.326,0,0,1,17.986,8.859c15.176,11.521,24.882,32.224,28.851,61.536a251.144,251.144,0,0,1,1.98,37.33c-.166,10.529-.861,21.588-2.066,32.871-1.829,17.14-4.963,39.548-13.024,60.863-3.681,9.727-8.388,19.165-12.941,28.293l-.129.259c-1.857,3.723-3.778,7.573-5.609,11.4-9.738,20.371-16.207,40.9-22.463,60.752-9.91,31.439-19.27,61.134-40.134,84.875A119.13,119.13,0,0,1,382.078,538.8c-25.868,16.784-53.9,21.853-76.417,25.926l-.016,0c-10.22,1.849-22.209,3.739-33.641,3.739-1.137,0-2.265-.019-3.352-.057-19.978-.69-33.817-7.789-42.307-21.7-2.924-4.778-5.158-10.452-7.318-15.94-2.172-5.522-4.417-11.232-7.39-16.1-5.847-9.561-14.238-15.8-22.353-21.827l-.038-.028a148.752,148.752,0,0,1-12.408-9.928,59.641,59.641,0,0,1-5.23-5.489c-5.994-7.155-15.582-22.209-12.457-42.65,1.3-8.513,4.341-16.571,9.856-26.126,3.131-5.4,6.575-10.559,10.222-16.025l.014-.021c4.108-6.147,8.764-13.114,12.982-20.693,8.467-15.224,15.155-33.324,19.88-53.8a443.751,443.751,0,0,0,8.681-52.9c.828-7.469,1.962-17.268,3.392-26.826,1.438-9.612,3.016-17.981,4.824-25.584a173.363,173.363,0,0,1,7.288-23.664,113.152,113.152,0,0,1,10.79-21.063c1.233-1.87,2.521-3.683,3.828-5.389,15.974-20.76,36.752-27.665,51.37-29.8A103.939,103.939,0,0,1,317.4,131.85c6.846,0,13.65.5,20.231.988,6.489.478,13.2.972,19.9,1,2.729.012,5.578-.054,8.454-.195,9.575-.47,19.548-1.779,29.193-3.045l.109-.014c9.133-1.2,18.577-2.447,27.666-2.961C425.845,127.463,428.65,127.379,431.292,127.379ZM272,567.465c11.353,0,23.286-1.882,33.463-3.723l.016,0c22.433-4.057,50.351-9.106,76.051-25.781a118.147,118.147,0,0,0,24.844-21.35c20.725-23.582,30.054-53.18,39.931-84.515,6.266-19.885,12.746-40.448,22.515-60.882,1.835-3.835,3.757-7.688,5.616-11.415l.129-.259c4.542-9.106,9.238-18.521,12.9-28.2,8.021-21.208,11.142-43.534,12.965-60.615,1.2-11.253,1.9-22.282,2.06-32.78a250.145,250.145,0,0,0-1.971-37.18c-3.932-29.039-13.509-49.52-28.464-60.873a52.342,52.342,0,0,0-17.654-8.694,84.359,84.359,0,0,0-23.114-2.813c-2.623,0-5.409.083-8.282.246-9.052.512-18.477,1.753-27.592,2.954l-.109.014c-9.664,1.269-19.658,2.58-29.274,3.052-2.894.142-5.759.207-8.507.2-6.737-.032-13.464-.527-19.97-1.006-6.563-.484-13.348-.985-20.157-.985a102.964,102.964,0,0,0-14.977,1c-14.435,2.11-34.953,8.927-50.722,29.421-1.292,1.687-2.567,3.48-3.786,5.33a112.164,112.164,0,0,0-10.694,20.879,172.375,172.375,0,0,0-7.245,23.529c-1.8,7.575-3.374,15.916-4.808,25.5-1.427,9.542-2.56,19.329-3.387,26.789a444.726,444.726,0,0,1-8.7,53.011c-4.745,20.564-11.467,38.753-19.98,54.059-4.238,7.615-8.906,14.6-13.024,20.762l-.014.021c-3.638,5.452-7.074,10.6-10.189,15.97-5.449,9.442-8.451,17.392-9.733,25.776-3.066,20.053,6.349,34.832,12.234,41.856a58.631,58.631,0,0,0,5.142,5.4,148,148,0,0,0,12.326,9.861l.038.028c8.191,6.087,16.661,12.381,22.61,22.108,3.019,4.943,5.28,10.694,7.467,16.255,2.144,5.447,4.361,11.08,7.24,15.784,8.3,13.6,21.872,20.547,41.488,21.225C269.763,567.446,270.879,567.465,272,567.465Z" transform="translate(107.835 127.112)" fill="#35008b"/>
    <path id="Path_341561" data-name="Path 341561" d="M322.663,123.773h0c9.66,0,19.219,1.331,28.462,2.618,6.649.927,13.524,1.885,20.442,2.361,2.835.19,5.767.306,8.713.346.787.011,1.6.016,2.414.016,9.2,0,18.7-.668,27.891-1.315,9.1-.64,18.513-1.3,27.609-1.3l1.007,0c22.946.126,38.566,4.845,50.647,15.3,15.093,13.1,24.141,35.485,26.9,66.546a270.332,270.332,0,0,1,.343,39.364c-.648,11.056-1.866,22.635-3.619,34.415-2.662,17.9-6.9,41.246-16.17,63.12-4.236,10-9.519,19.621-14.628,28.928l-.115.209c-2.085,3.8-4.241,7.727-6.3,11.635-10.948,20.775-18.542,41.933-25.885,62.394-11.627,32.4-22.61,63-45.169,86.589a119.994,119.994,0,0,1-26.765,20.99c-27.388,15.947-56.47,19.442-79.839,22.25l-.029,0a233.829,233.829,0,0,1-27.2,1.958c-3.92,0-7.637-.171-11.046-.509-20.528-2.034-34.447-10.4-42.551-25.568-2.788-5.2-4.83-11.314-6.8-17.223-1.99-5.959-4.046-12.116-6.883-17.419-5.59-10.447-13.954-17.555-22.043-24.429l-.023-.02a158.8,158.8,0,0,1-12.322-11.249,63.723,63.723,0,0,1-5.133-6.111c-5.842-7.907-15.022-24.346-10.88-45.615,1.727-8.863,5.222-17.132,11.331-26.811,3.485-5.494,7.265-10.691,11.266-16.194,4.507-6.192,9.616-13.21,14.306-20.905,9.409-15.451,17.117-34.043,22.91-55.257a470.9,470.9,0,0,0,11.34-55.038c1.192-7.8,2.8-18.022,4.709-27.977,1.916-10.009,3.921-18.7,6.127-26.575a181.974,181.974,0,0,1,8.576-24.4,117.036,117.036,0,0,1,12.063-21.431c1.366-1.9,2.774-3.716,4.187-5.412,17.384-20.776,39.09-26.674,54.238-27.965C317.263,123.882,319.932,123.773,322.663,123.773Zm60.034,6.342c-.82,0-1.636-.005-2.427-.016-2.964-.04-5.914-.157-8.768-.348-6.954-.479-13.847-1.44-20.513-2.369-9.21-1.283-18.734-2.609-28.324-2.609h0c-2.7,0-5.343.108-7.846.321-14.959,1.274-36.393,7.1-53.556,27.609-1.4,1.677-2.791,3.479-4.143,5.355a116.054,116.054,0,0,0-11.959,21.25,180.98,180.98,0,0,0-8.529,24.262c-2.2,7.846-4.2,16.512-6.108,26.493-1.9,9.938-3.513,20.152-4.7,27.94a471.858,471.858,0,0,1-11.364,55.152c-5.817,21.3-13.563,39.98-23.02,55.512-4.712,7.73-9.833,14.766-14.351,20.973-3.992,5.49-7.762,10.675-11.23,16.141-6.039,9.568-9.492,17.731-11.194,26.468-4.069,20.893,4.959,37.055,10.7,44.829a62.724,62.724,0,0,0,5.052,6.015,158.049,158.049,0,0,0,12.246,11.177l.023.02c8.16,6.935,16.6,14.105,22.277,24.719,2.877,5.377,4.947,11.575,6.949,17.569,1.963,5.874,3.991,11.943,6.739,17.073,7.935,14.854,21.6,23.046,41.767,25.044,3.376.334,7.06.5,10.947.5a232.924,232.924,0,0,0,27.085-1.951l.029,0c23.277-2.8,52.246-6.278,79.455-22.121a119.007,119.007,0,0,0,26.546-20.817c22.413-23.436,33.36-53.94,44.951-86.235,7.355-20.494,14.961-41.685,25.942-62.522,2.066-3.916,4.224-7.847,6.311-11.65l.115-.209c5.1-9.286,10.367-18.888,14.584-28.837,9.221-21.77,13.449-45.038,16.1-62.877,1.749-11.751,2.963-23.3,3.61-34.326a269.338,269.338,0,0,0-.341-39.217c-2.73-30.793-11.665-52.958-26.554-65.878-11.887-10.287-27.307-14.931-50-15.056l-1,0c-9.061,0-18.455.661-27.539,1.3C401.451,129.445,391.93,130.115,382.7,130.115Z" transform="translate(103.832 123.527)" fill="#35008b"/>
    <path id="Path_341562" data-name="Path 341562" d="M330.069,117.7c12.074,0,23.9,2.448,35.335,4.815l.074.015c6.792,1.406,13.816,2.859,20.874,3.8,2.878.384,5.89.7,8.953.936,7.686.6,15.512.671,21.472.671,3.265,0,6.561-.027,9.749-.052h.041c3.176-.026,6.46-.053,9.73-.053,8.127,0,14.231.172,19.79.558,23.609,1.636,39.473,7.616,51.436,19.391,14.935,14.748,23.229,38.867,24.654,71.688a290.359,290.359,0,0,1-1.433,41.4c-1.169,11.577-2.948,23.668-5.286,35.938-3.555,18.64-8.986,42.906-19.514,65.283-4.812,10.228-10.686,20-16.366,29.443l-.034.057c-2.562,4.256-4.865,8.1-7.114,11.981-12.2,21.1-20.973,42.815-29.454,63.819l-.031.077c-13.444,33.3-26.143,64.744-50.43,88.057A120.531,120.531,0,0,1,374,575.835c-28.925,14.972-59.026,16.741-83.213,18.163h-.021c-4.7.276-10.931.592-17.486.592a134.672,134.672,0,0,1-21.958-1.573c-21.036-3.481-34.979-13.178-42.626-29.644-2.628-5.642-4.451-12.185-6.214-18.513l-.009-.034c-1.771-6.38-3.6-12.976-6.293-18.765-5.286-11.352-13.577-19.376-21.6-27.136l-.024-.024a168.637,168.637,0,0,1-12.171-12.626,68.451,68.451,0,0,1-5-6.754c-5.653-8.685-14.356-26.551-9.126-48.631,2.18-9.2,6.151-17.663,12.878-27.434,3.811-5.512,7.933-10.724,12.3-16.241l.037-.046c4.926-6.219,10.509-13.268,15.679-21.037,10.388-15.626,19.169-34.667,26.1-56.593a498.086,498.086,0,0,0,14.174-57.115c1.581-8.117,3.7-18.761,6.119-29.1,2.427-10.4,4.885-19.4,7.514-27.532A190.391,190.391,0,0,1,253,170.714a120.656,120.656,0,0,1,13.39-21.735c1.464-1.875,3-3.7,4.554-5.415,18.843-20.7,41.456-25.482,57.108-25.845C328.713,117.7,329.393,117.7,330.069,117.7Zm86.707,11.243c-5.977,0-13.828-.077-21.549-.674-3.081-.239-6.112-.556-9.008-.942-7.093-.951-14.134-2.408-20.944-3.817l-.074-.015c-11.386-2.357-23.16-4.794-35.132-4.794-.668,0-1.341.008-2,.023-15.457.359-37.787,5.077-56.391,25.517-1.541,1.7-3.057,3.5-4.506,5.359a119.668,119.668,0,0,0-13.279,21.558A189.4,189.4,0,0,0,244.01,196.1c-2.621,8.1-5.071,17.084-7.492,27.452-2.41,10.323-4.532,20.954-6.111,29.063a499.03,499.03,0,0,1-14.2,57.227c-6.957,22.014-15.778,41.139-26.219,56.844-5.193,7.8-10.79,14.87-15.728,21.1l-.036.046c-4.353,5.5-8.465,10.7-12.258,16.189-6.652,9.663-10.578,18.021-12.728,27.1-5.145,21.718,3.425,39.3,8.991,47.855a67.464,67.464,0,0,0,4.928,6.656,167.905,167.905,0,0,0,12.1,12.551l.025.024c8.083,7.823,16.442,15.912,21.807,27.432,2.725,5.864,4.568,12.5,6.35,18.919l.009.034c1.752,6.289,3.563,12.792,6.157,18.359,7.5,16.145,21.2,25.657,41.883,29.08a133.7,133.7,0,0,0,21.795,1.56c6.529,0,12.743-.316,17.427-.59h.021c24.093-1.416,54.077-3.179,82.813-18.053A119.544,119.544,0,0,0,401.82,554.8c24.132-23.165,36.792-54.517,50.2-87.71l.031-.077c8.494-21.036,17.277-42.788,29.516-63.945,2.253-3.892,4.559-7.735,7.123-12l.034-.056c5.667-9.426,11.528-19.172,16.318-29.354,10.481-22.276,15.893-46.462,19.436-65.045,7.83-41.077,15.947-114.942-17.654-148.123-11.78-11.595-27.448-17.487-50.8-19.1-5.535-.385-11.618-.556-19.721-.556-3.265,0-6.548.027-9.722.053h-.041C423.344,128.912,420.046,128.939,416.777,128.939Z" transform="translate(99.775 117.486)" fill="#35008b"/>
    <path id="Path_341563" data-name="Path 341563" d="M338.778,111.429h0c1.149,0,2.315.023,3.466.069,13.153.52,25.886,4.053,38.2,7.47l.049.014c6.926,1.923,14.087,3.911,21.384,5.382,2.949.594,6.036,1.124,9.176,1.574,10.448,1.491,21.452,2.1,32.093,2.692l.064,0c10.077.557,20.5,1.132,30.366,2.462,24.231,3.266,40.287,10.589,52.06,23.745,14.7,16.472,22.14,42.359,22.117,76.942A310.911,310.911,0,0,1,544.4,275.2c-1.729,12.093-4.109,24.685-7.074,37.427-4.5,19.353-11.19,44.5-23.051,67.345-5.412,10.426-11.9,20.3-18.167,29.85l-.146.223c-2.569,3.912-5.225,7.956-7.78,11.992-13.532,21.4-23.555,43.675-33.248,65.22l-.009.02c-15.35,34.116-29.848,66.341-55.914,89.258a120.933,120.933,0,0,1-30.273,19.485,146.466,146.466,0,0,1-41.723,11.6,287.164,287.164,0,0,1-38.556,2.06c-2.118,0-4.212-.008-6.238-.015-12.634-.048-27.333-.515-40.561-3.613-21.49-5.033-35.4-16.132-42.519-33.932-2.451-6.107-4.031-13.109-5.559-19.881l0-.017c-1.535-6.826-3.123-13.884-5.631-20.143-4.924-12.279-13.092-21.255-20.991-29.935l-.038-.042a182.422,182.422,0,0,1-11.956-14.065,74.922,74.922,0,0,1-4.841-7.425c-5.42-9.5-13.56-28.845-7.181-51.688,2.66-9.526,7.133-18.158,14.5-27.99,4.2-5.585,8.689-10.8,13.437-16.311,5.354-6.216,11.421-13.262,17.1-21.09,11.409-15.756,21.314-35.2,29.439-57.785,6.243-17.181,11.7-35.964,17.187-59.114,2-8.431,4.667-19.481,7.621-30.187,2.971-10.769,5.91-20.074,8.985-28.448a198.567,198.567,0,0,1,11.366-25.711,123.991,123.991,0,0,1,14.77-21.969c1.614-1.9,3.275-3.713,4.935-5.393a78.183,78.183,0,0,1,29.379-18.91A80.459,80.459,0,0,1,338.778,111.429Zm-50.32,497.249a286.261,286.261,0,0,0,38.423-2.051,145.486,145.486,0,0,0,41.442-11.52,119.948,119.948,0,0,0,30.026-19.326c25.9-22.774,40.358-54.9,55.662-88.917l.009-.02c9.707-21.576,19.745-43.887,33.315-65.344,2.559-4.043,5.218-8.092,7.789-12.007l.146-.222c6.257-9.528,12.727-19.381,18.116-29.761,11.809-22.748,18.476-47.814,22.964-67.111,2.958-12.714,5.333-25.277,7.058-37.341a309.919,309.919,0,0,0,3.345-43.276c.023-34.33-7.332-59.992-21.863-76.275-11.6-12.966-27.469-20.189-51.448-23.42-9.831-1.325-20.23-1.9-30.288-2.455l-.064,0c-10.662-.591-21.687-1.2-32.179-2.7-3.159-.453-6.265-.986-9.232-1.584-7.332-1.477-14.511-3.471-21.453-5.4l-.049-.014c-12.259-3.4-24.935-6.919-37.972-7.434-1.138-.046-2.291-.069-3.427-.069a79.459,79.459,0,0,0-26.785,4.527,77.193,77.193,0,0,0-29,18.671c-1.642,1.663-3.286,3.459-4.884,5.338a123.017,123.017,0,0,0-14.651,21.795,197.591,197.591,0,0,0-11.309,25.582c-3.066,8.348-6,17.628-8.96,28.369-2.949,10.691-5.617,21.729-7.612,30.152-5.492,23.188-10.964,42.007-17.22,59.223-8.157,22.674-18.106,42.2-29.57,58.032-5.7,7.862-11.783,14.924-17.149,21.155-4.737,5.5-9.211,10.7-13.4,16.259-7.291,9.727-11.714,18.257-14.339,27.658-6.281,22.494,1.744,41.56,7.086,50.923a73.926,73.926,0,0,0,4.776,7.326,181.67,181.67,0,0,0,11.892,13.987l.038.042c7.959,8.746,16.188,17.789,21.179,30.236,2.538,6.334,4.135,13.431,5.679,20.3l0,.017c1.519,6.733,3.09,13.7,5.511,19.729,6.991,17.475,20.67,28.377,41.819,33.33,13.131,3.075,27.759,3.538,40.337,3.586C284.249,608.671,286.342,608.679,288.458,608.679Z" transform="translate(95.674 111.258)" fill="#35008b"/>
    <path id="Path_341564" data-name="Path 341564" d="M348.3,104.994h0a87.306,87.306,0,0,1,9.033.474c13.535,1.412,26.5,5.966,39.036,10.37l.072.025c7.045,2.473,14.33,5.03,21.7,7.035,3.023.82,6.178,1.578,9.377,2.252,10.7,2.257,22.017,3.62,32.96,4.937l.033,0c10.35,1.245,21.053,2.532,31.139,4.577,24.792,5.016,40.986,13.762,52.505,28.355,14.379,18.27,20.862,45.96,19.268,82.3A332.044,332.044,0,0,1,558,290.741c-2.329,12.6-5.352,25.679-8.983,38.878-5.514,20.05-13.543,46.043-26.786,69.277-6.062,10.629-13.2,20.608-20.112,30.258l-.181.252c-2.8,3.911-5.691,7.955-8.482,12-14.9,21.6-26.221,44.347-37.174,66.348l-.027.054c-17.349,34.856-33.736,67.779-61.614,90.166a121.02,121.02,0,0,1-32.05,18.5,133.879,133.879,0,0,1-15.166,4.919,148.368,148.368,0,0,1-15.015,3.067,191.639,191.639,0,0,1-28.972,2.021c-10.821,0-21.295-.7-30.535-1.327-13-.876-28.111-2.327-41.6-6.452C209.428,612,195.621,599.435,189.1,580.271c-2.243-6.568-3.55-14.022-4.813-21.23l-.008-.047c-1.272-7.279-2.587-14.806-4.884-21.548-4.518-13.246-12.528-23.224-20.274-32.873l-.022-.028c-3.97-4.942-8.075-10.053-11.668-15.565a80.957,80.957,0,0,1-4.645-8.117c-5.147-10.333-12.645-31.189-5.042-54.775,3.168-9.835,8.164-18.615,16.2-28.467,4.564-5.572,9.427-10.767,14.574-16.267,5.8-6.186,12.366-13.2,18.558-21.05,12.459-15.81,23.54-35.6,32.934-58.82,7.2-17.639,13.679-37.027,20.38-61.017,2.437-8.73,5.688-20.169,9.216-31.232,3.547-11.124,7-20.713,10.542-29.314a206.407,206.407,0,0,1,12.868-26.28c2.437-4.137,5-8.057,7.621-11.653a116.414,116.414,0,0,1,8.581-10.473c1.758-1.9,3.549-3.695,5.326-5.346A77.387,77.387,0,0,1,348.3,104.994ZM303.443,625.477a190.652,190.652,0,0,0,28.822-2.01,147.322,147.322,0,0,0,14.913-3.046,132.855,132.855,0,0,0,15.052-4.882,120.038,120.038,0,0,0,31.789-18.349c27.707-22.25,44.046-55.077,61.345-89.832l.027-.054c10.969-22.032,22.311-44.814,37.246-66.471,2.8-4.049,5.692-8.1,8.492-12.011l.181-.253c6.892-9.629,14.019-19.587,20.056-30.171,13.188-23.137,21.191-49.053,26.69-69.047,12.163-44.212,27.728-124.532-4.682-165.71-11.362-14.394-27.374-23.028-51.918-27.994-10.047-2.037-20.729-3.322-31.06-4.565l-.033,0c-10.964-1.32-22.3-2.685-33.047-4.952-3.218-.679-6.392-1.441-9.433-2.266-7.4-2.014-14.707-4.577-21.769-7.056l-.072-.025c-12.482-4.385-25.389-8.919-38.808-10.319a86.308,86.308,0,0,0-8.929-.468A76.389,76.389,0,0,0,295.222,126.9c-1.757,1.634-3.532,3.415-5.272,5.293a115.415,115.415,0,0,0-8.507,10.383c-2.6,3.569-5.147,7.462-7.568,11.571A205.432,205.432,0,0,0,261.07,180.3c-3.536,8.576-6.975,18.139-10.513,29.236-3.523,11.048-6.77,22.476-9.205,31.2-6.712,24.028-13.2,43.451-20.417,61.125-9.43,23.307-20.558,43.179-33.075,59.063-6.219,7.886-12.8,14.914-18.614,21.115-5.136,5.488-9.987,10.671-14.53,16.216-7.951,9.751-12.891,18.43-16.02,28.141-7.494,23.249-.093,43.826,4.985,54.022a79.959,79.959,0,0,0,4.587,8.017c3.567,5.471,7.656,10.562,11.61,15.486l.022.028c7.8,9.717,15.866,19.764,20.441,33.176,2.322,6.816,3.644,14.382,4.923,21.7l.008.047c1.257,7.17,2.557,14.584,4.775,21.08,6.409,18.839,20,31.2,41.558,37.795,13.387,4.094,28.424,5.538,41.368,6.41C282.2,624.774,292.656,625.477,303.443,625.477Z" transform="translate(91.538 104.861)" fill="#35008b"/>
    <path id="Path_341565" data-name="Path 341565" d="M358.7,98.407h0a87.123,87.123,0,0,1,14.638,1.26c13.855,2.369,26.983,8,39.678,13.441l.036.016c7.156,3.07,14.556,6.245,22.094,8.846,3.064,1.057,6.278,2.06,9.552,2.982,10.936,3.08,22.525,5.252,33.732,7.352,10.6,1.988,21.568,4.044,31.862,6.852,25.291,6.895,41.56,17.144,52.751,33.231,13.968,20.139,19.382,49.662,16.092,87.75a353.6,353.6,0,0,1-7.646,47.38c-2.97,13.09-6.675,26.641-11.012,40.278-6.586,20.713-16.029,47.508-30.72,71.064-6.725,10.78-14.533,20.805-22.084,30.5l-.025.032c-3.113,4-6.333,8.13-9.442,12.266-16.33,21.747-29.031,44.94-41.314,67.369-19.447,35.505-37.816,69.041-67.525,90.743a121,121,0,0,1-33.836,17.349c-14.433,4.786-29.9,7.113-47.29,7.113-16.342,0-31.793-2.05-45.425-3.858l-.014,0c-13.343-1.772-28.83-4.286-42.525-9.5-22.218-8.467-35.856-22.577-41.7-43.136-2.012-7.055-3.019-14.983-3.994-22.65l0-.024c-.98-7.738-1.993-15.74-4.051-22.979-4.049-14.216-11.839-25.226-19.371-35.874l-.036-.051c-3.867-5.464-7.866-11.113-11.3-17.123a87.477,87.477,0,0,1-4.411-8.831c-4.828-11.191-11.6-33.592-2.7-57.883,3.71-10.13,9.251-19.03,17.965-28.857,4.948-5.554,10.189-10.7,15.737-16.138l.007-.007c6.246-6.122,13.325-13.06,20.062-20.914,13.547-15.805,25.854-35.884,36.58-59.678,8.217-18.072,15.764-38.03,23.753-62.811,2.906-9.017,6.771-20.829,10.905-32.227,4.157-11.461,8.142-21.314,12.183-30.122a213.808,213.808,0,0,1,14.44-26.78c2.7-4.189,5.514-8.142,8.375-11.749a118.4,118.4,0,0,1,9.31-10.446c1.888-1.873,3.814-3.647,5.725-5.27a79.565,79.565,0,0,1,26.272-14.974A77.832,77.832,0,0,1,358.7,98.407ZM308.244,643.233c17.279,0,32.645-2.31,46.976-7.063a120.015,120.015,0,0,0,33.561-17.207c29.529-21.57,47.846-55.011,67.238-90.416,12.3-22.46,25.019-45.685,41.392-67.489,3.115-4.144,6.337-8.28,9.453-12.28l.025-.032c7.535-9.675,15.327-19.679,22.025-30.415,14.632-23.461,24.047-50.18,30.615-70.837,14.531-45.686,34.2-129.112,2.7-174.535-11.047-15.881-27.144-26.008-52.193-32.837-10.255-2.8-21.2-4.85-31.783-6.834-11.229-2.1-22.84-4.28-33.819-7.372-3.293-.927-6.525-1.936-9.607-3-7.572-2.614-14.99-5.8-22.162-8.872l-.036-.016c-12.642-5.421-25.714-11.026-39.452-13.375a86.111,86.111,0,0,0-14.47-1.246h0a76.831,76.831,0,0,0-24.358,3.885A78.57,78.57,0,0,0,308.4,118.08c-1.891,1.607-3.8,3.362-5.668,5.218a117.4,117.4,0,0,0-9.23,10.358c-2.84,3.582-5.639,7.508-8.318,11.669a212.825,212.825,0,0,0-14.372,26.656c-4.03,8.784-8,18.612-12.152,30.047-4.128,11.383-7.99,23.184-10.894,32.193-8,24.818-15.561,44.81-23.793,62.916-10.765,23.88-23.123,44.039-36.732,59.916-6.765,7.887-13.86,14.841-20.121,20.977l-.007.006c-5.536,5.431-10.765,10.56-15.69,16.089-8.626,9.729-14.108,18.53-17.773,28.537-8.776,23.966-2.086,46.089,2.683,57.143a86.473,86.473,0,0,0,4.361,8.731c3.412,5.969,7.4,11.6,11.251,17.043l.036.051c7.581,10.717,15.421,21.8,19.517,36.178,2.078,7.312,3.1,15.352,4.081,23.127l0,.024c.97,7.63,1.973,15.519,3.964,22.5,5.747,20.235,19.187,34.128,41.089,42.475,13.6,5.181,29.014,7.683,42.3,9.447l.014,0C276.552,641.188,291.969,643.233,308.244,643.233Z" transform="translate(87.381 98.313)" fill="#35008b"/>
    <path id="Path_341566" data-name="Path 341566" d="M370.016,91.69a86.948,86.948,0,0,1,20.25,2.45c14.148,3.4,27.4,10.167,40.22,16.717l.051.026c7.228,3.7,14.7,7.518,22.347,10.748,3.086,1.3,6.349,2.568,9.7,3.76,11.087,3.943,22.9,6.982,34.332,9.921l.063.016c10.808,2.777,21.984,5.65,32.491,9.288,25.719,8.9,42,20.738,52.784,38.373,13.461,22.075,17.692,53.454,12.577,93.268a375.391,375.391,0,0,1-10.023,49.3c-3.652,13.565-8.082,27.567-13.166,41.617-7.72,21.341-18.658,48.888-34.851,72.687-7.407,10.884-15.9,20.9-24.1,30.6l-.163.192c-3.346,3.951-6.807,8.037-10.157,12.136-17.8,21.788-31.928,45.335-45.592,68.107l0,.006c-21.632,36.048-42.065,70.1-73.636,90.965a120.924,120.924,0,0,1-35.622,16.023,134.631,134.631,0,0,1-18.953,3.675,154.285,154.285,0,0,1-18.485,1.083c-21.173,0-40.831-3.937-58.174-7.41-13.65-2.732-29.474-6.386-43.345-12.774-22.479-10.348-35.874-26.064-40.949-48.046-1.748-7.538-2.425-15.929-3.08-24.043l0-.047c-.657-8.2-1.337-16.674-3.13-24.426-3.526-15.22-11.049-27.31-18.324-39l-.029-.047c-3.733-6-7.592-12.2-10.856-18.737a95.527,95.527,0,0,1-4.139-9.567c-4.459-12.079-10.407-36.064-.153-61,4.277-10.4,10.384-19.394,19.8-29.154,5.367-5.537,10.988-10.59,16.938-15.941,6.7-6.019,14.3-12.841,21.605-20.671,14.666-15.73,28.249-36.032,40.372-60.342,9.282-18.465,17.959-38.951,27.306-64.473,3.4-9.288,7.917-21.451,12.69-33.163,4.8-11.775,9.349-21.871,13.91-30.865a220.784,220.784,0,0,1,16.082-27.2c2.966-4.226,6.046-8.2,9.155-11.8a120.112,120.112,0,0,1,10.058-10.371c2.019-1.838,4.082-3.576,6.131-5.166A80.279,80.279,0,0,1,346.7,95.257,76.9,76.9,0,0,1,370.016,91.69ZM310.075,661.645a153.27,153.27,0,0,0,18.364-1.076,133.627,133.627,0,0,0,18.811-3.647,119.939,119.939,0,0,0,35.332-15.893c31.382-20.742,51.758-54.7,73.33-90.645l0-.006c13.682-22.8,27.83-46.381,45.675-68.226,3.356-4.106,6.819-8.2,10.168-12.15l.163-.192c8.192-9.671,16.663-19.671,24.041-30.512C552.093,415.592,563,388.12,570.7,366.834c17.037-47.08,41.081-133.5,10.7-183.324-10.656-17.423-26.773-29.127-52.257-37.949-10.468-3.625-21.624-6.492-32.412-9.264l-.063-.016c-11.449-2.944-23.289-5.989-34.418-9.947-3.368-1.2-6.649-2.471-9.753-3.781-7.678-3.245-15.169-7.075-22.413-10.779l-.051-.026c-12.766-6.523-25.966-13.267-40-16.635a85.948,85.948,0,0,0-20.017-2.422,75.9,75.9,0,0,0-23.011,3.52,79.284,79.284,0,0,0-24.452,12.981c-2.028,1.573-4.071,3.294-6.07,5.115a119.113,119.113,0,0,0-9.974,10.284c-3.087,3.579-6.147,7.523-9.094,11.722a219.8,219.8,0,0,0-16.008,27.081c-4.548,8.97-9.087,19.042-13.876,30.791-4.768,11.7-9.279,23.849-12.677,33.129-9.361,25.558-18.052,46.078-27.351,64.576-12.165,24.395-25.8,44.776-40.535,60.577-7.337,7.862-14.951,14.7-21.668,20.733-5.937,5.338-11.546,10.381-16.888,15.892-9.326,9.664-15.37,18.558-19.6,28.839-10.125,24.62-4.242,48.329.166,60.27a94.519,94.519,0,0,0,4.1,9.466c3.244,6.5,7.091,12.68,10.811,18.656l.029.047c7.319,11.761,14.886,23.922,18.449,39.3,1.81,7.824,2.493,16.338,3.153,24.571l0,.047c.652,8.078,1.326,16.431,3.057,23.9,5,21.661,18.213,37.153,40.393,47.363,13.777,6.345,29.53,9.981,43.123,12.7C269.395,657.718,289,661.645,310.075,661.645Z" transform="translate(83.213 91.637)" fill="#35008b"/>
    <path id="Path_341567" data-name="Path 341567" d="M382.257,84.867h0a86.853,86.853,0,0,1,25.857,4.065c14.415,4.5,27.755,12.485,40.656,20.211l.084.05c7.268,4.353,14.784,8.855,22.473,12.735,3.131,1.577,6.434,3.12,9.817,4.588,11.25,4.876,23.295,8.849,34.943,12.692l.017.006c11.014,3.632,22.4,7.389,33.025,11.889,26.069,11.04,42.287,24.542,52.585,43.779,12.852,24.078,15.781,57.332,8.709,98.839a397.309,397.309,0,0,1-12.556,51.165C593.5,358.9,588.3,373.333,582.43,387.768,573.511,409.7,561,437.939,543.252,461.891c-8.118,10.952-17.308,20.925-26.2,30.571l-.407.442c-3.552,3.857-7.226,7.846-10.788,11.853-19.316,21.742-34.932,45.572-50.035,68.617-23.905,36.475-46.484,70.927-79.938,90.8a120.72,120.72,0,0,1-37.4,14.51,138.594,138.594,0,0,1-28.5,2.883,191,191,0,0,1-36.968-3.915c-11.7-2.3-22.929-5.333-32.832-8.011l-.012,0c-13.929-3.767-30.054-8.645-44.039-16.263-22.664-12.346-35.735-29.735-39.959-53.16-1.457-8.04-1.773-16.905-2.078-25.478l0-.042c-.3-8.665-.619-17.624-2.113-25.887-2.941-16.242-10.141-29.449-17.1-42.221l-.022-.041c-3.568-6.54-7.258-13.3-10.325-20.4a103.476,103.476,0,0,1-3.824-10.324c-4.041-12.982-9.076-38.572,2.61-64.105,4.874-10.652,11.569-19.7,21.708-29.346,5.764-5.454,11.787-10.4,18.163-15.647,7.187-5.9,15.332-12.591,23.181-20.315,15.811-15.572,30.718-36.025,44.306-60.791,10.4-18.807,20.259-39.774,31.04-65.987,3.923-9.541,9.124-22.031,14.571-34.029,5.476-12.063,10.618-22.377,15.721-31.533a227.262,227.262,0,0,1,17.79-27.542,153.474,153.474,0,0,1,9.96-11.805,121.515,121.515,0,0,1,10.825-10.243c2.178-1.81,4.381-3.5,6.548-5.027A77.355,77.355,0,0,1,382.257,84.867Zm-72.269,595.7a137.59,137.59,0,0,0,28.3-2.862,119.737,119.737,0,0,0,37.1-14.391c33.255-19.753,55.772-54.112,79.612-90.487,15.122-23.075,30.759-46.936,50.124-68.733,3.568-4.014,7.244-8.006,10.8-11.866l.407-.442c8.869-9.626,18.041-19.58,26.127-30.489,17.68-23.862,30.159-52.03,39.055-73.9,19.679-48.38,48.359-137.661,19.334-192.039-10.183-19.021-26.249-32.385-52.093-43.33-10.585-4.484-21.954-8.234-32.948-11.86l-.017-.006c-11.669-3.85-23.736-7.83-35.027-12.724-3.4-1.475-6.721-3.027-9.869-4.612-7.723-3.9-15.254-8.407-22.537-12.77l-.084-.05c-12.851-7.7-26.139-15.654-40.44-20.114a85.855,85.855,0,0,0-25.56-4.02h0a76.368,76.368,0,0,0-44.55,14.4c-2.144,1.51-4.326,3.185-6.483,4.978A120.508,120.508,0,0,0,320.489,115.4a152.465,152.465,0,0,0-9.895,11.728,226.291,226.291,0,0,0-17.711,27.422c-5.09,9.132-10.22,19.422-15.684,31.46-5.44,11.984-10.637,24.463-14.556,34-10.8,26.249-20.674,47.25-31.089,66.089-13.635,24.849-28.6,45.38-44.481,61.021-7.881,7.755-16.045,14.46-23.247,20.375-6.363,5.23-12.373,10.171-18.11,15.6-10.041,9.55-16.668,18.506-21.487,29.037-11.548,25.23-6.564,50.546-2.565,63.392a102.492,102.492,0,0,0,3.787,10.225c3.049,7.057,6.728,13.8,10.285,20.32l.022.041c7,12.842,14.241,26.121,17.21,42.522,1.507,8.333,1.823,17.329,2.129,26.029v.042c.3,8.538.619,17.367,2.063,25.336,4.167,23.108,17.072,40.267,39.453,52.459,13.894,7.568,29.949,12.423,43.822,16.175l.012,0c9.887,2.674,21.093,5.7,32.764,7.995A190.019,190.019,0,0,0,309.989,680.566Z" transform="translate(79.047 84.854)" fill="#35008b"/>
    <path id="Path_341568" data-name="Path 341568" d="M395.451,77.959h0a86.956,86.956,0,0,1,31.454,6.125c14.647,5.674,28.031,14.955,40.974,23.931,7.291,5.058,14.829,10.288,22.606,14.89,3.174,1.876,6.5,3.715,9.9,5.465,11.345,5.855,23.543,10.812,35.34,15.606l.08.032c11.176,4.541,22.733,9.237,33.459,14.661,26.327,13.3,42.405,28.553,52.132,49.443,12.134,26.144,13.639,61.284,4.475,104.444a419.152,419.152,0,0,1-15.249,52.958c-5.141,14.451-11.145,29.277-17.846,44.066-10.174,22.463-24.334,51.328-43.7,75.349-8.865,10.995-18.79,20.888-28.388,30.455l-.183.182c-3.9,3.894-7.942,7.921-11.866,11.975-20.875,21.591-38.034,45.619-54.629,68.855-26.263,36.775-51.069,71.511-86.417,90.212a120.61,120.61,0,0,1-39.164,12.8,135.379,135.379,0,0,1-20.027,1.469c-13.419,0-27.509-1.879-43.074-5.745-13.545-3.364-26.374-7.775-37.693-11.666l-.005,0c-14.168-4.871-30.546-11.053-44.6-19.977-22.764-14.455-35.426-33.58-38.708-58.468-1.137-8.552-1.058-17.9-.983-26.941v-.015c.08-9.126.163-18.562-1-27.356-2.291-17.273-9.106-31.631-15.7-45.516l-.021-.044c-3.378-7.114-6.87-14.47-9.7-22.118a112.277,112.277,0,0,1-3.467-11.1c-3.571-13.9-7.591-41.119,5.6-67.191,5.5-10.878,12.806-19.953,23.679-29.423,6.217-5.389,12.625-10.183,19.41-15.259,7.673-5.738,16.37-12.242,24.789-19.839,16.984-15.335,33.26-35.86,48.373-61,11.559-19.089,22.665-40.484,34.954-67.334,4.472-9.772,10.394-22.561,16.546-34.816,6.185-12.321,11.947-22.827,17.616-32.117a233.184,233.184,0,0,1,19.564-27.785,155.989,155.989,0,0,1,10.789-11.757,122.613,122.613,0,0,1,11.609-10.058c2.3-1.747,4.65-3.382,6.973-4.859A77.744,77.744,0,0,1,395.451,77.959ZM308.4,699.882a134.377,134.377,0,0,0,19.879-1.458,119.625,119.625,0,0,0,38.845-12.7C402.263,667.135,427,632.493,453.2,595.816c16.616-23.266,33.8-47.325,54.724-68.969,3.93-4.061,7.971-8.091,11.879-11.988l.183-.182c9.579-9.549,19.484-19.422,28.316-30.374,19.293-23.933,33.417-52.724,43.566-75.134,22.46-49.572,56.044-141.554,28.624-200.634-9.626-20.672-25.564-35.776-51.677-48.972-10.69-5.405-22.227-10.093-33.384-14.627l-.079-.032c-11.817-4.8-24.037-9.768-35.422-15.644-3.41-1.759-6.758-3.607-9.949-5.493-7.808-4.621-15.361-9.861-22.666-14.929-12.9-8.943-26.229-18.189-40.766-23.821a85.96,85.96,0,0,0-31.092-6.057,76.757,76.757,0,0,0-41.563,12.378c-2.3,1.461-4.622,3.08-6.9,4.811a121.615,121.615,0,0,0-11.514,9.976,155,155,0,0,0-10.719,11.681,232.207,232.207,0,0,0-19.48,27.667c-5.655,9.266-11.4,19.748-17.576,32.044-6.144,12.241-12.061,25.019-16.53,34.783-12.305,26.885-23.429,48.313-35.007,67.434-15.163,25.228-31.5,45.829-48.559,61.23-8.454,7.628-17.17,14.147-24.86,19.9-6.77,5.065-13.164,9.849-19.353,15.214-10.77,9.381-18,18.362-23.443,29.12-13.039,25.78-9.055,52.724-5.519,66.491a111.276,111.276,0,0,0,3.436,11c2.815,7.607,6.3,14.943,9.667,22.037l.021.044c6.624,13.954,13.473,28.384,15.785,45.813,1.173,8.863,1.09,18.335,1.01,27.5v.015c-.075,9.006-.153,18.319.974,26.8,3.242,24.577,15.754,43.469,38.253,57.755,13.961,8.868,30.271,15.024,44.384,19.875l.005,0c11.3,3.885,24.106,8.288,37.609,11.641C281.053,698.013,295.064,699.882,308.4,699.882Z" transform="translate(74.892 77.988)" fill="#35008b"/>
    <path id="Path_341569" data-name="Path 341569" d="M409.584,71h0a82.027,82.027,0,0,1,20.227,2.6,95.775,95.775,0,0,1,16.817,6.055c14.809,6.917,28.155,17.54,41.062,27.813l.07.056c7.273,5.789,14.793,11.774,22.557,17.1,3.154,2.16,6.5,4.311,9.945,6.393,11.426,6.9,23.773,12.92,35.714,18.738l.04.02c11.3,5.5,22.978,11.194,33.78,17.6,26.493,15.706,42.349,32.782,51.412,55.37,11.3,28.267,11.255,65.3-.138,110.059a440.8,440.8,0,0,1-18.1,54.667c-5.948,14.853-12.8,30.044-20.372,45.151-11.5,22.951-27.391,52.37-48.407,76.342-9.6,10.952-20.248,20.682-30.542,30.092l-.249.227c-4.2,3.843-8.548,7.817-12.776,11.827-22.46,21.318-41.211,45.444-59.345,68.775l-.023.03c-28.712,36.939-55.832,71.83-93.063,89.17a120.537,120.537,0,0,1-40.9,10.9c-3.865.344-7.826.519-11.774.519-15.383,0-31.422-2.588-49.033-7.91-15.3-4.623-29.6-10.645-42.221-15.958l-.018-.008c-14.369-6.051-30.952-13.624-45-23.916-22.768-16.678-34.93-37.6-37.18-63.967-.78-9.052-.277-18.863.21-28.35l0-.045c.5-9.592,1.011-19.511.213-28.827-1.574-18.31-7.938-33.849-14.093-48.878l-.023-.056c-3.156-7.7-6.419-15.665-8.984-23.883a122.247,122.247,0,0,1-3.063-11.891c-3.044-14.843-5.947-43.706,8.81-70.241,6.159-11.075,14.088-20.135,25.711-29.376,6.626-5.242,13.45-9.87,20.675-14.77,8.154-5.525,17.4-11.787,26.42-19.23,18.186-15.013,35.875-35.524,52.575-60.963,12.768-19.313,25.174-41.078,39.043-68.495,5.048-9.98,11.725-23.035,18.614-35.515,6.926-12.547,13.336-23.212,19.594-32.607a238.479,238.479,0,0,1,21.4-27.925,158.078,158.078,0,0,1,11.641-11.652,123.436,123.436,0,0,1,12.408-9.813c2.456-1.688,4.944-3.252,7.4-4.65a82.422,82.422,0,0,1,20.065-8.188A75.941,75.941,0,0,1,409.584,71ZM305.521,719.5c3.918,0,7.85-.173,11.685-.515a119.555,119.555,0,0,0,40.568-10.807c37.012-17.239,64.06-52.037,92.7-88.878l.023-.03c18.157-23.36,36.931-47.516,59.446-68.887,4.235-4.017,8.584-7.993,12.789-11.839l.249-.227c10.274-9.392,20.9-19.1,30.465-30.013,20.941-23.887,36.793-53.233,48.265-76.131,25.375-50.645,64.128-145.149,38.578-209.058-8.976-22.369-24.7-39.3-50.994-54.882-10.766-6.386-22.429-12.067-33.707-17.562l-.04-.02c-11.961-5.828-24.329-11.854-35.794-18.781-3.461-2.091-6.823-4.253-9.993-6.424-7.793-5.346-15.328-11.343-22.614-17.143l-.07-.056c-12.861-10.237-26.16-20.823-40.862-27.69a94.773,94.773,0,0,0-16.641-5.992A81.026,81.026,0,0,0,409.587,72h0a74.935,74.935,0,0,0-18.649,2.357,81.419,81.419,0,0,0-19.82,8.089c-2.426,1.384-4.89,2.933-7.323,4.605a122.421,122.421,0,0,0-12.307,9.733,157.029,157.029,0,0,0-11.567,11.578,237.5,237.5,0,0,0-21.312,27.809c-6.243,9.371-12.638,20.013-19.551,32.536-6.882,12.466-13.554,25.511-18.6,35.483-13.888,27.453-26.312,49.249-39.1,68.594-16.754,25.521-34.51,46.107-52.774,61.184-9.06,7.473-18.323,13.749-26.5,19.286-7.209,4.889-14.019,9.507-20.615,14.726-11.515,9.155-19.366,18.123-25.458,29.079-14.6,26.254-11.721,54.847-8.7,69.554a121.242,121.242,0,0,0,3.038,11.793c2.552,8.177,5.807,16.12,8.955,23.8l.023.056c6.183,15.1,12.576,30.709,14.164,49.171.8,9.384.288,19.338-.21,28.964l0,.045c-.485,9.454-.986,19.229-.212,28.213,2.224,26.061,14.253,46.748,36.775,63.246,13.965,10.231,30.482,17.773,44.8,23.8l.018.008c12.6,5.3,26.877,11.315,42.122,15.922C274.293,716.926,290.237,719.5,305.521,719.5Z" transform="translate(70.763 71.069)" fill="#35008b"/>
    <path id="Path_341570" data-name="Path 341570" d="M424.662,64.009h0a81.611,81.611,0,0,1,23.514,3.556,98.385,98.385,0,0,1,19.118,8.12c14.945,8.248,28.208,20.3,41.033,31.946l.064.058c7.218,6.555,14.682,13.334,22.426,19.434,3.168,2.491,6.516,4.972,9.948,7.373,11.468,8.017,23.919,15.156,35.961,22.06,11.362,6.513,23.111,13.247,33.976,20.709,26.557,18.243,42.1,37.227,50.4,61.554,10.348,30.444,8.619,69.358-5.141,115.659a462.041,462.041,0,0,1-21.117,56.278c-6.8,15.223-14.544,30.743-23.022,46.128-12.88,23.373-30.578,53.255-53.3,77.076-10.394,10.895-21.807,20.436-32.844,29.663l-.038.032c-4.559,3.812-9.274,7.753-13.885,11.756-24.1,20.945-44.5,45.083-64.23,68.426l-.013.015C416.28,680.8,386.777,715.7,347.658,731.5a120.625,120.625,0,0,1-42.6,8.78c-1.182.032-2.384.048-3.572.048-39.1,0-73.669-17.38-101.444-31.345l-.006,0c-14.513-7.3-31.237-16.34-45.239-28.083-22.674-19.015-34.24-41.8-35.358-69.645-.392-9.579.574-19.872,1.508-29.825.947-10.056,1.926-20.449,1.527-30.3-.79-19.361-6.639-36.119-12.3-52.325l-.018-.051c-2.893-8.282-5.885-16.846-8.162-25.689-1.055-4.068-1.934-8.34-2.614-12.7-2.458-15.8-4.135-46.323,12.256-73.242,6.84-11.234,15.414-20.237,27.8-29.194,7.012-5.041,14.242-9.459,21.9-14.136l.06-.036c9.077-5.537,18.462-11.261,28.076-18.485,19.4-14.585,38.544-34.988,56.895-60.642,14.014-19.456,27.775-41.523,43.307-69.447,5.649-10.159,13.116-23.445,20.776-36.113,7.7-12.735,14.783-23.527,21.652-32.992a243.17,243.17,0,0,1,23.3-27.953,159.756,159.756,0,0,1,12.513-11.486,124.006,124.006,0,0,1,13.22-9.5c2.616-1.622,5.249-3.1,7.826-4.4a83.153,83.153,0,0,1,18.379-6.724A76.285,76.285,0,0,1,424.662,64.009ZM301.483,739.323c1.179,0,2.371-.016,3.545-.048a119.641,119.641,0,0,0,42.256-8.708c38.889-15.7,68.315-50.507,99.469-87.36l.013-.015c19.756-23.372,40.184-47.54,64.338-68.535,4.619-4.01,9.337-7.954,13.9-11.769l.038-.032c11.015-9.209,22.406-18.732,32.761-29.586,22.643-23.737,40.3-53.549,53.148-76.869,28.425-51.582,72.617-148.4,49.21-217.261-8.226-24.11-23.653-42.939-50.021-61.052-10.832-7.439-22.563-14.163-33.907-20.666-12.061-6.915-24.532-14.064-36.037-22.108-3.448-2.411-6.81-4.9-9.994-7.407-7.772-6.123-15.249-12.913-22.48-19.48l-.064-.058c-12.783-11.612-26-23.619-40.844-31.811a97.4,97.4,0,0,0-18.923-8.038,80.613,80.613,0,0,0-23.225-3.514h0a75.278,75.278,0,0,0-17.094,1.974,82.147,82.147,0,0,0-18.157,6.643c-2.55,1.287-5.158,2.755-7.749,4.361a123,123,0,0,0-13.112,9.426,158.758,158.758,0,0,0-12.434,11.414,242.182,242.182,0,0,0-23.2,27.839c-6.853,9.442-13.92,20.211-21.606,32.922-7.651,12.654-15.112,25.93-20.757,36.081-15.551,27.959-29.332,50.057-43.368,69.544-18.409,25.736-37.623,46.212-57.106,60.859-9.653,7.253-19.483,13.249-28.156,18.539l-.059.036c-7.638,4.667-14.852,9.075-21.833,14.094-12.273,8.874-20.765,17.788-27.532,28.9-16.226,26.647-14.56,56.9-12.122,72.568.675,4.323,1.548,8.562,2.594,12.6,2.267,8.8,5.252,17.347,8.138,25.609l.018.051c5.68,16.275,11.554,33.1,12.35,52.614.4,9.915-.58,20.343-1.53,30.428-.932,9.924-1.895,20.183-1.505,29.7,1.107,27.552,12.556,50.1,35,68.919,13.923,11.677,30.584,20.685,45.046,27.956l.006,0c13.8,6.938,29.439,14.8,46.365,20.866C266.333,735.931,284.2,739.323,301.483,739.323Z" transform="translate(66.667 64.121)" fill="#35008b"/>
    <path id="Path_341571" data-name="Path 341571" d="M440.669,57.022a81.472,81.472,0,0,1,26.882,4.694A101.576,101.576,0,0,1,488.9,72.239c15.009,9.648,28.114,23.179,40.788,36.264,7.153,7.385,14.551,15.021,22.271,21.962,3.123,2.806,6.457,5.634,9.909,8.4,11.422,9.163,23.9,17.474,35.97,25.51l.052.035c11.415,7.6,23.219,15.456,34.036,23.994,26.5,20.9,41.641,41.87,49.082,67.98,9.269,32.674,5.721,73.46-10.545,121.225a482.686,482.686,0,0,1-24.3,57.774c-7.69,15.557-16.369,31.364-25.8,46.98-14.314,23.72-33.885,53.968-58.37,77.533-11.184,10.758-23.351,20.031-35.117,29l-.083.063c-4.87,3.709-9.9,7.545-14.828,11.448-25.761,20.443-47.864,44.482-69.238,67.729l-.01.011c-33.837,36.8-65.8,71.553-106.785,85.589a119.787,119.787,0,0,1-39.42,6.526c-1.593,0-3.222-.03-4.839-.088C249.862,758.684,213.9,737.464,185,720.413l-.014-.008c-14.605-8.617-31.408-19.214-45.294-32.477-22.471-21.466-33.34-46.161-33.227-75.5.03-10.084,1.49-20.834,2.9-31.229l0-.024c1.432-10.5,2.912-21.354,2.949-31.749.067-20.4-5.194-38.4-10.281-55.809l-.019-.065c-2.6-8.9-5.3-18.111-7.237-27.535-.9-4.344-1.61-8.89-2.113-13.512-1.812-16.765-2.152-48.952,15.94-76.169,7.553-11.361,16.788-20.264,29.946-28.867,7.509-4.879,15.154-9.047,23.248-13.46a343.288,343.288,0,0,0,29.741-17.6c20.639-14.065,41.274-34.259,61.33-60.023,15.319-19.543,30.488-41.839,47.739-70.168,6.277-10.31,14.568-23.787,23.028-36.6,8.506-12.883,16.287-23.763,23.788-33.262a247.236,247.236,0,0,1,25.257-27.857,161.059,161.059,0,0,1,13.4-11.254,124.322,124.322,0,0,1,14.041-9.124c2.757-1.528,5.534-2.913,8.256-4.118A83.925,83.925,0,0,1,425,58.647,76.948,76.948,0,0,1,440.669,57.022ZM296.52,759.264a118.8,118.8,0,0,0,39.1-6.472c40.746-13.954,72.624-48.619,106.372-85.32l.01-.011c21.4-23.276,43.53-47.344,69.353-67.836,4.931-3.909,9.97-7.747,14.843-11.46l.083-.063c11.744-8.951,23.888-18.206,35.03-28.924,24.4-23.484,43.924-53.662,58.207-77.329,31.609-52.363,81.506-151.248,60.531-225.188-7.38-25.894-22.412-46.7-48.74-67.468-10.786-8.512-22.573-16.358-33.971-23.946l-.052-.035c-12.086-8.049-24.584-16.372-36.041-25.563-3.467-2.782-6.815-5.622-9.952-8.441-7.746-6.964-15.156-14.613-22.321-22.01-12.634-13.044-25.7-26.533-40.61-36.118a100.573,100.573,0,0,0-21.136-10.42,80.473,80.473,0,0,0-26.553-4.638,75.943,75.943,0,0,0-15.469,1.6,82.907,82.907,0,0,0-16.4,5.3c-2.693,1.192-5.444,2.564-8.175,4.077a123.326,123.326,0,0,0-13.928,9.05,160.065,160.065,0,0,0-13.32,11.184,246.256,246.256,0,0,0-25.155,27.746c-7.484,9.477-15.249,20.335-23.739,33.194-8.451,12.8-16.736,26.267-23.009,36.57-17.273,28.363-32.463,50.689-47.805,70.263-20.119,25.844-40.83,46.11-61.555,60.234a344.072,344.072,0,0,1-29.826,17.647c-8.076,4.4-15.705,8.562-23.181,13.42-13.038,8.524-22.186,17.34-29.66,28.583C91.528,403.848,91.869,435.771,93.667,452.4c.5,4.59,1.206,9.1,2.1,13.418,1.931,9.384,4.619,18.571,7.217,27.456l.019.065c5.107,17.474,10.388,35.543,10.321,56.093-.037,10.461-1.522,21.35-2.958,31.88l0,.024c-1.408,10.363-2.863,21.079-2.893,31.1-.112,29.046,10.656,53.5,32.918,74.769C154.2,700.4,170.941,710.955,185.5,719.543l.014.008c28.8,16.993,64.64,38.142,106.205,39.625C293.323,759.235,294.939,759.264,296.52,759.264Z" transform="translate(62.619 57.177)" fill="#35008b"/>
    <path id="Path_341572" data-name="Path 341572" d="M457.6,50.072h0a81.589,81.589,0,0,1,30.344,6.023,105.238,105.238,0,0,1,23.49,13.281c14.995,11.109,27.864,26.177,40.309,40.748l.031.036c7.029,8.231,14.3,16.743,21.933,24.547,3.09,3.157,6.394,6.348,9.822,9.484,11.364,10.4,23.852,19.963,35.928,29.212l.1.076c11.381,8.719,23.15,17.735,33.85,27.373,26.332,23.711,40.96,46.735,47.431,74.655,8.058,34.946,2.554,77.579-16.358,126.717a502.6,502.6,0,0,1-27.635,59.137c-8.623,15.849-18.276,31.9-28.69,47.7-15.815,24-37.338,54.514-63.612,77.676-12.016,10.593-24.98,19.553-37.518,28.218l-.314.217c-5.1,3.523-10.364,7.165-15.511,10.875-27.45,19.8-51.3,43.626-74.36,66.666l-.01.01c-36.5,36.464-70.981,70.9-113.82,82.982a122.022,122.022,0,0,1-16.23,3.406,120.732,120.732,0,0,1-16.524,1.131c-4.278,0-8.686-.226-13.1-.67-42.976-4.3-79.032-28.96-108-48.771l-.025-.017c-14.649-10.019-31.47-22.262-45.151-37.1-22.151-24.025-32.216-50.686-30.768-81.5.49-10.6,2.483-21.813,4.41-32.655,1.951-10.949,3.968-22.268,4.479-33.189.994-21.45-3.6-40.715-8.051-59.346l-.018-.074c-2.276-9.523-4.629-19.37-6.2-29.415-.729-4.621-1.254-9.445-1.562-14.339-1.1-17.737.007-51.587,19.865-79.006,8.292-11.448,18.2-20.2,32.138-28.383,7.946-4.632,16.009-8.516,24.546-12.627a343.178,343.178,0,0,0,31.419-16.548c21.893-13.438,44.054-33.316,65.867-59.083,16.654-19.537,33.284-41.981,52.335-70.635,6.931-10.426,16.078-24.051,25.369-36.967,9.341-12.985,17.846-23.912,26-33.407a250.634,250.634,0,0,1,27.267-27.629,162.024,162.024,0,0,1,14.31-10.953,124.461,124.461,0,0,1,14.87-8.671c2.9-1.425,5.828-2.7,8.688-3.787A80.867,80.867,0,0,1,457.6,50.072ZM290.251,779.238a118.266,118.266,0,0,0,32.483-4.5c42.588-12.007,76.977-46.358,113.385-82.727l.01-.01c23.09-23.068,46.967-46.92,74.482-66.769,5.155-3.716,10.428-7.361,15.527-10.886l.314-.217c12.514-8.649,25.454-17.592,37.425-28.146,26.186-23.084,47.658-53.531,63.438-77.476,34.922-52.979,90.784-153.668,72.544-232.775-6.421-27.707-20.956-50.572-47.126-74.137-10.67-9.612-22.423-18.615-33.789-27.322l-.1-.076c-12.093-9.262-24.6-18.839-36-29.268-3.441-3.149-6.759-6.353-9.861-9.523-7.659-7.828-14.938-16.353-21.978-24.6l-.031-.036C538.57,96.244,525.739,81.22,510.835,70.178A104.238,104.238,0,0,0,487.57,57.023a78.192,78.192,0,0,0-58.282-.627c-2.83,1.076-5.724,2.338-8.6,3.75a123.469,123.469,0,0,0-14.75,8.6,161.007,161.007,0,0,0-14.221,10.885,249.65,249.65,0,0,0-27.158,27.52c-8.135,9.473-16.622,20.378-25.947,33.34-9.282,12.9-18.422,26.517-25.348,36.936-19.074,28.687-35.726,51.162-52.406,70.729-21.88,25.846-44.122,45.794-66.106,59.288a344.015,344.015,0,0,1-31.508,16.6c-8.518,4.1-16.564,7.978-24.474,12.589-13.809,8.107-23.627,16.776-31.834,28.106C87.26,391.9,86.161,425.49,87.258,443.094c.306,4.862.828,9.655,1.552,14.246,1.564,10.005,3.913,19.833,6.184,29.337l.018.074c4.463,18.7,9.077,38.033,8.077,59.624-.514,10.986-2.536,22.337-4.492,33.314-1.922,10.813-3.909,21.991-4.4,32.529-1.435,30.538,8.543,56.961,30.5,80.78,13.613,14.767,30.377,26.968,44.98,36.955l.025.017c28.878,19.747,64.817,44.322,107.539,48.6C281.632,779.014,286.007,779.238,290.251,779.238Z" transform="translate(58.627 50.268)" fill="#35008b"/>
    <path id="Path_341573" data-name="Path 341573" d="M475.83,43.189h0a81.983,81.983,0,0,1,33.922,7.557A109.5,109.5,0,0,1,535.3,67.158c14.932,12.658,27.5,29.341,39.65,45.476l.05.066c6.856,9.1,13.945,18.514,21.441,27.206,3.056,3.54,6.314,7.112,9.682,10.614,11.21,11.658,23.618,22.518,35.617,33.02l.053.047c11.353,9.935,23.092,20.209,33.7,31.07,26.026,26.635,40.038,51.788,45.433,81.555,15.255,84.73-46.976,187.192-85.429,240.728-17.373,24.192-40.917,54.862-69.016,77.489-12.854,10.347-26.61,18.919-39.913,27.209l-.065.041c-5.491,3.422-11.169,6.96-16.724,10.58-29.14,19.005-54.758,42.47-79.532,65.163l-.06.055c-39.237,35.942-76.3,69.891-120.949,79.778a119.532,119.532,0,0,1-26.121,2.876,129.506,129.506,0,0,1-21.263-1.811C217.8,790.979,181.8,762.7,152.871,739.979l-.019-.015c-14.622-11.486-31.378-25.452-44.792-41.95-21.709-26.7-30.857-55.372-27.967-87.661.982-11.089,3.536-22.716,6.005-33.959l.017-.077c2.506-11.378,5.1-23.143,6.119-34.6,2-22.486-1.862-43.04-5.594-62.917l-.015-.082c-1.911-10.165-3.888-20.677-5.047-31.324-.54-4.917-.862-10.022-.958-15.171-.332-18.714,2.349-54.215,24.034-81.732,9.055-11.491,19.657-20.044,34.376-27.731,8.345-4.33,16.836-7.891,25.825-11.661l.018-.008c10.131-4.24,21.613-9.045,33.1-15.337,23.142-12.688,46.859-32.133,70.492-57.8,18.032-19.444,36.172-41.949,57.088-70.825,14.485-20,22.464-30.386,27.8-37.2,10.207-13.038,19.458-23.968,28.284-33.414a253.419,253.419,0,0,1,29.326-27.258,162.6,162.6,0,0,1,15.23-10.576,124.435,124.435,0,0,1,15.7-8.142c3.049-1.3,6.116-2.453,9.115-3.414A82.1,82.1,0,0,1,475.83,43.189ZM283.108,799.129a118.545,118.545,0,0,0,25.9-2.853c44.389-9.829,81.354-43.69,120.49-79.539l.06-.055c24.8-22.72,50.452-46.213,79.661-65.263,5.564-3.626,11.246-7.167,16.741-10.591l.065-.041c13.278-8.274,27.008-16.83,39.815-27.139,28-22.551,51.495-53.153,68.831-77.293,38.361-53.407,100.447-155.6,85.257-239.966-5.357-29.559-19.286-54.551-45.164-81.034-10.576-10.833-22.3-21.094-33.638-31.016l-.053-.047c-12.015-10.516-24.44-21.39-35.679-33.079-3.381-3.515-6.651-7.1-9.719-10.654-7.517-8.718-14.617-18.143-21.482-27.258l-.05-.066c-12.119-16.091-24.651-32.729-39.5-45.315a108.5,108.5,0,0,0-25.306-16.263,80.992,80.992,0,0,0-33.51-7.468h0a81.088,81.088,0,0,0-24.522,3.9c-2.968.951-6.005,2.089-9.026,3.381a123.44,123.44,0,0,0-15.576,8.076,161.635,161.635,0,0,0-15.135,10.511,252.444,252.444,0,0,0-29.209,27.151c-8.806,9.425-18.039,20.333-28.227,33.348-10.142,12.955-20.171,26.669-27.774,37.168-20.94,28.91-39.1,51.444-57.164,70.917-23.706,25.741-47.509,45.254-70.746,57.994-11.531,6.317-23.039,11.134-33.192,15.383l-.018.008c-8.97,3.762-17.442,7.315-25.75,11.626-14.587,7.618-25.09,16.088-34.053,27.463-21.493,27.273-24.149,62.515-23.82,81.095.095,5.119.415,10.193.952,15.081,1.154,10.609,3.127,21.1,5.035,31.248l.016.082c3.745,19.944,7.618,40.567,5.608,63.19-1.027,11.518-3.625,23.314-6.138,34.723l-.017.077c-2.463,11.213-5.009,22.808-5.986,33.834-2.866,32.017,6.21,60.456,27.747,86.942,13.352,16.421,30.056,30.342,44.634,41.794l.019.015c28.836,22.652,64.724,50.843,108.521,58.14A128.5,128.5,0,0,0,283.108,799.129Z" transform="translate(54.293 43.427)" fill="#35008b"/>
    <path id="Path_341574" data-name="Path 341574" d="M498.052,36.409h.006a82.672,82.672,0,0,1,37.629,9.309A114.406,114.406,0,0,1,563.174,65.65c14.8,14.285,26.984,32.652,38.765,50.414l.01.014c6.646,10.021,13.518,20.383,20.864,30.041,2.978,3.912,6.169,7.881,9.486,11.794,11,12.978,23.273,25.2,35.139,37.013l.079.079c11.232,11.181,22.846,22.743,33.285,34.867,25.58,29.7,38.86,57.05,43.059,88.684C755.719,408.609,687,512.236,644.984,565.991,626,590.283,600.372,620.98,570.415,642.927c-13.7,10.031-28.24,18.137-42.306,25.977l-.469.262c-5.684,3.17-11.561,6.448-17.318,9.815-30.883,18.083-58.337,41.088-84.888,63.335l-.013.011c-42.028,35.212-81.726,68.472-128.141,75.942a121.061,121.061,0,0,1-33.973.675,135.315,135.315,0,0,1-14.855-2.656c-45.016-10.6-80.794-42.684-109.542-68.464l-.007-.006c-14.531-13.031-31.146-28.808-44.207-47.024-21.129-29.477-29.242-60.208-24.8-93.951,1.516-11.6,4.679-23.674,7.737-35.346l.009-.036c3.1-11.8,6.3-24.006,7.868-35.97,3.081-23.519.038-45.387-2.9-66.535l-.009-.067c-1.506-10.814-3.063-22-3.771-33.253-.334-5.2-.434-10.586-.3-16.008.508-19.69,4.881-56.827,28.45-84.328,9.844-11.487,21.147-19.783,36.648-26.9,8.82-4.019,17.716-7.2,27.135-10.575,10.609-3.788,22.633-8.081,34.771-13.955,24.4-11.825,49.7-30.713,75.2-56.141,19.445-19.257,39.142-41.727,61.989-70.715,15.821-20.077,24.507-30.471,30.306-37.282,11.1-13.037,21.12-23.921,30.635-33.273a255.6,255.6,0,0,1,31.428-26.733,163.014,163.014,0,0,1,16.16-10.121,124.322,124.322,0,0,1,16.536-7.531c3.2-1.172,6.412-2.178,9.539-2.99A83.5,83.5,0,0,1,498.052,36.409ZM277.932,818.83a121.291,121.291,0,0,0,19.188-1.547c46.143-7.426,85.738-40.6,127.658-75.721l.014-.011c26.582-22.274,54.07-45.307,85.025-63.432,5.766-3.372,11.647-6.653,17.335-9.825l.47-.262c14.039-7.825,28.556-15.916,42.2-25.91,29.858-21.875,55.43-52.5,74.372-76.745,41.92-53.632,110.483-157,98.674-246.689-4.173-31.43-17.38-58.621-42.826-88.163-10.414-12.1-22.014-23.643-33.232-34.811l-.079-.079c-11.881-11.831-24.166-24.064-35.2-37.074-3.328-3.927-6.531-7.908-9.519-11.835-7.366-9.684-14.247-20.06-20.9-30.094l-.009-.014C589.355,98.9,577.2,80.578,562.48,66.369A113.405,113.405,0,0,0,535.235,46.61a81.68,81.68,0,0,0-37.177-9.2h-.006a82.491,82.491,0,0,0-20.484,2.648c-3.094.8-6.272,1.8-9.445,2.96a123.328,123.328,0,0,0-16.4,7.471,161.974,161.974,0,0,0-16.06,10.059,254.609,254.609,0,0,0-31.3,26.63c-9.493,9.331-19.495,20.194-30.575,33.208C362.753,133.339,351.8,147.1,343.5,157.638c-22.873,29.021-42.6,51.52-62.069,70.8-25.573,25.5-50.964,44.458-75.467,56.331-12.187,5.9-24.238,10.2-34.871,14-9.4,3.364-18.275,6.541-27.056,10.542-15.362,7.051-26.559,15.268-36.3,26.64-23.368,27.266-27.705,64.146-28.21,83.7-.135,5.392-.036,10.748.3,15.919.705,11.221,2.26,22.384,3.763,33.179l.009.067c2.952,21.213,6,43.149,2.906,66.8-1.578,12.026-4.788,24.261-7.892,36.094l-.009.036c-3.05,11.642-6.2,23.68-7.713,35.222-4.4,33.479,3.651,63.977,24.625,93.238,13,18.138,29.571,33.867,44.061,46.862l.007.006c28.664,25.7,64.336,57.7,109.1,68.236a134.278,134.278,0,0,0,14.745,2.637A122.01,122.01,0,0,0,277.932,818.83Z" transform="translate(46.931 36.688)" fill="#35008b"/>
    <path id="Path_341575" data-name="Path 341575" d="M521.367,29.769h0a80.549,80.549,0,0,1,22.216,3.136,89.538,89.538,0,0,1,19.277,8.155,119.959,119.959,0,0,1,29.313,23.862C606.758,80.9,618.463,101,629.783,120.434l.03.052c6.389,10.972,13,22.317,20.1,32.925,2.891,4.313,6,8.693,9.233,13.02,10.767,14.4,22.87,28.074,34.575,41.3,11.055,12.488,22.486,25.4,32.682,38.83,24.98,32.886,37.408,62.5,40.3,96.019,8.116,95.429-67.33,199.856-113.025,253.611-20.647,24.293-48.428,54.884-80.263,75.99-14.548,9.644-29.881,17.21-44.709,24.526l-.1.051c-6.133,3.026-12.474,6.154-18.693,9.389-32.6,16.98-61.9,39.357-90.239,61l-.045.035c-44.867,34.264-87.245,66.627-135.37,71.442-4.1.409-8.236.616-12.292.616a122.9,122.9,0,0,1-18.85-1.469,136.434,136.434,0,0,1-19.034-4.426c-45.853-14.086-81.225-50.147-109.647-79.123l-.018-.018c-14.368-14.649-30.756-32.32-43.369-52.318C60.634,669.523,53.678,636.7,59.779,601.526c2.091-12.107,5.9-24.595,9.576-36.672l0-.01c3.723-12.193,7.572-24.8,9.737-37.3,4.239-24.522,2.1-47.707.031-70.128l-.008-.083c-1.06-11.466-2.156-23.323-2.373-35.2-.108-5.477.034-11.144.421-16.842,1.417-20.661,7.6-59.408,33.115-86.769,10.654-11.428,22.666-19.409,38.949-25.876,9.249-3.64,18.56-6.408,28.418-9.339,11.106-3.292,23.693-7.022,36.43-12.394,25.659-10.831,52.564-29.03,79.968-54.091,20.893-18.97,42.192-41.3,67.03-70.277,17.2-20.07,26.614-30.426,32.893-37.206,12.019-12.978,22.83-23.762,33.05-32.97a257.2,257.2,0,0,1,33.569-26.044,163.07,163.07,0,0,1,17.1-9.581,124.115,124.115,0,0,1,17.365-6.833c3.349-1.023,6.7-1.871,9.957-2.521A85.176,85.176,0,0,1,521.367,29.769Zm-249.4,808.467c4.023,0,8.125-.206,12.193-.611,47.843-4.786,90.112-37.066,134.863-71.241l.045-.035c28.369-21.666,57.7-44.07,90.384-61.089,6.228-3.24,12.575-6.371,18.712-9.4l.1-.051c14.8-7.3,30.1-14.855,44.6-24.463,31.73-21.037,59.449-51.562,80.053-75.8C698.51,541.9,773.792,437.73,765.706,342.663c-2.87-33.32-15.236-62.773-40.1-95.5-10.173-13.4-21.592-26.3-32.634-38.772-11.718-13.239-23.835-26.928-34.627-41.362-3.246-4.34-6.362-8.734-9.263-13.062-7.125-10.634-13.74-21.993-20.138-32.978l-.03-.052c-11.293-19.39-22.971-39.44-37.482-55.341a118.968,118.968,0,0,0-29.066-23.665,88.53,88.53,0,0,0-19.061-8.065,79.551,79.551,0,0,0-21.941-3.1h0a84.165,84.165,0,0,0-16.168,1.6c-3.224.643-6.542,1.482-9.859,2.5a123.112,123.112,0,0,0-17.225,6.779,162.088,162.088,0,0,0-16.99,9.522,256.2,256.2,0,0,0-33.438,25.944C417.49,86.3,406.7,97.063,394.7,110.018c-11.942,12.894-23.838,26.641-32.868,37.177-24.866,29.009-46.192,51.368-67.116,70.365-27.487,25.138-54.489,43.4-80.253,54.273-12.789,5.393-25.4,9.132-36.534,12.431-9.836,2.924-19.127,5.686-28.335,9.31-16.136,6.409-28.037,14.314-38.585,25.628-25.3,27.135-31.44,65.626-32.849,86.155-.385,5.669-.526,11.307-.419,16.755.217,11.841,1.311,23.68,2.369,35.128l.008.083c2.075,22.486,4.22,45.737-.042,70.39-2.176,12.56-6.034,25.2-9.765,37.42l0,.01c-3.671,12.048-7.467,24.505-9.547,36.551-6.056,34.916.854,67.512,21.125,99.651,12.563,19.919,28.906,37.54,43.237,52.151l.018.018c28.343,28.9,63.616,64.856,109.227,78.868a135.421,135.421,0,0,0,18.894,4.394A121.9,121.9,0,0,0,271.962,838.235Z" transform="translate(39.425 30.087)" fill="#35008b"/>
    <path id="Path_341576" data-name="Path 341576" d="M545.73,23.3A81.985,81.985,0,0,1,570.3,27.07a91.106,91.106,0,0,1,20.965,9.754c11.074,6.925,21.505,16.421,31,28.224,14.288,17.754,25.426,39.648,36.2,60.821l.01.019c6.073,11.941,12.353,24.289,19.217,35.955,2.79,4.736,5.79,9.545,8.915,14.291,10.428,15.837,22.27,31.007,33.721,45.677l.034.044c10.808,13.845,21.983,28.162,31.847,42.911,24.22,36.2,35.668,68.134,37.118,103.553,4.023,100.831-78.389,205.661-127.871,259.175-22.361,24.185-52.353,54.524-86.082,74.626-15.428,9.192-31.571,16.146-47.183,22.872l-.187.081c-6.412,2.763-13.042,5.62-19.551,8.594-34.336,15.716-65.518,37.32-95.673,58.212l-.047.032c-47.745,33.081-92.841,64.327-142.61,66.237-1.605.061-3.228.092-4.822.092a128.3,128.3,0,0,1-46.593-8.924c-46.564-17.807-81.341-58.029-109.285-90.349l-.012-.013C95.29,742.617,79.222,722.97,67.147,701.125c-19.539-35.344-25.208-70.3-17.332-106.857,2.7-12.592,7.189-25.472,11.528-37.929,4.389-12.586,8.927-25.6,11.716-38.574,5.477-25.495,4.329-50,3.22-73.7l-.005-.112c-.571-12.107-1.162-24.626-.846-37.154.138-5.771.541-11.718,1.2-17.675,2.4-21.622,10.523-61.941,38.028-89.03,11.486-11.315,24.215-18.917,41.273-24.65,9.677-3.219,19.393-5.52,29.68-7.957,11.564-2.727,24.67-5.818,38.067-10.642,26.91-9.707,55.436-27.076,84.785-51.626,22.384-18.587,45.325-40.667,72.2-69.488,18.619-19.971,28.78-30.241,35.553-36.957,12.963-12.855,24.582-23.484,35.522-32.494A258.25,258.25,0,0,1,487.475,41.1a162.976,162.976,0,0,1,18.035-8.952A123.937,123.937,0,0,1,523.7,26.1a103.96,103.96,0,0,1,10.365-2A87.113,87.113,0,0,1,545.73,23.3ZM265.3,857.241c1.582,0,3.191-.031,4.784-.091,49.477-1.9,94.457-33.064,142.078-66.06l.047-.032c30.191-20.917,61.41-42.547,95.827-58.3,6.519-2.978,13.154-5.838,19.571-8.6l.187-.081c15.582-6.713,31.7-13.654,47.067-22.812,33.618-20.036,63.544-50.31,85.859-74.445C710.1,573.415,792.339,468.83,788.331,368.36c-1.442-35.223-12.838-67-36.95-103.037-9.843-14.719-21.007-29.021-31.8-42.852l-.034-.043c-11.465-14.687-23.319-29.872-33.769-45.743-3.135-4.761-6.143-9.583-8.942-14.334-6.879-11.693-13.167-24.054-19.247-36.009l-.01-.019C646.828,105.2,635.713,83.348,621.49,65.675c-9.427-11.716-19.774-21.137-30.754-28A90.111,90.111,0,0,0,570,28.024,80.988,80.988,0,0,0,545.73,24.3a86.093,86.093,0,0,0-11.531.789,102.907,102.907,0,0,0-10.263,1.978,122.944,122.944,0,0,0-18.041,6,162.009,162.009,0,0,0-17.924,8.9,257.273,257.273,0,0,0-35.6,25.083c-10.916,8.99-22.513,19.6-35.453,32.432-12.881,12.774-25.752,26.445-35.526,36.929-26.9,28.853-49.874,50.96-72.291,69.574-29.438,24.623-58.066,42.051-85.087,51.8-13.451,4.843-26.587,7.941-38.176,10.674-10.264,2.431-19.959,4.727-29.593,7.932-16.905,5.681-29.516,13.211-40.888,24.414C88.07,327.678,80,367.742,77.619,389.232c-.654,5.929-1.055,11.847-1.192,17.59-.315,12.493.275,24.994.845,37.083l.005.112c1.113,23.763,2.263,48.335-3.241,73.958-2.8,13.035-7.351,26.079-11.75,38.693-4.329,12.428-8.806,25.279-11.495,37.81-7.823,36.313-2.188,71.039,17.229,106.163C80.052,722.405,96.08,742,110.172,758.3l.012.013c27.871,32.235,62.557,72.352,108.886,90.069A127.322,127.322,0,0,0,265.3,857.241Z" transform="translate(31.792 23.662)" fill="#35008b"/>
    <path id="Path_341577" data-name="Path 341577" d="M571.091,17.057h0a83.845,83.845,0,0,1,27.09,4.473,93,93,0,0,1,22.694,11.54c11.815,8.138,22.764,19.254,32.542,33.038,13.9,19.591,24.368,43.328,34.493,66.284l.062.141c5.707,12.937,11.609,26.315,18.107,38.949,2.655,5.157,5.526,10.408,8.531,15.607,10.008,17.319,21.5,34.028,32.618,50.188l.027.04c10.5,15.266,21.363,31.051,30.87,47.238,23.287,39.627,33.621,73.941,33.507,111.261C811.2,502.06,721.6,606.858,668.226,659.871c-24.116,23.957-56.368,53.884-92.01,72.808-16.276,8.641-33.185,14.887-49.538,20.927l-.5.186c-6.651,2.457-13.528,5-20.288,7.671-36.06,14.269-69.139,34.936-101.129,54.922l-.06.038c-49.66,31.026-96.565,60.33-146.713,60.33-1.035,0-2.082-.013-3.114-.038-17.888-.44-35.069-4.578-52.525-12.65-47.12-21.761-81.093-66.312-108.39-102.109l-.019-.025c-13.8-18.091-29.443-39.788-40.888-63.549C34.544,659.958,30.3,622.853,40.062,584.948c3.35-13.05,8.55-26.288,13.579-39.09l.01-.025c5.092-12.951,10.357-26.343,13.815-39.784,6.8-26.452,6.728-52.3,6.661-77.288v-.1c-.037-12.785-.075-26.005.817-39.11.4-6.043,1.088-12.266,2.035-18.5,3.45-22.571,13.648-64.417,43.187-91.087,12.339-11.142,25.788-18.3,43.61-23.209,10.141-2.758,20.233-4.536,30.917-6.419,12.041-2.113,25.689-4.508,39.676-8.7,28.145-8.443,58.3-24.834,89.632-48.718,23.881-18.066,48.5-39.775,77.486-68.319,20.073-19.773,31-29.9,38.28-36.522C453.695,75.417,466.14,65,477.812,56.249a258.845,258.845,0,0,1,37.941-24.128,162.774,162.774,0,0,1,18.975-8.23,123.8,123.8,0,0,1,19-5.165,104,104,0,0,1,10.761-1.421C566.7,17.141,568.916,17.057,571.091,17.057ZM257.985,875.752c49.861,0,96.649-29.231,146.183-60.178l.06-.038c32.028-20.01,65.147-40.7,101.292-55,6.771-2.677,13.653-5.22,20.309-7.679l.5-.186c16.322-6.029,33.2-12.262,49.416-20.872,35.526-18.863,67.707-48.725,91.774-72.634,53.261-52.9,142.677-157.465,143.114-263.35.114-37.129-10.178-71.286-33.369-110.75-9.488-16.156-20.338-31.927-30.831-47.178l-.028-.04c-11.127-16.175-22.632-32.9-32.66-50.254-3.014-5.214-5.892-10.479-8.554-15.65-6.512-12.661-12.419-26.052-18.132-39L687,132.8c-10.1-22.91-20.554-46.6-34.393-66.109C642.895,53,632.029,41.965,620.311,33.894a92,92,0,0,0-22.449-11.417,82.852,82.852,0,0,0-26.768-4.42h0c-2.149,0-4.345.082-6.526.245a103.01,103.01,0,0,0-10.656,1.407,122.816,122.816,0,0,0-18.846,5.124,161.766,161.766,0,0,0-18.857,8.179,257.865,257.865,0,0,0-37.794,24.036c-11.646,8.736-24.068,19.129-37.973,31.772-13.843,12.586-27.713,26.115-38.251,36.495-29.016,28.575-53.668,50.311-77.583,68.4-31.425,23.955-61.688,40.4-89.949,48.879-14.043,4.2-27.722,6.605-39.79,8.723-10.661,1.879-20.73,3.653-30.826,6.4-17.662,4.865-30.987,11.955-43.2,22.987C91.527,307.168,81.4,348.763,77.967,371.2c-.943,6.2-1.624,12.4-2.026,18.414-.889,13.07-.851,26.272-.814,39.04v.1c.067,25.055.137,50.964-6.693,77.539-3.473,13.5-8.75,26.921-13.853,39.9l-.01.024C49.554,559,44.365,572.206,41.031,585.2c-9.705,37.668-5.48,74.549,12.919,112.75,11.406,23.68,27.016,45.326,40.782,63.377l.019.025c27.23,35.709,61.12,80.15,108.015,101.808,17.33,8.013,34.382,12.121,52.13,12.558C255.918,875.739,256.958,875.752,257.985,875.752Z" transform="translate(24.049 17.452)" fill="#35008b"/>
    <path id="Path_341578" data-name="Path 341578" d="M597.406,11.064c43.426,0,71.922,31.06,88.181,57.115,13.423,21.51,23.127,47.157,32.512,71.96l.009.023c5.3,14.005,10.778,28.487,16.91,42.226,2.5,5.6,5.217,11.308,8.074,16.967,9.519,18.865,20.595,37.183,31.306,54.9l.023.039c10.121,16.736,20.586,34.041,29.636,51.675,22.172,43.178,31.251,79.919,29.439,119.13C828.221,536.746,731.22,641.036,673.869,693.265c-25.916,23.606-60.479,52.955-98.031,70.513-17.162,8.025-34.87,13.486-51.995,18.768l-.229.071c-7.042,2.173-14.323,4.42-21.487,6.813-37.767,12.637-72.757,32.193-106.594,51.1l-.079.044c-12.115,6.772-24.643,13.774-36.8,20.144-13.772,7.217-25.288,12.71-36.24,17.286A238.433,238.433,0,0,1,286.345,890.1a169.35,169.35,0,0,1-18.091,3.367,143.559,143.559,0,0,1-18.192,1.188c-3.882,0-7.782-.171-11.593-.509-18.4-1.634-35.9-7.107-53.5-16.733-47.514-25.954-80.461-75-106.936-114.411l-.025-.037C64.63,743.043,49.506,719.207,38.808,693.5c-17.3-41.593-19.99-80.867-8.216-120.066,4.04-13.494,9.992-27.066,15.749-40.191l.013-.031c5.828-13.271,11.853-26.993,16.031-40.922,8.2-27.371,9.3-54.55,10.369-80.835l0-.087c.541-13.424,1.1-27.3,2.617-41.055.688-6.323,1.676-12.82,2.934-19.31,4.575-23.5,16.972-66.809,48.592-92.91,13.209-10.9,27.381-17.549,45.951-21.543,10.566-2.237,21.037-3.446,32.122-4.726,12.486-1.432,26.638-3.055,41.241-6.544,29.357-7.032,61.148-22.288,94.488-45.344,25.4-17.421,51.733-38.629,82.876-66.743,21.564-19.472,33.275-29.406,41.068-35.885,14.915-12.4,28.2-22.531,40.613-30.971,6.906-4.695,13.68-8.951,20.135-12.65a222.746,222.746,0,0,1,20.021-10.23,162.528,162.528,0,0,1,19.908-7.409,123.807,123.807,0,0,1,19.8-4.186,103.923,103.923,0,0,1,11.144-.787C596.645,11.067,597.029,11.064,597.406,11.064ZM250.063,893.657c48.38,0,95.265-26.207,144.9-53.952l.079-.044c33.877-18.934,68.908-38.513,106.765-51.18,7.175-2.4,14.462-4.646,21.509-6.82l.229-.071c17.092-5.272,34.766-10.724,51.866-18.719,37.43-17.5,71.918-46.788,97.782-70.347C730.433,640.4,827.239,536.339,832.5,425.051c1.8-39.026-7.241-75.612-29.329-118.626-9.034-17.6-19.49-34.893-29.6-51.614l-.023-.039c-10.721-17.732-21.806-36.067-31.342-54.965-2.865-5.673-5.589-11.4-8.095-17.01-6.143-13.766-11.628-28.261-16.932-42.28l-.007-.02c-9.369-24.761-19.056-50.361-32.426-71.788-16.125-25.841-44.365-56.644-87.332-56.645-.373,0-.753,0-1.128.007a102.868,102.868,0,0,0-11.035.78A122.8,122.8,0,0,0,565.608,17a161.529,161.529,0,0,0-19.785,7.364,221.7,221.7,0,0,0-19.93,10.184c-6.433,3.687-13.185,7.929-20.07,12.609-12.387,8.421-25.646,18.533-40.536,30.912C450.465,90.4,435.57,103.71,424.25,113.932c-31.176,28.145-57.543,49.379-82.979,66.824-33.441,23.126-65.344,38.433-94.822,45.493-14.662,3.5-28.845,5.129-41.359,6.565-11.061,1.277-21.508,2.484-32.027,4.71-18.4,3.958-32.445,10.539-45.523,21.336-31.38,25.9-43.7,68.965-48.247,92.329-1.253,6.463-2.236,12.932-2.922,19.229C74.857,384.134,74.3,398,73.758,411.4l0,.087c-1.067,26.347-2.171,53.591-10.411,81.082-4.2,13.987-10.234,27.738-16.073,41.036l-.013.031c-5.745,13.1-11.685,26.641-15.707,40.077-11.705,38.969-9.029,78.023,8.182,119.394,10.664,25.631,25.756,49.414,39.112,69.3l.025.036c26.413,39.32,59.286,88.254,106.585,114.091,17.477,9.558,34.848,14.993,53.105,16.614C242.339,893.487,246.21,893.657,250.063,893.657Z" transform="translate(16.215 11.495)" fill="#35008b"/>
    <path id="Path_341579" data-name="Path 341579" d="M624.593,5.37c1.606,0,3.215.038,4.782.114,45.345,2.305,73.615,37.09,89.345,65.864,12.844,23.489,21.669,51.083,30.2,77.768l.008.024c4.819,15.068,9.8,30.65,15.491,45.492,2.321,6.052,4.859,12.231,7.542,18.367,8.953,20.477,19.531,40.47,29.761,59.8,9.658,18.253,19.645,37.127,28.162,56.257,20.863,46.833,28.541,86.043,24.894,127.134a237.824,237.824,0,0,1-8.087,43.189,292.924,292.924,0,0,1-15.3,41.436,369.659,369.659,0,0,1-20.9,39.237c-7.381,12.1-15.756,24.413-24.894,36.591a609.032,609.032,0,0,1-55.325,63.462c-16.229,16.311-33.722,32.3-51.995,47.517-27.758,23.12-64.679,51.709-104.126,67.706-18.031,7.308-36.508,11.891-54.377,16.324l-.22.055c-7.355,1.824-14.961,3.711-22.453,5.76-39.465,10.814-76.381,29.084-112.082,46.752l-.062.031c-25.029,12.387-48.67,24.087-72.438,32.939a258.617,258.617,0,0,1-35.5,10.655c-6.015,1.306-11.963,2.3-17.68,2.968a153.969,153.969,0,0,1-17.671,1.047,136.334,136.334,0,0,1-20.758-1.571c-18.863-2.923-36.628-9.822-54.309-21.091-47.739-30.4-79.434-84.116-104.9-127.282l-.008-.013c-12.875-21.825-27.363-47.873-37.2-75.588-15.922-44.843-16.907-86.295-3.01-126.726,4.774-13.92,11.52-27.8,18.043-41.223l.012-.025c6.595-13.548,13.413-27.556,18.363-41.967,9.689-28.24,12.057-56.742,14.348-84.306l.007-.087C73.417,377.9,74.625,363.338,76.807,349c1-6.607,2.309-13.371,3.9-20.1,5.776-24.4,20.5-69.11,54.237-94.477,14.1-10.6,28.992-16.656,48.286-19.638,10.958-1.656,21.8-2.242,33.283-2.863,12.937-.691,27.6-1.473,42.756-4.18,30.546-5.47,63.968-19.425,99.337-41.479,26.944-16.652,55.017-37.221,88.352-64.734,23.088-19.059,35.594-28.734,43.91-35.034,15.919-12.059,30.056-21.839,43.218-29.9,7.322-4.483,14.49-8.514,21.3-11.98a222.486,222.486,0,0,1,21.076-9.443A162.277,162.277,0,0,1,597.3,8.687a124.012,124.012,0,0,1,20.57-3.1C620.142,5.442,622.406,5.37,624.593,5.37ZM241.664,910.863a152.958,152.958,0,0,0,17.556-1.04c5.684-.66,11.6-1.653,17.583-2.951a257.657,257.657,0,0,0,35.367-10.615c23.719-8.835,47.338-20.524,72.343-32.9l.062-.031c35.743-17.689,72.7-35.981,112.261-46.821,7.5-2.052,15.115-3.94,22.477-5.766l.22-.055c17.835-4.424,36.277-9,54.242-16.28,39.319-15.945,76.16-44.474,103.862-67.547,61.294-51.05,165.684-154.108,176.15-270.753,3.631-40.912-4.021-79.969-24.812-126.638-8.5-19.1-18.482-37.958-28.133-56.2-10.238-19.351-20.825-39.36-29.793-59.871-2.689-6.15-5.233-12.344-7.56-18.41-5.7-14.869-10.687-30.464-15.51-45.545l-.008-.024c-8.52-26.64-17.331-54.187-30.129-77.593C702.235,43.277,674.209,8.765,629.326,6.483c-1.55-.075-3.143-.113-4.733-.113-2.167,0-4.41.071-6.665.21a123.011,123.011,0,0,0-20.4,3.08,161.255,161.255,0,0,0-20.7,6.446,221.45,221.45,0,0,0-20.981,9.4c-6.79,3.454-13.934,7.472-21.234,11.941-13.134,8.041-27.244,17.8-43.136,29.842-15.816,11.982-31.757,25-43.878,35.008-33.37,27.543-61.479,48.138-88.461,64.813-35.476,22.12-69.017,36.122-99.689,41.614-15.218,2.718-29.913,3.5-42.878,4.194-11.456.619-22.276,1.2-33.185,2.853-19.121,2.955-33.875,8.953-47.836,19.448-33.484,25.178-48.12,69.644-53.865,93.908-1.584,6.705-2.891,13.442-3.883,20.023-2.176,14.305-3.383,28.851-4.55,42.918l-.007.087c-2.3,27.625-4.67,56.19-14.4,84.548-4.969,14.469-11.8,28.506-18.41,42.08l-.012.025c-6.51,13.4-13.242,27.248-18,41.111C8.6,600.126,9.584,641.362,25.428,685.983c9.811,27.635,24.271,53.63,37.121,75.414l.008.013C87.97,804.484,119.6,858.09,167.134,888.357c17.562,11.194,35.2,18.045,53.924,20.946A135.339,135.339,0,0,0,241.664,910.863Z" transform="translate(8.306 5.835)" fill="#35008b"/>
    <path id="Path_341580" data-name="Path 341580" d="M651.945,0A106.184,106.184,0,0,1,663.8.649c46.573,5.391,74.09,43.8,88.974,75.067,12.149,25.518,19.98,55.092,27.554,83.693l.013.048c4.278,16.157,8.7,32.864,13.883,48.841,2.123,6.535,4.456,13.2,6.933,19.8,8.282,22.094,18.261,43.8,27.911,64.785l.014.031c9.115,19.82,18.54,40.314,26.438,60.979,19.35,50.586,25.473,92.3,19.855,135.251a251.984,251.984,0,0,1-10.285,44.865,306.111,306.111,0,0,1-17.634,42.553,381.9,381.9,0,0,1-23.3,39.875c-8.148,12.238-17.329,24.631-27.29,36.834a618.319,618.319,0,0,1-59.84,63.088c-17.449,16.084-36.185,31.744-55.688,46.546-29.623,22.484-68.927,50.118-110.272,64.353-18.9,6.5-38.13,10.112-56.728,13.6l-.1.018c-7.69,1.442-15.643,2.933-23.5,4.608-41.131,8.788-79.977,25.582-117.544,41.823l-.033.014c-24.631,10.649-47.9,20.707-71.206,28.33a282.8,282.8,0,0,1-34.707,9.175c-5.86,1.125-11.642,1.985-17.186,2.556a167.487,167.487,0,0,1-17.095.9,147.345,147.345,0,0,1-15.421-.8,137.121,137.121,0,0,1-15.366-2.51c-19.281-4.3-37.254-12.718-54.946-25.72-47.755-35.069-77.942-93.6-102.2-140.633l-.018-.036c-12.261-23.778-25.992-52.1-34.866-81.884C-4.21,628.532-3.341,584.9,12.8,543.321c5.545-14.321,13.12-28.468,20.446-42.15l.013-.024C40.676,487.31,48.343,473,54.073,458.229c11.255-29.048,14.988-58.849,18.6-87.67l.014-.109c1.843-14.731,3.748-29.964,6.643-44.884,1.333-6.907,2.99-13.931,4.926-20.876,7.052-25.264,24.24-71.3,60.126-95.754,14.992-10.218,30.6-15.61,50.6-17.482,8.688-.783,17.091-.888,24.164-.888,3.374,0,6.859.029,10.231.057,3.757.035,7.149.063,10.617.063a283.985,283.985,0,0,0,33.59-1.657c31.693-3.75,66.734-16.231,104.152-37.1,28.5-15.746,58.339-35.531,93.9-62.265,24.631-18.521,37.947-27.873,46.8-33.952a533.627,533.627,0,0,1,45.851-28.6c7.742-4.233,15.3-8,22.476-11.2A222.129,222.129,0,0,1,608.886,7.37a162.179,162.179,0,0,1,21.742-5.453A124.486,124.486,0,0,1,651.945,0ZM232.96,927.288a166.441,166.441,0,0,0,16.992-.9c5.515-.568,11.268-1.424,17.1-2.543a281.819,281.819,0,0,0,34.585-9.143c23.266-7.609,46.51-17.658,71.12-28.3l.033-.015c37.612-16.26,76.5-33.074,117.733-41.883,7.874-1.677,15.832-3.169,23.528-4.613l.1-.018c18.563-3.482,37.759-7.083,56.587-13.564,41.21-14.189,80.43-41.765,109.993-64.2,65.424-49.652,177.579-151.155,193.651-273.094,5.6-42.778-.51-84.341-19.8-134.764-7.887-20.634-17.305-41.113-26.413-60.918l-.014-.031c-9.658-21-19.644-42.724-27.939-64.852-2.482-6.619-4.82-13.3-6.948-19.845-5.19-16-9.617-32.724-13.9-48.894l-.013-.048c-7.562-28.556-15.381-58.085-27.49-83.519C737.092,45.1,709.8,6.981,663.683,1.643A105.171,105.171,0,0,0,651.945,1,123.486,123.486,0,0,0,630.8,2.9a161.189,161.189,0,0,0-21.607,5.42,221.126,221.126,0,0,0-22.027,8.508c-7.147,3.187-14.685,6.942-22.4,11.162A532.6,532.6,0,0,0,519,56.537c-16.83,11.562-33.83,24.2-46.761,33.927-35.6,26.763-65.473,46.572-94.015,62.34-37.53,20.93-72.7,33.452-104.52,37.217a284.932,284.932,0,0,1-33.707,1.664c-3.473,0-6.867-.029-10.626-.063-3.369-.028-6.852-.057-10.222-.057-7.051,0-15.426.105-24.073.884-19.824,1.856-35.286,7.2-50.131,17.313-35.623,24.277-52.711,70.064-59.726,95.2-1.928,6.919-3.579,13.917-4.907,20.8-2.889,14.888-4.792,30.1-6.633,44.818l-.014.109c-3.617,28.88-7.358,58.744-18.658,87.907-5.752,14.83-13.434,29.165-20.863,43.028l-.013.024c-7.311,13.655-14.872,27.776-20.4,42.04C-2.325,585.049-3.186,628.468,11.1,676.421c8.85,29.7,22.556,57.975,34.8,81.711l.018.036c24.208,46.939,54.335,105.355,101.9,140.286,17.579,12.919,35.429,21.276,54.572,25.55a136.1,136.1,0,0,0,15.253,2.491A146.318,146.318,0,0,0,232.96,927.288Z" transform="translate(0.339 0.497)" fill="#35008b"/>
  </g>
</svg>
