<svg width="38" height="38" viewBox="0 0 38 38" fill="none" xmlns="http://www.w3.org/2000/svg">
<rect width="38" height="38" rx="19" fill="#E7E2FE"/>
<path d="M19.75 15C19.75 14.5858 19.4142 14.25 19 14.25C18.5858 14.25 18.25 14.5858 18.25 15L19.75 15ZM21.2232 22.1495C21.5819 22.3566 22.0406 22.2337 22.2477 21.875C22.4548 21.5163 22.3319 21.0576 21.9731 20.8505L21.2232 22.1495ZM9.53148 9.66435C9.20803 9.92311 9.15559 10.3951 9.41435 10.7185C9.67311 11.042 10.1451 11.0944 10.4685 10.8357L9.53148 9.66435ZM12.9685 8.83565C13.292 8.57689 13.3444 8.10493 13.0857 7.78148C12.8269 7.45803 12.3549 7.40559 12.0315 7.66435L12.9685 8.83565ZM27.5315 10.8357C27.8549 11.0944 28.3269 11.042 28.5857 10.7185C28.8444 10.3951 28.792 9.92311 28.4685 9.66435L27.5315 10.8357ZM25.9685 7.66435C25.6451 7.40559 25.1731 7.45803 24.9143 7.78148C24.6556 8.10493 24.708 8.57689 25.0315 8.83565L25.9685 7.66435ZM19 17.6906L18.25 17.6906L19 17.6906ZM21 21.1547L21.375 20.5052L21 21.1547ZM19.268 19.8453L19.9175 19.4703L19.268 19.8453ZM18.25 15L18.25 17.6906L19.75 17.6906L19.75 15L18.25 15ZM21.9731 20.8505L21.375 20.5052L20.625 21.8042L21.2232 22.1495L21.9731 20.8505ZM28.25 19C28.25 24.1086 24.1086 28.25 19 28.25V29.75C24.9371 29.75 29.75 24.9371 29.75 19H28.25ZM19 28.25C13.8914 28.25 9.75 24.1086 9.75 19H8.25C8.25 24.9371 13.0629 29.75 19 29.75V28.25ZM9.75 19C9.75 13.8914 13.8914 9.75 19 9.75V8.25C13.0629 8.25 8.25 13.0629 8.25 19H9.75ZM19 9.75C24.1086 9.75 28.25 13.8914 28.25 19H29.75C29.75 13.0629 24.9371 8.25 19 8.25V9.75ZM10.4685 10.8357L12.9685 8.83565L12.0315 7.66435L9.53148 9.66435L10.4685 10.8357ZM28.4685 9.66435L25.9685 7.66435L25.0315 8.83565L27.5315 10.8357L28.4685 9.66435ZM18.25 17.6906C18.25 18.2395 18.2492 18.7051 18.2871 19.0901C18.3267 19.4915 18.4125 19.8636 18.6184 20.2203L19.9175 19.4703C19.8555 19.3629 19.8073 19.2211 19.7799 18.943C19.7508 18.6484 19.75 18.2687 19.75 17.6906L18.25 17.6906ZM21.375 20.5052C20.8744 20.2161 20.5459 20.0255 20.3054 19.8531C20.0782 19.6903 19.9795 19.5777 19.9175 19.4703L18.6184 20.2203C18.8244 20.577 19.1037 20.8373 19.4315 21.0723C19.746 21.2977 20.1496 21.5297 20.625 21.8042L21.375 20.5052Z" fill="#6E4ABA"/>
</svg>
