<svg width="16" height="10" viewBox="0 0 16 10" fill="none" xmlns="http://www.w3.org/2000/svg">
<path d="M8.00148 3.41299L2.07551 9.57706C1.91273 9.74679 1.6951 9.84016 1.46303 9.84016C1.23084 9.84016 1.01333 9.74679 0.850295 9.57706L0.33131 9.03693C0.168016 8.86747 0.0781273 8.64094 0.0781272 8.39954C0.0781271 8.15815 0.168016 7.93189 0.331309 7.76229L7.38668 0.422989C7.55023 0.252725 7.76877 0.159489 8.00109 0.160158C8.23444 0.159488 8.45272 0.252591 8.6164 0.422989L15.6649 7.75546C15.8282 7.92505 15.9181 8.15131 15.9181 8.39284C15.9181 8.63424 15.8282 8.8605 15.6649 9.03023L15.146 9.57022C14.8082 9.9216 14.2583 9.9216 13.9206 9.57022L8.00148 3.41299Z" fill="#35008B"/>
</svg>
